# Blender 5.1.2
# www.blender.org
mtllib Rock_Chunky.mtl
o Rock_Chunky
v 0.108494 0.189547 0.016031
v 1.654323 0.694400 -0.649024
v 1.015982 0.777681 1.126203
v -0.779040 0.538274 1.406363
v -1.264261 0.598942 -0.307859
v -0.048169 0.696086 -1.353948
v 1.314198 2.176558 0.320019
v 0.042871 1.974470 1.205038
v -0.924086 1.751238 0.362538
v -0.773385 1.825242 -0.857287
v 0.857160 2.290324 -1.547388
v -0.152123 3.031095 -0.022478
v 0.812907 0.430815 0.857730
v 0.546305 0.256471 0.531437
v 0.309195 0.215666 0.251879
v 0.383755 0.217746 -0.099218
v 0.691024 0.259447 -0.228394
v 1.176787 0.390640 -0.435969
v 1.563891 0.675888 -0.160741
v 1.337964 0.698016 0.313377
v 1.395793 0.630359 0.882272
v 0.403858 0.485282 -1.575904
v 0.897890 0.479972 -1.318527
v 1.340158 0.581364 -0.996925
v 0.084408 0.187789 -0.283858
v 0.055834 0.195770 -0.628335
v 0.005712 0.376467 -1.045748
v -0.536302 0.199779 1.065764
v -0.313155 0.179999 0.705128
v -0.059957 0.182351 0.291880
v 0.666719 0.650130 1.318582
v 0.199094 0.502721 1.487621
v -0.317880 0.536324 1.441303
v -0.856195 0.395921 -0.212255
v -0.441327 0.273619 -0.114359
v -0.170753 0.167546 -0.050730
v -0.997485 0.481382 0.997999
v -1.020531 0.560525 0.463690
v -1.058617 0.651417 0.060024
v -0.832978 0.720586 -0.493902
v -0.605993 0.677811 -0.769469
v -0.383241 0.607437 -1.189038
v 1.290891 1.980541 -1.595418
v 1.778401 1.514859 -1.529148
v 1.749033 1.026241 -1.036186
v 0.181901 0.897536 -1.883764
v 0.513914 1.390397 -2.155493
v 0.775184 1.943540 -1.984375
v 1.691447 1.999659 0.703357
v 1.630696 1.535588 1.000061
v 1.545672 1.042888 1.300982
v 1.923592 1.064643 -0.458251
v 1.852699 1.540366 -0.149798
v 1.578780 1.919212 0.125796
v -0.130879 1.714195 1.355382
v -0.350920 1.360235 1.471854
v -0.649755 0.893809 1.663292
v 0.991688 1.038159 1.547434
v 0.625691 1.450371 1.513490
v 0.293787 1.767436 1.377169
v -1.260242 1.574149 0.300223
v -1.475703 1.238745 0.119316
v -1.342256 0.907644 -0.106950
v -1.093615 0.857332 1.351604
v -1.156955 1.279844 0.994802
v -1.176662 1.605402 0.697094
v -0.768673 1.631606 -1.199440
v -0.575732 1.300797 -1.392645
v -0.311003 0.954367 -1.457870
v -1.189756 0.931315 -0.494738
v -1.254297 1.247010 -0.769226
v -0.953380 1.575764 -0.802454
v 1.101605 2.356580 -1.102172
v 1.298315 2.373926 -0.588282
v 1.404484 2.329111 -0.079635
v 1.154953 2.276339 0.684813
v 0.719604 2.171119 0.911285
v 0.336504 2.044213 1.044033
v -0.320806 2.077219 1.251826
v -0.689544 2.036495 1.016065
v -0.881570 1.892874 0.655788
v -1.080233 1.853629 0.111029
v -0.978740 1.847971 -0.229388
v -0.789275 1.792116 -0.498896
v -0.511792 1.926964 -1.012179
v -0.173917 2.116858 -1.316738
v 0.364583 2.331470 -1.653057
v 0.272515 3.099481 0.079333
v 0.628168 2.651819 0.160407
v 0.975684 2.391798 0.241099
v 0.667125 2.691341 -1.302926
v 0.337706 2.833759 -0.789005
v 0.075030 3.084033 -0.401507
v -0.103463 2.834897 0.359479
v -0.055534 2.710602 0.812979
v 0.001616 2.181604 0.926926
v -0.459349 2.726186 0.120228
v -0.807270 2.513353 0.275019
v -0.965634 2.108936 0.361304
v -0.425114 2.971631 -0.345503
v -0.610892 2.540142 -0.601741
v -0.735315 2.154053 -0.782395
v -0.184342 2.757255 -0.727897
v 0.074375 2.549252 -1.160788
v -0.384857 2.301062 -0.919773
v -0.650285 2.434091 -0.146208
v -0.701437 2.035929 -0.334973
v -0.894928 2.130943 -0.008164
v -0.517666 2.800266 0.611225
v -0.754380 2.278874 0.655171
v -0.353103 2.258088 0.831903
v 0.295749 2.663449 0.464174
v 0.344860 2.401283 0.845460
v 0.715999 2.471385 0.572410
v 0.542357 2.873901 -0.301492
v 1.077946 2.706266 -0.205714
v 0.902963 2.743599 -0.767636
v 0.113484 1.832575 -1.733642
v -0.146713 1.333839 -1.857940
v -0.429534 1.745850 -1.545902
v -1.106317 1.585747 -0.466501
v -1.221743 1.256459 -0.292248
v -1.195563 1.582000 -0.079298
v -0.899838 1.664012 0.990749
v -0.867340 1.312225 1.424111
v -0.489942 1.682788 1.152270
v 0.771776 1.895738 1.359582
v 1.243499 1.506289 1.458665
v 1.136632 1.908413 0.973369
v 1.667474 2.000770 -0.398986
v 1.889680 1.535084 -0.789588
v 1.570479 2.026774 -1.034847
v -0.806790 1.285652 -0.946391
v -0.672833 0.916292 -1.185281
v -0.979071 0.910826 -0.838440
v -1.325512 1.258408 0.553854
v -1.253927 0.899999 0.300032
v -1.225000 0.862106 0.807196
v 0.124587 1.405282 1.577721
v -0.104297 0.949605 1.593350
v 0.472320 0.961909 1.699876
v 1.839503 1.547149 0.440019
v 1.603966 1.063264 0.676344
v 1.831542 1.051489 0.121479
v 1.275745 1.461093 -2.094681
v 1.487700 0.890475 -1.638003
v 0.846703 0.836199 -1.991318
v -0.238360 0.550886 -0.602694
v -0.248607 0.165453 -0.401527
v -0.528285 0.453554 -0.428004
v -0.767666 0.300065 0.149921
v -0.445748 0.156159 0.246880
v -0.762191 0.152426 0.653000
v -0.064664 0.222243 1.084150
v 0.154475 0.216192 0.614588
v 0.411282 0.282793 0.957227
v 0.449811 0.240391 -1.058576
v 0.906162 0.285923 -0.787223
v 0.397791 0.223928 -0.461303
v 0.902626 0.413906 0.427579
v 0.612082 0.251685 0.136607
v 0.964309 0.453337 0.010201
vn 0.1090 -0.9939 0.0173
vn 0.4807 -0.8634 -0.1536
vn 0.0932 -0.9952 0.0309
vn 0.0740 -0.9971 0.0192
vn 0.0787 -0.9969 -0.0005
vn 0.6611 -0.6419 -0.3885
vn 0.1454 -0.7303 0.6675
vn -0.0645 -0.5690 0.8198
vn -0.7270 -0.4940 0.4769
vn -0.2403 -0.5628 -0.7909
vn 0.8394 -0.4968 -0.2205
vn 0.2386 -0.8197 0.5207
vn -0.5126 -0.3726 0.7736
vn -0.9307 0.0029 -0.3658
vn -0.5050 -0.7109 -0.4896
vn 0.4215 0.8114 0.4049
vn 0.1271 0.8044 0.5803
vn -0.9742 -0.1125 0.1956
vn -0.9920 0.1223 -0.0327
vn 0.2168 0.5810 -0.7845
vn -0.2187 0.9758 0.0052
vn -0.1843 0.7640 -0.6184
vn -0.3069 0.8482 -0.4317
vn -0.2396 0.7747 -0.5852
vn -0.4903 0.5913 -0.6402
vn -0.1829 0.8390 -0.5125
vn -0.6000 0.5196 -0.6083
vn -0.4722 0.5100 -0.7190
vn -0.4890 0.4940 -0.7189
vn -0.3160 0.7846 -0.5334
vn -0.5888 0.5513 -0.5910
vn -0.6015 0.5532 -0.5763
vn -0.7278 0.3868 -0.5663
vn -0.4671 0.3582 -0.8084
vn -0.5627 0.2450 -0.7895
vn -0.5738 0.7412 0.3484
vn -0.9208 0.3898 0.0111
vn -0.9597 0.2450 0.1374
vn -0.8872 0.4318 0.1624
vn -0.5979 0.7172 -0.3578
vn -0.9873 0.1507 -0.0503
vn -0.7542 0.3579 -0.5506
vn -0.7961 0.4673 -0.3846
vn -0.9304 0.3305 -0.1584
vn -0.9578 0.2516 0.1390
vn -0.6027 0.5833 -0.5446
vn -0.6046 0.5940 -0.5307
vn -0.8507 0.4562 -0.2612
vn -0.8495 0.5108 -0.1321
vn -0.8629 -0.0985 0.4956
vn -0.5202 0.7309 0.4417
vn -0.5721 0.7982 -0.1884
vn -0.8370 0.4060 0.3669
vn -0.1830 0.9687 -0.1679
vn 0.0751 0.9637 0.2562
vn -0.8342 0.4098 0.3689
vn -0.3798 0.2475 0.8914
vn -0.3427 0.2631 0.9019
vn -0.2174 0.1830 0.9588
vn -0.8489 0.2804 0.4481
vn -0.8873 0.2929 0.3562
vn -0.2103 0.7937 0.5708
vn -0.3457 0.8519 0.3935
vn 0.0938 0.9170 0.3877
vn 0.2923 0.7872 0.5430
vn -0.2487 0.8483 0.4674
vn 0.3371 0.9165 0.2156
vn 0.0904 0.2190 0.9715
vn 0.0890 0.6618 0.7444
vn 0.5690 0.5610 0.6012
vn 0.5286 0.7297 0.4337
vn 0.2359 0.8147 0.5298
vn 0.3242 0.8900 0.3207
vn 0.5466 0.8036 0.2354
vn -0.1045 0.4852 0.8681
vn 0.1417 0.4786 0.8665
vn 0.3259 0.7093 0.6250
vn 0.1612 0.7395 0.6535
vn 0.3869 0.9184 0.0827
vn 0.5360 0.8442 0.0031
vn -0.1676 0.9852 0.0372
vn 0.7579 0.6317 0.1629
vn 0.3928 0.7073 0.5877
vn 0.4378 0.8747 -0.2079
vn 0.4415 0.8599 -0.2561
vn 0.2103 0.8958 0.3916
vn 0.3036 0.9523 -0.0313
vn 0.1612 0.9758 -0.1480
vn 0.1614 0.9728 -0.1661
vn 0.5185 0.6389 0.5683
vn 0.7689 0.6307 -0.1049
vn 0.7139 0.6775 -0.1773
vn 0.7206 0.6266 -0.2970
vn 0.6680 0.6523 -0.3580
vn 0.6659 0.5922 -0.4537
vn 0.1981 0.7493 -0.6318
vn -0.3820 0.4330 -0.8165
vn -0.3824 -0.2351 -0.8936
vn -0.3824 0.3318 -0.8624
vn -0.5951 0.4111 -0.6906
vn -0.4031 0.4137 -0.8163
vn -0.3559 0.3966 -0.8462
vn -0.3386 0.6522 -0.6782
vn -0.6704 0.6651 -0.3290
vn -0.6189 -0.4271 -0.6592
vn -0.6640 -0.3870 -0.6398
vn -0.7355 0.0083 -0.6775
vn -0.7135 -0.0069 -0.7007
vn -0.5927 0.7305 -0.3392
vn -0.5345 0.7323 -0.4218
vn -0.8089 0.5877 0.0185
vn -0.7102 0.6156 -0.3416
vn -0.9875 -0.1409 0.0702
vn -0.5444 0.7937 -0.2714
vn -0.5073 0.7006 -0.5018
vn -0.9325 0.3568 0.0566
vn -0.9514 0.2186 -0.2172
vn -0.8099 0.5579 -0.1813
vn -0.8148 0.5223 -0.2516
vn -0.9253 0.1306 -0.3559
vn -0.8512 0.0154 -0.5246
vn -0.7961 0.3748 -0.4751
vn -0.8028 0.5830 -0.1248
vn -0.8727 0.4680 -0.1391
vn -0.4640 0.6817 0.5656
vn -0.6956 0.6812 -0.2282
vn -0.6882 0.4665 0.5557
vn -0.7977 0.3148 0.5144
vn -0.5986 0.6762 0.4294
vn -0.8466 0.4598 0.2680
vn -0.7361 0.4975 0.4590
vn -0.2772 0.7357 0.6180
vn -0.3685 0.1456 0.9182
vn -0.5401 0.0192 0.8414
vn -0.5761 0.1588 0.8018
vn -0.1233 0.4434 0.8878
vn -0.1299 0.6691 0.7318
vn -0.4545 0.5204 0.7229
vn -0.4917 -0.0089 0.8707
vn 0.2213 0.3728 0.9011
vn 0.1750 0.7462 0.6424
vn -0.0575 0.3429 0.9376
vn 0.0742 0.1471 0.9863
vn -0.1834 0.7676 0.6142
vn -0.0960 0.8431 0.5291
vn 0.0562 0.3096 0.9492
vn 0.4922 0.7204 0.4886
vn 0.4328 0.7897 0.4348
vn 0.2566 0.5885 0.7667
vn 0.4064 -0.0455 0.9126
vn 0.7295 0.2604 0.6325
vn 0.5124 0.7133 0.4782
vn 0.3186 0.4806 0.8170
vn 0.2752 0.5848 0.7631
vn 0.4591 0.8874 -0.0423
vn 0.7730 0.5146 0.3711
vn 0.8592 0.4632 0.2172
vn 0.9922 0.1113 0.0564
vn 0.8541 0.4723 0.2178
vn 0.7310 0.6760 -0.0930
vn 0.9170 0.3958 0.0497
vn 0.8579 0.5019 -0.1103
vn 0.7293 0.6791 -0.0835
vn 0.5809 0.7751 -0.2485
vn 0.9517 -0.1279 -0.2790
vn 0.9697 -0.2000 -0.1404
vn 0.8612 0.4878 -0.1429
vn 0.6645 0.6409 -0.3843
vn 0.5724 0.7430 -0.3468
vn 0.5056 0.7686 -0.3920
vn -0.8034 0.5134 -0.3016
vn -0.8595 -0.2367 -0.4531
vn -0.5587 -0.2799 -0.7807
vn -0.8713 -0.2235 -0.4368
vn -0.3749 0.2530 -0.8919
vn -0.8874 -0.0241 -0.4603
vn -0.7420 0.1531 -0.6527
vn -0.3585 -0.1025 -0.9279
vn -0.7417 -0.5200 -0.4237
vn -0.5022 -0.4619 -0.7311
vn -0.7052 -0.6580 -0.2640
vn -0.4330 -0.8102 -0.3951
vn -0.4760 -0.8396 -0.2618
vn -0.4917 -0.8336 -0.2517
vn -0.2523 -0.4307 -0.8665
vn -0.4702 0.8821 0.0296
vn -0.8692 0.4062 0.2820
vn -0.8642 -0.4704 0.1787
vn -0.9291 0.3285 0.1698
vn -0.9081 0.2513 0.3349
vn -0.8622 -0.3959 0.3159
vn -0.9742 -0.2222 0.0390
vn -0.9339 -0.0084 0.3574
vn -0.9706 0.0527 0.2347
vn -0.7080 -0.6921 0.1407
vn -0.8102 -0.5835 -0.0549
vn -0.8251 -0.5649 0.0049
vn -0.8483 -0.5278 -0.0416
vn -0.8820 -0.4223 0.2092
vn -0.6752 -0.5896 0.4433
vn -0.1116 0.5519 0.8264
vn -0.2348 0.4324 0.8706
vn 0.0867 0.3302 0.9399
vn -0.1087 0.5200 0.8473
vn 0.0725 0.4570 0.8865
vn -0.2282 0.1477 0.9623
vn -0.1828 0.1253 0.9751
vn 0.0907 0.3300 0.9396
vn 0.2318 0.2824 0.9309
vn 0.1572 -0.4115 0.8977
vn -0.1043 -0.2955 0.9496
vn -0.1646 -0.3315 0.9290
vn 0.4324 -0.5774 0.6926
vn 0.2994 -0.6582 0.6908
vn 0.5197 -0.7129 0.4708
vn 0.5905 0.7756 -0.2232
vn 0.9315 0.1014 0.3494
vn 0.9892 -0.1166 0.0885
vn 0.8775 0.4209 -0.2298
vn 0.8143 0.5804 0.0115
vn 0.9020 -0.2776 0.3306
vn 0.8932 -0.2532 0.3717
vn 0.9993 -0.0306 0.0227
vn 0.9865 0.0448 0.1577
vn 0.9118 -0.4043 0.0719
vn 0.8629 -0.4841 -0.1453
vn 0.6280 -0.7287 0.2730
vn 0.6312 -0.7003 0.3334
vn 0.7695 -0.6294 0.1079
vn 0.7727 -0.6235 0.1195
vn 0.4135 0.6739 -0.6123
vn 0.6002 0.5451 -0.5853
vn 0.8831 -0.3584 -0.3026
vn 0.4473 0.6130 -0.6513
vn 0.0514 0.2729 -0.9607
vn 0.7378 -0.2330 -0.6336
vn 0.4611 -0.4437 -0.7684
vn 0.0985 -0.2278 -0.9687
vn -0.1817 -0.3781 -0.9078
vn 0.7197 -0.6756 -0.1601
vn 0.4225 -0.8506 -0.3129
vn 0.3244 -0.8255 -0.4618
vn 0.2350 -0.8515 -0.4687
vn -0.1795 -0.6488 -0.7395
vn -0.5549 -0.6685 -0.4951
vn -0.1582 -0.6991 -0.6973
vn -0.7642 -0.6203 -0.1768
vn 0.0773 -0.9966 -0.0295
vn -0.5228 -0.8512 0.0471
vn -0.3215 -0.9468 -0.0119
vn -0.5273 -0.3821 -0.7589
vn -0.3585 -0.4244 -0.8315
vn -0.0443 -0.8396 -0.5413
vn -0.5713 -0.7396 -0.3558
vn 0.0703 -0.9975 -0.0097
vn -0.3818 -0.9198 0.0902
vn -0.6929 -0.6914 -0.2046
vn -0.1493 -0.8750 -0.4606
vn -0.3664 -0.5946 -0.7157
vn -0.1434 -0.6426 -0.7526
vn -0.4818 -0.7887 0.3818
vn -0.2348 -0.9523 -0.1947
vn -0.2864 -0.9101 -0.2994
vn -0.7727 -0.6345 0.0209
vn -0.7587 -0.6472 -0.0742
vn -0.3137 -0.9019 -0.2971
vn -0.3267 -0.9079 -0.2629
vn -0.7982 -0.5803 -0.1616
vn -0.8344 -0.5493 -0.0454
vn 0.0652 -0.9976 0.0220
vn 0.0638 -0.9974 0.0334
vn 0.0572 -0.9977 0.0354
vn 0.0511 -0.9950 0.0862
vn -0.5227 -0.7661 0.3740
vn -0.5215 -0.7614 0.3850
vn -0.0549 -0.7275 0.6839
vn 0.0442 -0.9957 0.0820
vn 0.0861 -0.9952 0.0471
vn 0.0097 -0.7475 0.6642
vn -0.1058 -0.7827 0.6133
vn 0.0874 -0.9947 0.0536
vn 0.1471 -0.9858 0.0814
vn 0.2297 -0.8631 0.4498
vn 0.4176 -0.7680 0.4855
vn 0.0943 -0.9947 0.0417
vn 0.1125 -0.9924 0.0494
vn 0.1227 -0.9874 0.1000
vn 0.3785 -0.9087 0.1762
vn 0.4058 -0.7686 0.4945
vn 0.5256 -0.6914 0.4957
vn -0.5592 -0.6224 -0.5477
vn 0.2164 -0.8749 -0.4334
vn 0.4246 -0.8483 -0.3164
vn -0.2800 -0.8771 -0.3903
vn -0.2835 -0.8920 -0.3521
vn 0.2874 -0.8982 -0.3325
vn 0.1098 -0.9938 -0.0178
vn 0.0915 -0.9956 -0.0195
vn 0.0971 -0.9948 -0.0311
vn 0.5101 -0.8487 -0.1400
vn 0.2859 -0.9561 0.0648
vn 0.1207 -0.9927 -0.0006
vn 0.1296 -0.9915 -0.0119
vn 0.1074 -0.9941 -0.0128
vn 0.1010 -0.9949 -0.0023
vn 0.1993 -0.6701 0.7150
vn 0.4312 -0.8935 0.1251
vn 0.1307 -0.9908 0.0338
vn 0.3182 -0.9423 0.1034
vn 0.5118 -0.8455 -0.1526
vn 0.4225 -0.9027 0.0813
vn 0.4944 -0.8692 -0.0091
vn 0.5468 -0.8372 0.0017
vn 0.3956 -0.8891 0.2300
vn 0.1259 -0.9918 0.0209
vn 0.1381 -0.9904 0.0088
vn 0.5199 -0.8490 0.0944
vn 0.3655 -0.8818 0.2980
vn 0.4079 -0.8571 0.3147
vn 0.5580 -0.8267 0.0720
vt 0.140066 0.238080
vt 0.175616 0.234157
vt 0.156422 0.272372
vt 0.353124 0.209572
vt 0.281585 0.221140
vt 0.324191 0.159287
vt 0.112412 0.264246
vt 0.109857 0.220603
vt 0.146450 0.202344
vt 0.387933 0.163696
vt 0.230141 0.392260
vt 0.274871 0.379329
vt 0.294271 0.428178
vt 0.704859 0.495957
vt 0.692727 0.548465
vt 0.669163 0.492895
vt 0.895633 0.704592
vt 0.862925 0.673475
vt 0.903947 0.659280
vt 0.110021 0.906302
vt 0.071997 0.881218
vt 0.106556 0.869607
vt 0.412652 0.192899
vt 0.449603 0.142507
vt 0.458988 0.212291
vt 0.224213 0.437102
vt 0.727373 0.577212
vt 0.730566 0.527173
vt 0.763948 0.547585
vt 0.937927 0.692327
vt 0.283143 0.552809
vt 0.283135 0.512779
vt 0.338712 0.515155
vt 0.720249 0.244203
vt 0.684526 0.206286
vt 0.747554 0.214755
vt 0.843742 0.860410
vt 0.811724 0.887290
vt 0.810530 0.845215
vt 0.922062 0.554342
vt 0.906317 0.518402
vt 0.951853 0.522196
vt 0.769849 0.897336
vt 0.731563 0.875660
vt 0.783655 0.860509
vt 0.213076 0.676234
vt 0.178329 0.633732
vt 0.238820 0.620340
vt 0.792725 0.089714
vt 0.851063 0.066333
vt 0.839917 0.116880
vt 0.231699 0.557190
vt 0.184992 0.512426
vt 0.238820 0.498489
vt 0.684526 0.030230
vt 0.758255 0.010649
vt 0.746846 0.064948
vt 0.190332 0.458400
vt 0.132808 0.482944
vt 0.807143 0.040666
vt 0.181183 0.569956
vt 0.124562 0.534374
vt 0.084969 0.506453
vt 0.119677 0.584304
vt 0.078455 0.552780
vt 0.050128 0.528985
vt 0.886415 0.115013
vt 0.789232 0.812657
vt 0.736591 0.791009
vt 0.789232 0.756478
vt 0.729891 0.842225
vt 0.726157 0.748031
vt 0.896447 0.076313
vt 0.936239 0.111651
vt 0.389314 0.696507
vt 0.354374 0.678905
vt 0.384796 0.643130
vt 0.350992 0.623719
vt 0.985574 0.552279
vt 0.989351 0.496890
vt 0.387156 0.731784
vt 0.355067 0.720469
vt 0.984183 0.593864
vt 0.955887 0.563160
vt 0.860684 0.161357
vt 0.919923 0.163705
vt 0.935195 0.487003
vt 0.884389 0.213152
vt 0.976874 0.449430
vt 0.480505 0.452068
vt 0.477037 0.495437
vt 0.412652 0.461640
vt 0.416090 0.513969
vt 0.478540 0.537105
vt 0.881912 0.479640
vt 0.810530 0.748031
vt 0.852705 0.769267
vt 0.813703 0.801327
vt 0.862948 0.822020
vt 0.799611 0.152795
vt 0.827649 0.197004
vt 0.440696 0.570497
vt 0.748797 0.329631
vt 0.726910 0.375983
vt 0.684525 0.329643
vt 0.684525 0.399901
vt 0.849542 0.241695
vt 0.792969 0.234365
vt 0.774887 0.184405
vt 0.488309 0.578208
vt 0.458150 0.620559
vt 0.412652 0.616375
vt 0.425783 0.671628
vt 0.756606 0.273296
vt 0.182504 0.873492
vt 0.131319 0.837462
vt 0.182504 0.817347
vt 0.309388 0.840917
vt 0.260118 0.864716
vt 0.275266 0.800913
vt 0.752909 0.129072
vt 0.704830 0.171879
vt 0.689852 0.101269
vt 0.309388 0.901371
vt 0.617652 0.248697
vt 0.618896 0.186477
vt 0.663227 0.230799
vt 0.663227 0.162309
vt 0.612682 0.124380
vt 0.652641 0.098001
vt 0.601189 0.071210
vt 0.169948 0.712661
vt 0.095833 0.734807
vt 0.110955 0.648921
vt 0.025965 0.726084
vt 0.042510 0.665285
vt 0.062795 0.597145
vt 0.811986 0.341035
vt 0.770095 0.388215
vt 0.770095 0.329631
vt 0.316292 0.458400
vt 0.260118 0.469372
vt 0.010649 0.607388
vt 0.029041 0.558398
vt 0.808253 0.401702
vt 0.777444 0.426175
vt 0.909126 0.839402
vt 0.884246 0.872645
vt 0.884246 0.828553
vt 0.412652 0.809804
vt 0.445277 0.769358
vt 0.464531 0.793573
vt 0.946570 0.646335
vt 0.989351 0.686087
vt 0.925337 0.880916
vt 0.350992 0.760945
vt 0.986715 0.634091
vt 0.953219 0.600572
vt 0.912821 0.608816
vt 0.941029 0.357664
vt 0.904808 0.383082
vt 0.904808 0.329631
vt 0.920182 0.946091
vt 0.884246 0.946091
vt 0.900819 0.902214
vt 0.919625 0.568529
vt 0.295679 0.634746
vt 0.260118 0.660294
vt 0.260550 0.623719
vt 0.308839 0.682176
vt 0.269723 0.693728
vt 0.329694 0.716700
vt 0.294985 0.729645
vt 0.789964 0.505997
vt 0.831391 0.538806
vt 0.858009 0.510383
vt 0.322698 0.779615
vt 0.260118 0.770818
vt 0.566126 0.450369
vt 0.557384 0.493631
vt 0.518347 0.460791
vt 0.510803 0.497002
vt 0.675878 0.449430
vt 0.619821 0.457784
vt 0.600803 0.514615
vt 0.550090 0.529730
vt 0.510277 0.543550
vt 0.532296 0.576331
vt 0.563279 0.623111
vt 0.503059 0.627207
vt 0.600671 0.679318
vt 0.536942 0.693451
vt 0.553777 0.876201
vt 0.553777 0.816190
vt 0.597158 0.864863
vt 0.611866 0.815679
vt 0.477948 0.676732
vt 0.598133 0.769358
vt 0.575609 0.748060
vt 0.506850 0.746443
vt 0.442208 0.742965
vt 0.705923 0.308333
vt 0.569067 0.276937
vt 0.602688 0.299034
vt 0.519887 0.245949
vt 0.574277 0.211953
vt 0.513594 0.167812
vt 0.572098 0.134347
vt 0.485829 0.865020
vt 0.527644 0.831052
vt 0.532479 0.898024
vt 0.504896 0.077988
vt 0.562112 0.067006
vt 0.488159 0.788650
vt 0.532479 0.769358
vt 0.679303 0.809471
vt 0.635630 0.788336
vt 0.653097 0.769358
vt 0.679303 0.860009
vt 0.633164 0.830666
vt 0.070141 0.833186
vt 0.110021 0.817347
vt 0.464531 0.837057
vt 0.636734 0.886495
vt 0.459497 0.892238
vt 0.422864 0.861181
vt 0.963286 0.726733
vt 0.922824 0.770572
vt 0.884246 0.807255
vt 0.884246 0.748031
vt 0.353622 0.782243
vt 0.389005 0.825137
vt 0.350992 0.836197
vt 0.389005 0.865088
vt 0.357490 0.882171
vt 0.587776 0.944665
vt 0.553777 0.897499
vt 0.590194 0.897499
vt 0.872494 0.573976
vt 0.865046 0.627920
vt 0.884867 0.534497
vt 0.815790 0.589755
vt 0.818531 0.648730
vt 0.763607 0.611824
vt 0.585273 0.565644
vt 0.644455 0.555209
vt 0.629715 0.619048
vt 0.682948 0.608303
vt 0.646753 0.660409
vt 0.180215 0.403773
vt 0.685592 0.240228
vt 0.529755 0.386882
vt 0.525880 0.317915
vt 0.583702 0.346457
vt 0.472398 0.428132
vt 0.469328 0.351568
vt 0.462614 0.283392
vt 0.418681 0.380998
vt 0.422095 0.311107
vt 0.320669 0.357317
vt 0.288252 0.310202
vt 0.362796 0.301039
vt 0.327342 0.263392
vt 0.391354 0.236704
vt 0.216411 0.738886
vt 0.494380 0.010649
vt 0.428292 0.070872
vt 0.161432 0.796049
vt 0.371859 0.086041
vt 0.308487 0.022690
vt 0.383143 0.018076
vt 0.070086 0.795335
vt 0.280469 0.107331
vt 0.232921 0.059644
vt 0.232651 0.010649
vt 0.320652 0.579545
vt 0.171744 0.939319
vt 0.131319 0.918356
vt 0.171744 0.894790
vt 0.883510 0.406641
vt 0.833284 0.402252
vt 0.868330 0.352735
vt 0.111731 0.177024
vt 0.154052 0.161136
vt 0.833284 0.329631
vt 0.048843 0.890533
vt 0.010649 0.863974
vt 0.036482 0.817347
vt 0.232436 0.893958
vt 0.203802 0.861536
vt 0.237032 0.840797
vt 0.203802 0.817347
vt 0.010649 0.910426
vt 0.633165 0.948714
vt 0.633165 0.907793
vt 0.668348 0.912060
vt 0.085284 0.202175
vt 0.387385 0.945537
vt 0.350992 0.930280
vt 0.387385 0.903469
vt 0.046120 0.174393
vt 0.091759 0.160284
vt 0.069393 0.138328
vt 0.010649 0.146096
vt 0.863017 0.722452
vt 0.041462 0.220920
vt 0.069390 0.245544
vt 0.821017 0.702566
vt 0.021228 0.281531
vt 0.763697 0.673929
vt 0.071203 0.303308
vt 0.035804 0.337041
vt 0.726157 0.639934
vt 0.061416 0.384282
vt 0.010649 0.363697
vt 0.089163 0.355765
vt 0.127947 0.309038
vt 0.116943 0.408589
vt 0.148860 0.357250
vt 0.176087 0.312866
vt 0.202602 0.358158
vt 0.260118 0.602421
vt 0.213196 0.124595
vt 0.257964 0.171916
vt 0.167871 0.108477
vt 0.188486 0.192446
vt 0.215696 0.229586
vt 0.360010 0.529602
vt 0.360010 0.458400
vt 0.387505 0.504995
vt 0.225212 0.311526
vt 0.195373 0.269334
vt 0.246368 0.264664
s 0
usemtl Rock_OBJ_Material
f 1/1/1 16/2/1 15/3/1
f 2/4/2 18/5/2 24/6/2
f 1/1/3 15/3/3 30/7/3
f 1/1/4 30/7/4 36/8/4
f 1/1/5 36/8/5 25/9/5
f 2/4/6 24/6/6 45/10/6
f 3/11/7 21/12/7 51/13/7
f 4/14/8 33/15/8 57/16/8
f 5/17/9 39/18/9 63/19/9
f 6/20/10 42/21/10 69/22/10
f 2/23/11 45/24/11 52/25/11
f 3/11/12 51/13/12 58/26/12
f 4/27/13 57/28/13 64/29/13
f 5/17/14 63/19/14 70/30/14
f 6/31/15 69/32/15 46/33/15
f 7/34/16 75/35/16 90/36/16
f 8/37/17 78/38/17 96/39/17
f 9/40/18 81/41/18 99/42/18
f 10/43/19 84/44/19 102/45/19
f 11/46/20 87/47/20 91/48/20
f 93/49/21 100/50/21 12/51/21
f 92/52/22 103/53/22 93/54/22
f 91/55/23 104/56/23 92/57/23
f 93/54/24 103/53/24 100/58/24
f 103/53/25 101/59/25 100/58/25
f 92/57/26 104/56/26 103/60/26
f 104/61/27 105/62/27 103/53/27
f 103/53/28 105/62/28 101/59/28
f 105/62/29 102/63/29 101/59/29
f 91/48/30 87/47/30 104/61/30
f 87/47/31 86/64/31 104/61/31
f 104/61/32 86/64/32 105/62/32
f 86/64/33 85/65/33 105/62/33
f 105/62/34 85/65/34 102/63/34
f 85/65/35 10/66/35 102/63/35
f 100/50/36 97/67/36 12/51/36
f 101/68/37 106/69/37 100/70/37
f 102/45/38 107/71/38 101/68/38
f 100/70/39 106/69/39 97/72/39
f 106/73/40 98/74/40 97/67/40
f 101/68/41 107/71/41 106/69/41
f 107/75/42 108/76/42 106/77/42
f 106/77/43 108/76/43 98/78/43
f 108/79/44 99/42/44 98/80/44
f 102/45/45 84/44/45 107/71/45
f 84/81/46 83/82/46 107/75/46
f 107/75/47 83/82/47 108/76/47
f 83/83/48 82/84/48 108/79/48
f 108/79/49 82/84/49 99/42/49
f 82/84/50 9/40/50 99/42/50
f 97/67/51 94/85/51 12/51/51
f 98/74/52 109/86/52 97/67/52
f 99/42/53 110/87/53 98/80/53
f 97/67/54 109/86/54 94/85/54
f 109/86/55 95/88/55 94/85/55
f 98/80/56 110/87/56 109/89/56
f 110/90/57 111/91/57 109/92/57
f 109/92/58 111/91/58 95/93/58
f 111/91/59 96/94/59 95/93/59
f 99/42/60 81/41/60 110/87/60
f 81/41/61 80/95/61 110/87/61
f 110/96/62 80/97/62 111/98/62
f 80/97/63 79/99/63 111/98/63
f 111/98/64 79/99/64 96/39/64
f 79/99/65 8/37/65 96/39/65
f 94/85/66 88/100/66 12/51/66
f 95/88/67 112/101/67 94/85/67
f 96/94/68 113/102/68 95/93/68
f 94/103/69 112/104/69 88/105/69
f 112/104/70 89/106/70 88/105/70
f 95/88/71 113/107/71 112/101/71
f 113/107/72 114/108/72 112/101/72
f 112/101/73 114/108/73 89/109/73
f 114/108/74 90/36/74 89/109/74
f 96/94/75 78/110/75 113/102/75
f 78/110/76 77/111/76 113/102/76
f 113/102/77 77/111/77 114/112/77
f 77/111/78 76/113/78 114/112/78
f 114/108/79 76/114/79 90/36/79
f 76/114/80 7/34/80 90/36/80
f 88/100/81 93/49/81 12/51/81
f 89/115/82 115/116/82 88/117/82
f 90/118/83 116/119/83 89/120/83
f 88/100/84 115/121/84 93/49/84
f 115/121/85 92/57/85 93/49/85
f 89/109/86 116/122/86 115/121/86
f 116/122/87 117/123/87 115/121/87
f 115/121/88 117/123/88 92/57/88
f 117/123/89 91/55/89 92/57/89
f 90/118/90 75/124/90 116/119/90
f 75/125/91 74/126/91 116/127/91
f 116/127/92 74/126/92 117/128/92
f 74/126/93 73/129/93 117/128/93
f 117/128/94 73/129/94 91/130/94
f 73/129/95 11/131/95 91/130/95
f 48/132/96 87/47/96 11/46/96
f 47/133/97 118/134/97 48/132/97
f 46/135/98 119/136/98 47/133/98
f 48/132/99 118/134/99 87/47/99
f 118/134/100 86/64/100 87/47/100
f 47/133/101 119/136/101 118/134/101
f 119/136/102 120/137/102 118/134/102
f 118/134/103 120/137/103 86/64/103
f 120/138/104 85/139/104 86/140/104
f 46/33/105 69/32/105 119/141/105
f 69/32/106 68/142/106 119/141/106
f 119/136/107 68/143/107 120/137/107
f 68/143/108 67/144/108 120/137/108
f 120/138/109 67/145/109 85/139/109
f 67/145/110 10/146/110 85/139/110
f 72/147/111 84/148/111 10/149/111
f 71/150/112 121/151/112 72/152/112
f 70/30/113 122/153/113 71/154/113
f 72/147/114 121/155/114 84/148/114
f 121/156/115 83/82/115 84/81/115
f 71/154/116 122/153/116 121/157/116
f 122/153/117 123/158/117 121/157/117
f 121/157/118 123/158/118 83/83/118
f 123/158/119 82/84/119 83/83/119
f 70/30/120 63/19/120 122/153/120
f 63/19/121 62/159/121 122/153/121
f 122/160/122 62/161/122 123/162/122
f 62/163/123 61/164/123 123/165/123
f 123/158/124 61/166/124 82/84/124
f 61/167/125 9/168/125 82/169/125
f 66/170/126 81/171/126 9/168/126
f 65/172/127 124/173/127 66/170/127
f 64/29/128 125/174/128 65/175/128
f 66/170/129 124/173/129 81/171/129
f 124/176/130 80/95/130 81/41/130
f 65/172/131 125/177/131 124/173/131
f 125/177/132 126/178/132 124/173/132
f 124/179/133 126/180/133 80/181/133
f 126/180/134 79/182/134 80/181/134
f 64/183/135 57/16/135 125/184/135
f 57/16/136 56/185/136 125/184/136
f 125/184/137 56/185/137 126/180/137
f 56/185/138 55/186/138 126/180/138
f 126/180/139 55/186/139 79/182/139
f 55/186/140 8/187/140 79/182/140
f 60/188/141 78/110/141 8/187/141
f 59/189/142 127/190/142 60/188/142
f 58/191/143 128/192/143 59/189/143
f 60/193/144 127/194/144 78/195/144
f 127/194/145 77/196/145 78/195/145
f 59/189/146 128/192/146 127/190/146
f 128/192/147 129/197/147 127/190/147
f 127/194/148 129/198/148 77/196/148
f 129/197/149 76/113/149 77/111/149
f 58/191/150 51/199/150 128/192/150
f 51/199/151 50/200/151 128/192/151
f 128/192/152 50/200/152 129/197/152
f 50/200/153 49/201/153 129/197/153
f 129/197/154 49/201/154 76/113/154
f 49/202/155 7/34/155 76/114/155
f 54/203/156 75/125/156 7/204/156
f 53/205/157 130/206/157 54/203/157
f 52/25/158 131/207/158 53/205/158
f 54/203/159 130/206/159 75/125/159
f 130/206/160 74/126/160 75/125/160
f 53/205/161 131/207/161 130/206/161
f 131/207/162 132/208/162 130/206/162
f 130/206/163 132/208/163 74/126/163
f 132/209/164 73/210/164 74/211/164
f 52/25/165 45/24/165 131/207/165
f 45/24/166 44/212/166 131/207/166
f 131/207/167 44/212/167 132/208/167
f 44/212/168 43/213/168 132/208/168
f 132/209/169 43/214/169 73/210/169
f 43/214/170 11/215/170 73/210/170
f 67/216/171 72/217/171 10/218/171
f 68/219/172 133/220/172 67/216/172
f 69/22/173 134/221/173 68/222/173
f 67/216/174 133/220/174 72/217/174
f 133/223/175 71/150/175 72/152/175
f 68/219/176 134/224/176 133/220/176
f 134/225/177 135/226/177 133/223/177
f 133/223/178 135/226/178 71/150/178
f 135/227/179 70/30/179 71/154/179
f 69/22/180 42/21/180 134/221/180
f 42/228/181 41/229/181 134/230/181
f 134/231/182 41/232/182 135/233/182
f 41/232/183 40/234/183 135/233/183
f 135/233/184 40/234/184 70/235/184
f 40/236/185 5/237/185 70/238/185
f 61/167/186 66/170/186 9/168/186
f 62/159/187 136/239/187 61/166/187
f 63/19/188 137/240/188 62/159/188
f 61/166/189 136/239/189 66/241/189
f 136/239/190 65/175/190 66/241/190
f 62/159/191 137/240/191 136/239/191
f 137/240/192 138/242/192 136/239/192
f 136/239/193 138/242/193 65/175/193
f 138/242/194 64/29/194 65/175/194
f 63/19/195 39/18/195 137/240/195
f 39/18/196 38/243/196 137/240/196
f 137/240/197 38/243/197 138/242/197
f 38/243/198 37/244/198 138/242/198
f 138/242/199 37/244/199 64/29/199
f 37/244/200 4/27/200 64/29/200
f 55/186/201 60/188/201 8/187/201
f 56/185/202 139/245/202 55/186/202
f 57/16/203 140/246/203 56/185/203
f 55/186/204 139/245/204 60/188/204
f 139/245/205 59/189/205 60/188/205
f 56/185/206 140/246/206 139/245/206
f 140/246/207 141/247/207 139/245/207
f 139/245/208 141/247/208 59/189/208
f 141/247/209 58/191/209 59/189/209
f 57/16/210 33/15/210 140/246/210
f 33/15/211 32/248/211 140/246/211
f 140/246/212 32/248/212 141/247/212
f 32/248/213 31/249/213 141/247/213
f 141/247/214 31/249/214 58/191/214
f 31/250/215 3/11/215 58/26/215
f 49/202/216 54/251/216 7/34/216
f 50/252/217 142/253/217 49/254/217
f 51/255/218 143/256/218 50/252/218
f 49/254/219 142/253/219 54/203/219
f 142/253/220 53/205/220 54/203/220
f 50/252/221 143/256/221 142/253/221
f 143/256/222 144/257/222 142/253/222
f 142/253/223 144/257/223 53/205/223
f 144/257/224 52/25/224 53/205/224
f 51/255/225 21/258/225 143/256/225
f 21/258/226 20/259/226 143/256/226
f 143/260/227 20/261/227 144/262/227
f 20/261/228 19/263/228 144/262/228
f 144/262/229 19/263/229 52/264/229
f 19/263/230 2/4/230 52/264/230
f 43/265/231 48/132/231 11/46/231
f 44/212/232 145/266/232 43/213/232
f 45/24/233 146/267/233 44/212/233
f 43/265/234 145/268/234 48/132/234
f 145/268/235 47/133/235 48/132/235
f 44/212/236 146/267/236 145/266/236
f 146/269/237 147/270/237 145/271/237
f 145/268/238 147/272/238 47/133/238
f 147/272/239 46/135/239 47/133/239
f 45/10/240 24/6/240 146/269/240
f 24/6/241 23/273/241 146/269/241
f 146/269/242 23/273/242 147/270/242
f 23/273/243 22/274/243 147/270/243
f 147/270/244 22/274/244 46/275/244
f 22/276/245 6/31/245 46/33/245
f 27/277/246 42/278/246 6/279/246
f 26/280/247 148/281/247 27/282/247
f 25/9/248 149/283/248 26/284/248
f 27/282/249 148/281/249 42/285/249
f 148/286/250 41/287/250 42/288/250
f 26/289/251 149/290/251 148/291/251
f 149/290/252 150/292/252 148/291/252
f 148/286/253 150/293/253 41/287/253
f 150/294/254 40/295/254 41/296/254
f 25/9/255 36/8/255 149/283/255
f 36/8/256 35/297/256 149/283/256
f 149/298/257 35/299/257 150/300/257
f 35/297/258 34/301/258 150/302/258
f 150/302/259 34/301/259 40/303/259
f 34/301/260 5/304/260 40/303/260
f 34/305/261 39/18/261 5/17/261
f 35/297/262 151/306/262 34/301/262
f 36/8/263 152/307/263 35/297/263
f 34/305/264 151/308/264 39/18/264
f 151/308/265 38/243/265 39/18/265
f 35/297/266 152/307/266 151/306/266
f 152/307/267 153/309/267 151/306/267
f 151/308/268 153/310/268 38/243/268
f 153/310/269 37/244/269 38/243/269
f 36/8/270 30/7/270 152/307/270
f 30/7/271 29/311/271 152/307/271
f 152/307/272 29/311/272 153/309/272
f 29/311/273 28/312/273 153/309/273
f 153/310/274 28/313/274 37/244/274
f 28/313/275 4/27/275 37/244/275
f 28/312/276 33/314/276 4/315/276
f 29/311/277 154/316/277 28/312/277
f 30/7/278 155/317/278 29/311/278
f 28/312/279 154/316/279 33/314/279
f 154/316/280 32/318/280 33/314/280
f 29/311/281 155/317/281 154/316/281
f 155/317/282 156/319/282 154/316/282
f 154/316/283 156/319/283 32/318/283
f 156/319/284 31/250/284 32/318/284
f 30/7/285 15/3/285 155/317/285
f 15/3/286 14/320/286 155/317/286
f 155/317/287 14/320/287 156/319/287
f 14/320/288 13/321/288 156/319/288
f 156/319/289 13/321/289 31/250/289
f 13/321/290 3/11/290 31/250/290
f 22/276/291 27/322/291 6/31/291
f 23/273/292 157/323/292 22/274/292
f 24/6/293 158/324/293 23/273/293
f 22/274/294 157/323/294 27/325/294
f 157/323/295 26/284/295 27/325/295
f 23/273/296 158/324/296 157/323/296
f 158/324/297 159/326/297 157/323/297
f 157/323/298 159/326/298 26/284/298
f 159/326/299 25/9/299 26/284/299
f 24/6/300 18/5/300 158/324/300
f 18/5/301 17/327/301 158/324/301
f 158/324/302 17/327/302 159/326/302
f 17/327/303 16/2/303 159/326/303
f 159/326/304 16/2/304 25/9/304
f 16/2/305 1/1/305 25/9/305
f 13/328/306 21/329/306 3/330/306
f 14/320/307 160/331/307 13/321/307
f 15/3/308 161/332/308 14/320/308
f 13/321/309 160/331/309 21/12/309
f 160/331/310 20/261/310 21/12/310
f 14/320/311 161/332/311 160/331/311
f 161/332/312 162/333/312 160/331/312
f 160/331/313 162/333/313 20/261/313
f 162/333/314 19/263/314 20/261/314
f 15/3/315 16/2/315 161/332/315
f 16/2/316 17/327/316 161/332/316
f 161/332/317 17/327/317 162/333/317
f 17/327/318 18/5/318 162/333/318
f 162/333/319 18/5/319 19/263/319
f 18/5/320 2/4/320 19/263/320
