# Blender 5.1.2
# www.blender.org
mtllib Rock_Tall.mtl
o Rock_Tall
v -0.027844 0.040672 0.005545
v 0.795248 0.386387 1.304995
v -0.930659 0.550906 0.795148
v -1.055841 0.751192 -0.533607
v 0.075094 0.765040 -0.927807
v 1.381148 0.473822 -0.077179
v -0.106432 2.755394 1.314997
v -1.021067 2.412416 0.057058
v -0.478069 2.311018 -0.784508
v 0.790437 2.469599 -0.675344
v 1.480518 2.762375 0.748233
v 0.026021 3.034802 -0.005182
v -0.709826 0.087511 0.597935
v -0.423340 0.057576 0.348961
v -0.186959 0.045983 0.143689
v 0.082029 0.041276 0.180474
v 0.243648 0.045895 0.437667
v 0.543594 0.051229 0.915093
v 0.374921 0.246482 1.350486
v -0.125650 0.383316 1.080813
v -0.592559 0.400862 1.005764
v 1.348377 0.357235 0.266031
v 1.072027 0.423545 0.567695
v 0.967520 0.389084 0.950949
v 0.157067 0.186739 -0.005538
v 0.529131 0.039095 -0.026717
v 0.826430 0.308450 -0.044624
v -0.743299 0.463770 -0.368771
v -0.486836 0.123214 -0.232164
v -0.201839 0.164144 -0.085752
v -1.097587 0.476247 0.462004
v -1.217838 0.420249 0.073521
v -1.081670 0.662919 -0.264423
v 0.049001 0.338007 -0.735682
v 0.016612 0.046786 -0.453571
v -0.009709 0.041627 -0.182026
v -0.804667 0.709447 -0.669151
v -0.549137 0.603019 -0.842629
v -0.233518 0.615911 -0.978097
v 0.330649 0.721630 -0.743808
v 0.701249 0.504948 -0.621564
v 1.070189 0.467580 -0.369782
v 1.540999 2.267002 1.045620
v 1.427467 1.567352 1.289585
v 1.258407 0.795821 1.519309
v 1.639987 0.910308 0.134106
v 1.881354 1.556057 0.416130
v 1.828063 2.290700 0.662470
v -0.367684 2.234306 1.321006
v -0.687861 1.605566 1.334146
v -0.816736 1.010669 1.013107
v 0.715810 0.833693 1.655900
v 0.454497 1.586542 1.760197
v 0.143009 2.319950 1.641002
v -1.401195 2.167780 -0.114579
v -1.260705 1.610093 -0.278851
v -1.199640 1.127546 -0.434736
v -1.318981 0.941955 0.785362
v -1.433117 1.616161 0.549091
v -1.271474 2.153652 0.261898
v -0.450508 2.063409 -1.042171
v -0.302909 1.589659 -1.173120
v -0.086650 1.145170 -0.994290
v -1.054828 1.123912 -0.715736
v -1.045829 1.603842 -0.944810
v -0.706372 2.033311 -0.852822
v 1.086210 2.120784 -0.646762
v 1.413225 1.561048 -0.541470
v 1.589507 0.881790 -0.327406
v 0.278102 1.099883 -0.999158
v 0.440657 1.577423 -0.854680
v 0.723644 2.100304 -0.897632
v 1.260843 2.965674 1.048501
v 0.837382 3.043873 1.286449
v 0.341692 3.011410 1.431186
v -0.436287 2.732119 0.981444
v -0.736415 2.689124 0.652288
v -0.961751 2.595674 0.332313
v -0.888113 2.399330 -0.175222
v -0.670189 2.293116 -0.354598
v -0.570028 2.295013 -0.560265
v -0.250893 2.486416 -0.903729
v 0.089883 2.427267 -0.777391
v 0.437390 2.464987 -0.742392
v 1.101746 2.704792 -0.463755
v 1.459361 2.943111 -0.087987
v 1.637967 2.989881 0.400414
v 0.007125 3.387680 0.254897
v -0.027080 3.331339 0.598708
v -0.071198 3.190558 1.029726
v 1.269670 3.349791 0.631971
v 0.743864 3.481798 0.359178
v 0.326900 3.465498 0.144408
v -0.237877 3.218089 0.009640
v -0.460564 2.824493 0.023541
v -0.872345 2.823992 0.047397
v -0.099898 3.025599 -0.205383
v -0.231196 2.798785 -0.407136
v -0.388564 2.635923 -0.652461
v 0.198931 3.135827 -0.154019
v 0.435899 3.126799 -0.359769
v 0.653209 2.856046 -0.551608
v 0.657523 3.536020 -0.043041
v 1.127850 3.320623 0.162506
v 0.999575 3.303777 -0.292194
v 0.063274 2.989521 -0.399165
v 0.260026 2.789396 -0.597419
v -0.089056 2.725195 -0.636486
v -0.337511 2.787153 -0.189428
v -0.487464 2.599018 -0.404733
v -0.601096 2.600633 -0.182689
v -0.324663 3.260076 0.301845
v -0.644789 2.915104 0.315825
v -0.425135 3.187320 0.702132
v 0.339879 3.400105 0.482801
v 0.378219 3.408490 0.997371
v 0.897397 3.529111 0.880139
v 1.854385 2.356438 0.171075
v 1.702469 1.557432 -0.098549
v 1.589320 2.302080 -0.354294
v 0.260170 2.018621 -0.819057
v 0.107089 1.582509 -1.109783
v -0.098491 2.129228 -1.109000
v -0.847716 2.042177 -0.605838
v -1.114863 1.606410 -0.575034
v -1.027490 2.067428 -0.365156
v -1.028384 2.193931 0.594330
v -1.004623 1.609608 0.872060
v -0.765143 2.260466 1.013864
v 0.698180 2.391772 1.618487
v 1.078918 1.575152 1.718375
v 1.201507 2.358387 1.371075
v 0.936136 1.568660 -0.812609
v 1.138697 0.917938 -0.658082
v 0.597157 1.063904 -0.791273
v -0.763416 1.597790 -1.215881
v -0.532970 0.975146 -1.235511
v -0.888071 1.019295 -1.013406
v -1.623341 1.617953 0.093970
v -1.323886 1.040101 -0.122131
v -1.451878 0.936460 0.323658
v -0.143011 1.596294 1.482059
v -0.410836 0.909063 1.293383
v 0.134439 0.850215 1.513749
v 1.694637 1.561057 0.874075
v 1.473052 0.799917 1.052747
v 1.595334 0.844670 0.566960
v 0.617263 0.155544 -0.303164
v 0.243493 0.041141 -0.229912
v 0.273589 0.422693 -0.455194
v -0.257262 0.211168 -0.670620
v -0.244891 0.049531 -0.340342
v -0.506493 0.362046 -0.493857
v -0.822562 0.171251 -0.117543
v -0.399756 0.162653 0.026782
v -0.714805 0.212976 0.208693
v 0.776271 0.114926 0.237391
v 0.662214 0.044971 0.552870
v 0.345677 0.074879 0.197686
v -0.310688 0.063036 0.710097
v -0.067457 0.049053 0.417230
v 0.102908 0.068113 0.757698
vn -0.0197 -0.9997 0.0158
vn 0.5841 -0.7624 0.2784
vn -0.3787 -0.8326 -0.4042
vn -0.5573 -0.8283 -0.0581
vn 0.6210 -0.7818 0.0561
vn 0.5650 -0.7800 0.2690
vn -0.5851 -0.2245 0.7793
vn -0.9327 -0.3065 -0.1900
vn 0.2003 -0.0855 -0.9760
vn 0.5427 -0.6228 -0.5635
vn 0.1576 -0.5920 0.7904
vn -0.3525 -0.3281 0.8764
vn -0.8692 -0.2152 -0.4452
vn -0.0363 -0.1872 -0.9817
vn 0.8719 -0.4854 -0.0654
vn -0.4765 0.5087 0.7171
vn -0.9404 0.3393 -0.0232
vn -0.8676 0.3728 -0.3292
vn 0.1700 0.3547 -0.9194
vn 0.7276 0.3749 0.5746
vn -0.6893 0.6147 -0.3835
vn -0.1196 0.9802 0.1578
vn 0.3147 0.9367 -0.1533
vn -0.4638 0.6867 -0.5597
vn -0.4622 0.6856 -0.5624
vn 0.4027 0.9146 0.0368
vn 0.4692 0.8676 -0.1645
vn -0.1121 0.6455 -0.7555
vn -0.0688 0.5394 -0.8392
vn 0.6026 0.7643 -0.2295
vn 0.6128 0.7334 -0.2943
vn 0.6598 0.7206 -0.2128
vn 0.5802 0.3142 -0.7514
vn 0.2819 0.3083 -0.9085
vn 0.3010 0.3861 -0.8720
vn -0.3683 0.9101 0.1898
vn -0.2867 0.8841 -0.3690
vn -0.0026 0.5767 -0.8169
vn -0.2606 0.8856 -0.3843
vn -0.4551 0.7242 -0.5180
vn -0.1467 0.6196 -0.7711
vn -0.0435 0.6812 -0.7308
vn -0.4560 0.7255 -0.5154
vn -0.2373 0.8725 -0.4270
vn 0.0338 0.4231 -0.9055
vn 0.0445 0.4278 -0.9028
vn 0.0202 0.4373 -0.8991
vn 0.3708 0.5696 -0.7335
vn -0.2039 0.7882 -0.5807
vn -0.6575 0.4320 -0.6173
vn 0.5181 0.7752 -0.3615
vn -0.6858 0.6634 -0.2995
vn -0.6105 0.7817 -0.1273
vn -0.5061 0.4554 -0.7324
vn -0.7567 0.4101 -0.5091
vn -0.5966 0.7624 -0.2506
vn -0.5576 0.7774 -0.2910
vn -0.5280 0.7305 -0.4331
vn -0.0426 0.6913 -0.7213
vn -0.8748 0.3868 -0.2916
vn -0.8162 0.4230 -0.3936
vn -0.8088 0.4148 -0.4169
vn -0.3811 0.5149 -0.7679
vn -0.3352 0.4472 -0.8293
vn -0.8245 0.2865 -0.4881
vn 0.3523 0.5674 -0.7443
vn -0.8313 0.4593 -0.3129
vn -0.0189 0.9515 -0.3069
vn -0.3779 0.8940 -0.2407
vn -0.3417 0.9323 0.1188
vn -0.6183 0.5510 -0.5605
vn -0.7329 0.6776 -0.0608
vn -0.3176 0.9438 0.0918
vn -0.2631 0.9247 0.2751
vn -0.6610 0.6730 0.3319
vn -0.6752 0.6842 0.2757
vn -0.8475 0.5178 0.1170
vn -0.7071 0.3823 0.5948
vn -0.6178 0.4222 0.6634
vn -0.6495 0.4529 0.6107
vn -0.3893 0.5329 -0.7513
vn -0.1372 0.9796 0.1469
vn -0.4086 0.8791 0.2453
vn -0.1684 0.9666 0.1932
vn -0.1374 0.9715 0.1930
vn -0.1849 0.9828 -0.0022
vn -0.2261 0.9741 0.0010
vn -0.2064 0.9781 -0.0280
vn 0.3266 0.9278 -0.1805
vn -0.3018 0.7158 0.6298
vn 0.1496 0.7230 0.6744
vn 0.0247 0.6400 0.7680
vn 0.4888 0.5238 0.6977
vn 0.6285 0.5651 0.5345
vn 0.8503 0.3777 0.3664
vn 0.7002 0.4096 0.5848
vn 0.9968 0.0521 0.0604
vn 0.9244 -0.2050 -0.3218
vn 0.9520 0.2926 0.0901
vn 0.8417 0.4133 -0.3474
vn 0.9423 -0.0686 -0.3277
vn 0.8934 -0.0184 -0.4489
vn 0.8200 0.3533 -0.4503
vn 0.5123 0.4160 -0.7514
vn 0.9863 -0.1311 -0.0998
vn 0.8366 0.0451 -0.5460
vn 0.8355 -0.0606 -0.5461
vn 0.4697 0.1096 -0.8760
vn 0.4126 0.2624 -0.8723
vn 0.3972 0.2648 -0.8787
vn 0.1567 0.4884 -0.8584
vn -0.1689 0.0105 -0.9856
vn 0.6075 0.0333 -0.7936
vn -0.2037 0.2437 -0.9482
vn 0.0847 0.1359 -0.9871
vn 0.5825 0.2993 -0.7557
vn 0.6541 0.2470 -0.7149
vn 0.6524 0.3409 -0.6769
vn 0.3701 0.5765 -0.7284
vn -0.0424 -0.2375 -0.9705
vn 0.1398 -0.3103 -0.9403
vn 0.1534 0.0591 -0.9864
vn -0.2182 0.1963 -0.9560
vn -0.2429 0.4034 -0.8822
vn -0.6719 0.4968 -0.5493
vn -0.7176 0.6509 -0.2478
vn -0.6722 0.6185 -0.4069
vn -0.9808 -0.0688 -0.1826
vn -0.5932 0.7174 -0.3653
vn -0.6168 0.7303 -0.2936
vn -0.8464 0.5075 -0.1615
vn -0.7147 0.3975 -0.5755
vn -0.4721 0.7677 -0.4332
vn -0.3382 0.5704 -0.7486
vn -0.8885 0.0231 -0.4582
vn -0.8966 0.0293 -0.4419
vn -0.8390 0.3491 -0.4175
vn -0.5322 0.1131 -0.8390
vn -0.3458 0.5712 -0.7444
vn -0.4219 0.8590 -0.2899
vn -0.7822 0.5831 -0.2196
vn -0.7357 0.4778 0.4801
vn -0.5908 0.1759 0.7874
vn -0.7476 0.4453 0.4927
vn -0.7958 0.4179 0.4384
vn -0.5637 0.3358 0.7547
vn -0.8437 0.2021 0.4973
vn -0.7974 0.4194 0.4338
vn -0.6698 0.5045 0.5448
vn -0.4208 0.0808 0.9036
vn -0.8189 -0.1249 0.5602
vn -0.8111 0.1770 0.5575
vn -0.5695 0.3059 0.7630
vn -0.5361 0.4240 0.7299
vn -0.6787 0.3477 0.6469
vn -0.4266 0.3726 0.8241
vn 0.0182 0.1679 0.9856
vn 0.0643 -0.1150 0.9913
vn 0.0013 0.2900 0.9570
vn 0.2324 0.4015 0.8859
vn 0.0688 0.1527 0.9859
vn 0.4362 0.3068 0.8459
vn 0.4336 0.3337 0.8371
vn 0.5064 0.3654 0.7811
vn 0.2270 -0.1916 0.9549
vn 0.7760 0.0177 0.6305
vn 0.7679 0.1553 0.6214
vn 0.7041 0.1292 0.6982
vn 0.7026 0.2790 0.6546
vn 0.8537 0.3407 0.3939
vn 0.5138 0.3723 -0.7729
vn 0.4917 0.1252 -0.8617
vn 0.5830 -0.1027 -0.8060
vn 0.5629 0.0937 -0.8212
vn 0.0817 -0.1255 -0.9887
vn 0.4928 -0.0529 -0.8686
vn 0.1920 -0.1698 -0.9666
vn 0.0825 -0.0973 -0.9918
vn 0.5499 0.0648 -0.8327
vn 0.4759 -0.5244 -0.7061
vn 0.4405 -0.5306 -0.7242
vn 0.1645 -0.2584 -0.9519
vn 0.1628 -0.2588 -0.9521
vn 0.4491 -0.4562 -0.7682
vn 0.4712 -0.4476 -0.7600
vn -0.5260 0.5844 -0.6179
vn 0.0935 0.2922 -0.9518
vn 0.5025 -0.1010 -0.8586
vn -0.5261 0.5841 -0.6181
vn -0.5616 0.5720 -0.5979
vn 0.0934 0.0659 -0.9934
vn -0.5377 -0.1730 -0.8252
vn -0.6900 -0.1021 -0.7166
vn -0.8836 -0.1881 -0.4289
vn 0.5177 -0.1693 -0.8386
vn -0.2591 -0.6959 -0.6698
vn -0.4656 -0.6329 -0.6186
vn -0.5883 -0.6667 -0.4576
vn -0.8102 -0.5195 -0.2713
vn -0.4872 -0.3823 -0.7851
vn -0.5988 0.7656 0.2351
vn -0.7163 0.0249 -0.6973
vn -0.9294 0.0016 -0.3690
vn -0.8370 0.4540 0.3054
vn -0.8298 0.4358 0.3486
vn -0.7136 -0.1111 -0.6917
vn -0.8827 -0.3336 -0.3310
vn -0.9180 -0.1018 0.3833
vn -0.9587 -0.0653 0.2767
vn -0.8246 -0.3671 -0.4304
vn -0.7879 -0.3039 -0.5357
vn -0.9113 -0.2574 -0.3215
vn -0.7947 -0.5155 0.3203
vn -0.8029 -0.5467 0.2376
vn -0.6365 -0.6206 0.4580
vn -0.5430 0.2813 0.7912
vn -0.2566 0.1506 0.9547
vn -0.5920 -0.2797 0.7559
vn -0.5338 0.0254 0.8452
vn -0.4222 -0.0321 0.9059
vn -0.2612 -0.1596 0.9520
vn -0.3822 -0.1031 0.9183
vn -0.4206 -0.1182 0.8995
vn -0.2378 -0.2138 0.9475
vn -0.5912 -0.2267 0.7740
vn -0.1585 -0.4428 0.8825
vn -0.3686 -0.5133 0.7750
vn -0.5169 -0.4092 0.7519
vn -0.2325 -0.3391 0.9116
vn 0.2720 -0.5636 0.7800
vn 0.7124 0.4231 0.5599
vn 0.8404 0.0518 0.5396
vn 0.9062 -0.0746 0.4162
vn 0.7992 0.0280 0.6005
vn 0.9241 -0.0595 0.3774
vn 0.8346 -0.1166 0.5384
vn 0.9495 -0.2252 0.2183
vn 0.8880 -0.2796 0.3651
vn 0.9300 -0.3653 0.0405
vn 0.5773 -0.7745 0.2588
vn 0.6158 -0.7819 0.0976
vn 0.6247 -0.7761 0.0858
vn 0.5030 -0.6240 0.5980
vn 0.8865 -0.4623 0.0213
vn 0.8738 -0.4797 -0.0795
vn 0.2620 -0.9298 -0.2586
vn 0.6647 -0.7404 -0.0999
vn -0.3118 -0.8474 0.4298
vn 0.5696 -0.8215 0.0250
vn 0.3693 -0.6729 -0.6410
vn 0.2199 -0.9221 -0.3183
vn -0.0135 -0.5076 -0.8615
vn -0.1677 -0.6417 -0.7484
vn -0.1531 -0.6711 -0.7254
vn 0.1062 -0.8149 0.5697
vn -0.0056 -0.9998 -0.0195
vn 0.6277 -0.4319 -0.6476
vn 0.7406 -0.5082 -0.4396
vn 0.7278 -0.5432 -0.4187
vn 0.4967 -0.3812 -0.7798
vn 0.3339 -0.4036 -0.8518
vn 0.1392 -0.6970 -0.7035
vn -0.0195 -0.9996 -0.0209
vn 0.0829 -0.6059 -0.7912
vn -0.3060 -0.5645 -0.7666
vn -0.1935 -0.8841 -0.4254
vn -0.6453 -0.6955 -0.3162
vn -0.6592 -0.6540 -0.3712
vn -0.5756 -0.7040 -0.4160
vn -0.3201 -0.8425 0.4334
vn -0.0867 -0.9029 0.4211
vn -0.4631 -0.6717 -0.5782
vn -0.5561 -0.6342 -0.5371
vn -0.5446 -0.7003 -0.4615
vn -0.4081 -0.7458 -0.5266
vn -0.5513 -0.7757 -0.3073
vn -0.3385 -0.5586 -0.7572
vn 0.0782 -0.9892 0.1244
vn -0.5040 -0.4801 -0.7180
vn -0.6121 -0.5045 -0.6089
vn -0.0802 -0.9811 0.1764
vn -0.0711 -0.9862 0.1496
vn -0.4258 -0.8691 0.2518
vn -0.4264 -0.8673 0.2570
vn -0.2392 -0.8694 -0.4322
vn -0.3174 -0.8945 -0.3150
vn -0.3242 -0.8921 -0.3147
vn -0.3408 -0.8960 -0.2845
vn -0.6491 -0.7264 -0.2258
vn -0.7013 -0.5348 0.4713
vn 0.2579 -0.9221 -0.2886
vn 0.3228 -0.8183 0.4756
vn 0.6716 -0.7316 0.1173
vn 0.3619 -0.7974 -0.4828
vn 0.6111 -0.6992 -0.3711
vn 0.6747 -0.7336 0.0813
vn 0.1074 -0.9781 -0.1781
vn 0.0709 -0.9744 0.2134
vn -0.3720 -0.9147 -0.1582
vn 0.5985 -0.7732 0.2094
vn -0.0064 -0.9999 0.0152
vn 0.0276 -0.9937 -0.1083
vn 0.1303 -0.9894 -0.0641
vn 0.1403 -0.8066 -0.5742
vn 0.5667 -0.7443 -0.3534
vn -0.6046 -0.5381 0.5873
vn -0.0716 -0.9967 0.0374
vn -0.0285 -0.9993 0.0237
vn -0.2234 -0.7408 0.6334
vn -0.1371 -0.7147 0.6859
vn -0.0285 -0.9993 0.0240
vn 0.0062 -0.9986 0.0528
vn -0.0682 -0.7378 0.6715
vn -0.4496 -0.7772 0.4402
vn -0.0202 -0.9996 0.0201
vn -0.0118 -0.9996 0.0254
vn -0.0143 -0.9979 0.0630
vn -0.0544 -0.9975 0.0453
vn -0.1608 -0.9223 0.3513
vn 0.3227 -0.8107 0.4886
vt 0.087183 0.703952
vt 0.106105 0.683989
vt 0.110386 0.720045
vt 0.232270 0.551985
vt 0.185670 0.600071
vt 0.180877 0.541162
vt 0.082917 0.728498
vt 0.062385 0.707710
vt 0.081625 0.679139
vt 0.250197 0.481584
vt 0.306127 0.400980
vt 0.259692 0.424991
vt 0.288879 0.344160
vt 0.794312 0.608218
vt 0.766766 0.583663
vt 0.828180 0.566638
vt 0.471582 0.291739
vt 0.425830 0.299182
vt 0.463834 0.236215
vt 0.648941 0.388116
vt 0.601189 0.373533
vt 0.683137 0.339422
vt 0.072010 0.433044
vt 0.008106 0.382946
vt 0.079792 0.380335
vt 0.357672 0.348790
vt 0.848858 0.603258
vt 0.507597 0.254900
vt 0.420113 0.797954
vt 0.389847 0.742288
vt 0.447873 0.751851
vt 0.189638 0.118666
vt 0.128579 0.087054
vt 0.186231 0.055537
vt 0.313459 0.813040
vt 0.277402 0.831460
vt 0.266408 0.782377
vt 0.287951 0.557933
vt 0.276004 0.527674
vt 0.326021 0.532723
vt 0.633261 0.102069
vt 0.586948 0.089135
vt 0.634420 0.049431
vt 0.571343 0.524531
vt 0.526423 0.488731
vt 0.576006 0.441064
vt 0.900617 0.140071
vt 0.925353 0.185197
vt 0.896199 0.199616
vt 0.900438 0.079191
vt 0.943644 0.111281
vt 0.898558 0.008106
vt 0.945638 0.053729
vt 0.964145 0.171155
vt 0.991894 0.096455
vt 0.702397 0.008106
vt 0.623172 0.009815
vt 0.519987 0.429618
vt 0.468827 0.478361
vt 0.465671 0.417225
vt 0.752223 0.073756
vt 0.687369 0.086071
vt 0.912341 0.226364
vt 0.944984 0.220989
vt 0.581355 0.043352
vt 0.926314 0.262096
vt 0.978665 0.218321
vt 0.961571 0.262686
vt 0.944496 0.300989
vt 0.541014 0.081124
vt 0.534098 0.038624
vt 0.496913 0.059560
vt 0.981387 0.306302
vt 0.318629 0.574962
vt 0.880151 0.221647
vt 0.893821 0.261395
vt 0.908639 0.298591
vt 0.869790 0.790426
vt 0.834910 0.786088
vt 0.886057 0.751567
vt 0.831358 0.753426
vt 0.875309 0.297952
vt 0.861335 0.261014
vt 0.833538 0.306248
vt 0.310414 0.500195
vt 0.266408 0.498713
vt 0.300429 0.468540
vt 0.789803 0.804326
vt 0.771509 0.774504
vt 0.815147 0.783471
vt 0.877447 0.324015
vt 0.877447 0.370126
vt 0.838287 0.329635
vt 0.329743 0.781591
vt 0.389847 0.864434
vt 0.426517 0.837828
vt 0.426517 0.883897
vt 0.881192 0.710701
vt 0.816186 0.260733
vt 0.840463 0.212179
vt 0.867350 0.172572
vt 0.823782 0.157761
vt 0.831358 0.706580
vt 0.785997 0.202079
vt 0.768434 0.142002
vt 0.792040 0.307804
vt 0.768434 0.259328
vt 0.822076 0.324015
vt 0.809946 0.378146
vt 0.768434 0.324015
vt 0.278359 0.114679
vt 0.235990 0.115318
vt 0.235742 0.049636
vt 0.860468 0.120586
vt 0.801550 0.084745
vt 0.848101 0.028429
vt 0.126014 0.026160
vt 0.063135 0.080165
vt 0.057136 0.008106
vt 0.008106 0.086164
vt 0.623995 0.417225
vt 0.621438 0.501898
vt 0.538733 0.590205
vt 0.489738 0.680110
vt 0.476338 0.569076
vt 0.429814 0.662778
vt 0.416723 0.557045
vt 0.736283 0.156697
vt 0.680590 0.242790
vt 0.729676 0.260102
vt 0.657849 0.157767
vt 0.604330 0.143800
vt 0.550329 0.201516
vt 0.545563 0.139005
vt 0.501284 0.185234
vt 0.496362 0.107769
vt 0.448403 0.168824
vt 0.451795 0.104718
vt 0.266408 0.600156
vt 0.761632 0.868793
vt 0.796868 0.834112
vt 0.802955 0.866081
vt 0.699801 0.871588
vt 0.750946 0.832410
vt 0.894624 0.553256
vt 0.918955 0.596575
vt 0.954005 0.537864
vt 0.937426 0.502851
vt 0.735917 0.795737
vt 0.872988 0.514931
vt 0.923950 0.454194
vt 0.699801 0.752150
vt 0.761641 0.740282
vt 0.329743 0.861737
vt 0.329773 0.710464
vt 0.329773 0.635741
vt 0.369075 0.674194
vt 0.314189 0.261968
vt 0.373636 0.254831
vt 0.364334 0.616367
vt 0.306911 0.680717
vt 0.280966 0.618335
vt 0.313562 0.616367
vt 0.318440 0.179175
vt 0.313562 0.765379
vt 0.266408 0.690711
vt 0.280390 0.178394
vt 0.268787 0.271374
vt 0.225225 0.187821
vt 0.154678 0.182698
vt 0.113137 0.282355
vt 0.080427 0.172926
vt 0.029848 0.283278
vt 0.014713 0.172826
vt 0.635496 0.796303
vt 0.616923 0.693194
vt 0.683590 0.696907
vt 0.651757 0.588251
vt 0.596839 0.597977
vt 0.613215 0.220851
vt 0.618381 0.313868
vt 0.552263 0.273932
vt 0.549044 0.351900
vt 0.507318 0.309116
vt 0.789749 0.900861
vt 0.389847 0.150801
vt 0.394440 0.238615
vt 0.727619 0.915152
vt 0.877169 0.690369
vt 0.859408 0.649310
vt 0.942288 0.637618
vt 0.389847 0.291650
vt 0.809279 0.671638
vt 0.804322 0.635605
vt 0.725672 0.706580
vt 0.841508 0.459514
vt 0.795509 0.533450
vt 0.902395 0.418984
vt 0.818087 0.417225
vt 0.752631 0.486626
vt 0.728169 0.440901
vt 0.714202 0.557621
vt 0.699801 0.516039
vt 0.187797 0.824298
vt 0.226268 0.791171
vt 0.243388 0.838687
vt 0.194910 0.275589
vt 0.232854 0.363089
vt 0.158511 0.375256
vt 0.196732 0.428896
vt 0.128149 0.452329
vt 0.554696 0.688074
vt 0.568701 0.787464
vt 0.503384 0.771055
vt 0.182891 0.468923
vt 0.128415 0.539825
vt 0.116748 0.468540
vt 0.079354 0.514353
vt 0.462662 0.821617
vt 0.055974 0.592591
vt 0.008106 0.570281
vt 0.035593 0.520348
vt 0.064440 0.632763
vt 0.027449 0.629400
vt 0.047762 0.676429
vt 0.534638 0.398504
vt 0.485692 0.401014
vt 0.497320 0.349755
vt 0.026536 0.713110
vt 0.450940 0.388913
vt 0.457750 0.348486
vt 0.416536 0.354866
vt 0.049900 0.743318
vt 0.009940 0.754381
vt 0.721843 0.665519
vt 0.760856 0.651248
vt 0.760695 0.690369
vt 0.072948 0.770577
vt 0.717470 0.639350
vt 0.758826 0.621552
vt 0.867644 0.813010
vt 0.836868 0.844625
vt 0.831358 0.806638
vt 0.867644 0.860635
vt 0.369758 0.528079
vt 0.342232 0.498676
vt 0.369758 0.468540
vt 0.104013 0.750515
vt 0.707302 0.610546
vt 0.099595 0.810001
vt 0.138687 0.785043
vt 0.140889 0.853023
vt 0.144914 0.743920
vt 0.187007 0.772721
vt 0.091345 0.591473
vt 0.134885 0.596548
vt 0.100010 0.648952
vt 0.133976 0.654597
vt 0.240094 0.741661
vt 0.187842 0.717484
vt 0.141748 0.695596
vt 0.233978 0.678786
vt 0.180275 0.662236
vt 0.250197 0.606165
s 0
usemtl Rock_OBJ_Material
f 1/1/1 16/2/1 15/3/1
f 2/4/2 18/5/2 24/6/2
f 1/1/3 15/3/3 30/7/3
f 1/1/4 30/7/4 36/8/4
f 1/1/5 36/8/5 25/9/5
f 2/4/6 24/6/6 45/10/6
f 3/11/7 21/12/7 51/13/7
f 4/14/8 33/15/8 57/16/8
f 5/17/9 39/18/9 63/19/9
f 6/20/10 42/21/10 69/22/10
f 2/23/11 45/24/11 52/25/11
f 3/11/12 51/13/12 58/26/12
f 4/14/13 57/16/13 64/27/13
f 5/17/14 63/19/14 70/28/14
f 6/29/15 69/30/15 46/31/15
f 7/32/16 75/33/16 90/34/16
f 8/35/17 78/36/17 96/37/17
f 9/38/18 81/39/18 99/40/18
f 10/41/19 84/42/19 102/43/19
f 11/44/20 87/45/20 91/46/20
f 93/47/21 100/48/21 12/49/21
f 92/50/22 103/51/22 93/47/22
f 91/52/23 104/53/23 92/50/23
f 93/47/24 103/51/24 100/48/24
f 103/51/25 101/54/25 100/48/25
f 92/50/26 104/53/26 103/51/26
f 104/53/27 105/55/27 103/51/27
f 103/51/28 105/55/28 101/54/28
f 105/56/29 102/43/29 101/57/29
f 91/46/30 87/45/30 104/58/30
f 87/45/31 86/59/31 104/58/31
f 104/58/32 86/59/32 105/60/32
f 86/61/33 85/62/33 105/56/33
f 105/56/34 85/62/34 102/43/34
f 85/62/35 10/41/35 102/43/35
f 100/48/36 97/63/36 12/49/36
f 101/54/37 106/64/37 100/48/37
f 102/43/38 107/65/38 101/57/38
f 100/48/39 106/64/39 97/63/39
f 106/64/40 98/66/40 97/63/40
f 101/54/41 107/67/41 106/64/41
f 107/67/42 108/68/42 106/64/42
f 106/64/43 108/68/43 98/66/43
f 108/68/44 99/69/44 98/66/44
f 102/43/45 84/42/45 107/65/45
f 84/42/46 83/70/46 107/65/46
f 107/65/47 83/70/47 108/71/47
f 83/70/48 82/72/48 108/71/48
f 108/68/49 82/73/49 99/69/49
f 82/74/50 9/38/50 99/40/50
f 97/63/51 94/75/51 12/49/51
f 98/66/52 109/76/52 97/63/52
f 99/69/53 110/77/53 98/66/53
f 97/78/54 109/79/54 94/80/54
f 109/79/55 95/81/55 94/80/55
f 98/66/56 110/77/56 109/76/56
f 110/77/57 111/82/57 109/76/57
f 109/76/58 111/82/58 95/83/58
f 111/82/59 96/84/59 95/83/59
f 99/40/60 81/39/60 110/85/60
f 81/39/61 80/86/61 110/85/61
f 110/85/62 80/86/62 111/87/62
f 80/88/63 79/89/63 111/90/63
f 111/91/64 79/92/64 96/93/64
f 79/94/65 8/35/65 96/37/65
f 94/95/66 88/96/66 12/97/66
f 95/81/67 112/98/67 94/80/67
f 96/84/68 113/99/68 95/83/68
f 94/75/69 112/100/69 88/101/69
f 112/100/70 89/102/70 88/101/70
f 95/81/71 113/103/71 112/98/71
f 113/99/72 114/104/72 112/100/72
f 112/100/73 114/104/73 89/102/73
f 114/104/74 90/105/74 89/102/74
f 96/84/75 78/106/75 113/99/75
f 78/106/76 77/107/76 113/99/76
f 113/108/77 77/109/77 114/110/77
f 77/111/78 76/112/78 114/113/78
f 114/113/79 76/112/79 90/34/79
f 76/112/80 7/32/80 90/34/80
f 88/101/81 93/47/81 12/49/81
f 89/102/82 115/114/82 88/101/82
f 90/105/83 116/115/83 89/102/83
f 88/101/84 115/114/84 93/47/84
f 115/114/85 92/50/85 93/47/85
f 89/102/86 116/115/86 115/114/86
f 116/115/87 117/116/87 115/114/87
f 115/114/88 117/116/88 92/50/88
f 117/116/89 91/52/89 92/50/89
f 90/34/90 75/33/90 116/117/90
f 75/33/91 74/118/91 116/117/91
f 116/117/92 74/118/92 117/119/92
f 74/118/93 73/120/93 117/119/93
f 117/121/94 73/122/94 91/46/94
f 73/122/95 11/44/95 91/46/95
f 48/123/96 87/45/96 11/44/96
f 47/124/97 118/125/97 48/123/97
f 46/31/98 119/126/98 47/124/98
f 48/123/99 118/125/99 87/45/99
f 118/125/100 86/59/100 87/45/100
f 47/124/101 119/126/101 118/125/101
f 119/126/102 120/127/102 118/125/102
f 118/125/103 120/127/103 86/59/103
f 120/128/104 85/62/104 86/61/104
f 46/31/105 69/30/105 119/126/105
f 69/22/106 68/129/106 119/130/106
f 119/130/107 68/129/107 120/128/107
f 68/129/108 67/131/108 120/128/108
f 120/128/109 67/131/109 85/62/109
f 67/131/110 10/41/110 85/62/110
f 72/132/111 84/42/111 10/41/111
f 71/133/112 121/134/112 72/132/112
f 70/28/113 122/135/113 71/133/113
f 72/132/114 121/134/114 84/42/114
f 121/134/115 83/70/115 84/42/115
f 71/133/116 122/135/116 121/134/116
f 122/135/117 123/136/117 121/134/117
f 121/134/118 123/136/118 83/70/118
f 123/136/119 82/72/119 83/70/119
f 70/28/120 63/19/120 122/135/120
f 63/19/121 62/137/121 122/135/121
f 122/135/122 62/137/122 123/136/122
f 62/137/123 61/138/123 123/136/123
f 123/136/124 61/138/124 82/72/124
f 61/139/125 9/38/125 82/74/125
f 66/140/126 81/141/126 9/142/126
f 65/143/127 124/144/127 66/140/127
f 64/27/128 125/145/128 65/146/128
f 66/140/129 124/144/129 81/141/129
f 124/144/130 80/88/130 81/141/130
f 65/146/131 125/145/131 124/147/131
f 125/145/132 126/148/132 124/147/132
f 124/144/133 126/149/133 80/88/133
f 126/149/134 79/89/134 80/88/134
f 64/27/135 57/16/135 125/145/135
f 57/16/136 56/150/136 125/145/136
f 125/145/137 56/150/137 126/148/137
f 56/150/138 55/151/138 126/148/138
f 126/149/139 55/152/139 79/89/139
f 55/152/140 8/153/140 79/89/140
f 60/154/141 78/36/141 8/35/141
f 59/155/142 127/156/142 60/157/142
f 58/26/143 128/158/143 59/159/143
f 60/157/144 127/156/144 78/160/144
f 127/161/145 77/162/145 78/163/145
f 59/159/146 128/158/146 127/164/146
f 128/165/147 129/166/147 127/161/147
f 127/161/148 129/166/148 77/162/148
f 129/167/149 76/112/149 77/111/149
f 58/26/150 51/13/150 128/158/150
f 51/13/151 50/168/151 128/158/151
f 128/158/152 50/168/152 129/167/152
f 50/168/153 49/169/153 129/167/153
f 129/167/154 49/169/154 76/112/154
f 49/169/155 7/32/155 76/112/155
f 54/170/156 75/33/156 7/32/156
f 53/171/157 130/172/157 54/170/157
f 52/25/158 131/173/158 53/171/158
f 54/170/159 130/172/159 75/33/159
f 130/172/160 74/118/160 75/33/160
f 53/171/161 131/173/161 130/172/161
f 131/173/162 132/174/162 130/172/162
f 130/172/163 132/174/163 74/118/163
f 132/174/164 73/120/164 74/118/164
f 52/25/165 45/24/165 131/173/165
f 45/175/166 44/176/166 131/177/166
f 131/177/167 44/176/167 132/178/167
f 44/176/168 43/179/168 132/178/168
f 132/178/169 43/179/169 73/122/169
f 43/179/170 11/44/170 73/122/170
f 67/131/171 72/132/171 10/41/171
f 68/129/172 133/180/172 67/131/172
f 69/22/173 134/181/173 68/129/173
f 67/131/174 133/180/174 72/132/174
f 133/180/175 71/133/175 72/132/175
f 68/129/176 134/181/176 133/180/176
f 134/181/177 135/182/177 133/180/177
f 133/180/178 135/182/178 71/133/178
f 135/182/179 70/28/179 71/133/179
f 69/22/180 42/21/180 134/181/180
f 42/21/181 41/183/181 134/181/181
f 134/181/182 41/183/182 135/182/182
f 41/183/183 40/184/183 135/182/183
f 135/182/184 40/184/184 70/28/184
f 40/184/185 5/17/185 70/28/185
f 61/185/186 66/140/186 9/142/186
f 62/137/187 136/186/187 61/138/187
f 63/19/188 137/187/188 62/137/188
f 61/185/189 136/188/189 66/140/189
f 136/188/190 65/143/190 66/140/190
f 62/137/191 137/187/191 136/186/191
f 137/189/192 138/190/192 136/191/192
f 136/191/193 138/190/193 65/146/193
f 138/190/194 64/27/194 65/146/194
f 63/19/195 39/18/195 137/187/195
f 39/18/196 38/192/196 137/187/196
f 137/189/197 38/193/197 138/190/197
f 38/193/198 37/194/198 138/190/198
f 138/190/199 37/194/199 64/27/199
f 37/194/200 4/14/200 64/27/200
f 55/152/201 60/195/201 8/153/201
f 56/150/202 139/196/202 55/151/202
f 57/16/203 140/197/203 56/150/203
f 55/151/204 139/196/204 60/198/204
f 139/196/205 59/199/205 60/198/205
f 56/150/206 140/197/206 139/196/206
f 140/197/207 141/200/207 139/196/207
f 139/196/208 141/200/208 59/199/208
f 141/200/209 58/201/209 59/199/209
f 57/16/210 33/15/210 140/197/210
f 33/15/211 32/202/211 140/197/211
f 140/197/212 32/202/212 141/200/212
f 32/202/213 31/203/213 141/200/213
f 141/200/214 31/203/214 58/201/214
f 31/204/215 3/205/215 58/206/215
f 49/169/216 54/170/216 7/32/216
f 50/168/217 142/207/217 49/169/217
f 51/13/218 143/208/218 50/168/218
f 49/169/219 142/207/219 54/170/219
f 142/207/220 53/171/220 54/170/220
f 50/168/221 143/208/221 142/207/221
f 143/208/222 144/209/222 142/207/222
f 142/207/223 144/209/223 53/171/223
f 144/209/224 52/25/224 53/171/224
f 51/13/225 21/12/225 143/208/225
f 21/12/226 20/210/226 143/208/226
f 143/208/227 20/210/227 144/209/227
f 20/210/228 19/211/228 144/209/228
f 144/209/229 19/211/229 52/25/229
f 19/211/230 2/23/230 52/25/230
f 43/179/231 48/123/231 11/44/231
f 44/176/232 145/212/232 43/179/232
f 45/175/233 146/213/233 44/176/233
f 43/179/234 145/212/234 48/123/234
f 145/212/235 47/124/235 48/123/235
f 44/176/236 146/213/236 145/212/236
f 146/213/237 147/214/237 145/212/237
f 145/212/238 147/214/238 47/124/238
f 147/214/239 46/31/239 47/124/239
f 45/10/240 24/6/240 146/215/240
f 24/6/241 23/216/241 146/215/241
f 146/215/242 23/216/242 147/217/242
f 23/216/243 22/218/243 147/217/243
f 147/214/244 22/219/244 46/31/244
f 22/219/245 6/29/245 46/31/245
f 27/220/246 42/221/246 6/222/246
f 26/223/247 148/224/247 27/220/247
f 25/9/248 149/225/248 26/223/248
f 27/220/249 148/224/249 42/221/249
f 148/226/250 41/183/250 42/21/250
f 26/223/251 149/225/251 148/224/251
f 149/227/252 150/228/252 148/226/252
f 148/226/253 150/228/253 41/183/253
f 150/228/254 40/184/254 41/183/254
f 25/9/255 36/8/255 149/225/255
f 36/8/256 35/229/256 149/225/256
f 149/227/257 35/230/257 150/228/257
f 35/230/258 34/231/258 150/228/258
f 150/228/259 34/231/259 40/184/259
f 34/231/260 5/17/260 40/184/260
f 34/231/261 39/18/261 5/17/261
f 35/230/262 151/232/262 34/231/262
f 36/8/263 152/233/263 35/229/263
f 34/231/264 151/232/264 39/18/264
f 151/232/265 38/192/265 39/18/265
f 35/229/266 152/233/266 151/234/266
f 152/235/267 153/236/267 151/237/267
f 151/237/268 153/236/268 38/193/268
f 153/236/269 37/194/269 38/193/269
f 36/8/270 30/7/270 152/233/270
f 30/7/271 29/238/271 152/233/271
f 152/235/272 29/239/272 153/236/272
f 29/239/273 28/240/273 153/236/273
f 153/236/274 28/240/274 37/194/274
f 28/241/275 4/242/275 37/243/275
f 28/241/276 33/244/276 4/242/276
f 29/245/277 154/246/277 28/247/277
f 30/7/278 155/248/278 29/238/278
f 28/240/279 154/249/279 33/15/279
f 154/249/280 32/202/280 33/15/280
f 29/238/281 155/248/281 154/250/281
f 155/248/282 156/251/282 154/250/282
f 154/250/283 156/251/283 32/252/283
f 156/251/284 31/204/284 32/252/284
f 30/7/285 15/3/285 155/248/285
f 15/3/286 14/253/286 155/248/286
f 155/248/287 14/253/287 156/251/287
f 14/253/288 13/254/288 156/251/288
f 156/251/289 13/254/289 31/204/289
f 13/254/290 3/205/290 31/204/290
f 22/218/291 27/220/291 6/222/291
f 23/216/292 157/255/292 22/218/292
f 24/6/293 158/256/293 23/216/293
f 22/218/294 157/255/294 27/220/294
f 157/255/295 26/223/295 27/220/295
f 23/216/296 158/256/296 157/255/296
f 158/256/297 159/257/297 157/255/297
f 157/255/298 159/257/298 26/223/298
f 159/257/299 25/9/299 26/223/299
f 24/6/300 18/5/300 158/256/300
f 18/5/301 17/258/301 158/256/301
f 158/256/302 17/258/302 159/257/302
f 17/258/303 16/2/303 159/257/303
f 159/257/304 16/2/304 25/9/304
f 16/2/305 1/1/305 25/9/305
f 13/254/306 21/259/306 3/205/306
f 14/253/307 160/260/307 13/254/307
f 15/3/308 161/261/308 14/253/308
f 13/254/309 160/260/309 21/259/309
f 160/260/310 20/262/310 21/259/310
f 14/253/311 161/261/311 160/260/311
f 161/261/312 162/263/312 160/260/312
f 160/260/313 162/263/313 20/262/313
f 162/263/314 19/264/314 20/262/314
f 15/3/315 16/2/315 161/261/315
f 16/2/316 17/258/316 161/261/316
f 161/261/317 17/258/317 162/263/317
f 17/258/318 18/5/318 162/263/318
f 162/263/319 18/5/319 19/264/319
f 18/5/320 2/4/320 19/264/320
