# Blender 5.1.2
# www.blender.org
mtllib Rock_Wide.mtl
o Rock_Wide
v -0.005149 0.040954 -0.010079
v -0.082332 0.313548 2.041195
v -1.243345 0.440313 -0.151980
v -0.781505 0.411658 -1.981460
v 0.661637 0.513949 -0.788806
v 1.250106 0.388674 1.237565
v -0.802160 1.299185 0.956338
v -0.954446 1.235507 -0.944871
v 0.045523 1.175928 -1.128617
v 0.922177 1.186738 0.112722
v 0.942395 1.420224 2.389390
v 0.008120 2.174500 0.015895
v -0.978460 0.188601 -0.123526
v -0.595276 0.086664 -0.079364
v -0.273754 0.052411 -0.041722
v -0.020320 0.045644 0.384611
v -0.039898 0.071318 0.897402
v -0.068867 0.105686 1.655507
v -0.505174 0.232720 1.710589
v -0.779516 0.315851 0.910408
v -1.159959 0.330387 0.375075
v 1.282476 0.192989 1.906873
v 0.851098 0.143960 2.162322
v 0.348728 0.218214 2.189321
v 0.285014 0.045045 0.277867
v 0.630083 0.070524 0.620422
v 1.078062 0.105740 1.065152
v -0.669164 0.150216 -1.695448
v -0.394619 0.096608 -0.998580
v -0.165991 0.056325 -0.418280
v -1.192179 0.407269 -0.602698
v -1.186765 0.330122 -1.180824
v -1.087783 0.323107 -1.785522
v 0.538865 0.284549 -0.648202
v 0.327020 0.100548 -0.401451
v 0.173511 0.051812 -0.220995
v -0.386892 0.370148 -1.867394
v 0.049714 0.426942 -1.367404
v 0.406767 0.458038 -1.110022
v 0.747411 0.501694 -0.350151
v 0.953885 0.423213 0.107754
v 1.179018 0.377952 0.696517
v 0.742430 1.142156 2.556535
v 0.507562 0.832024 2.767756
v 0.178287 0.535020 2.435564
v 1.531688 0.532813 1.904332
v 1.325827 0.835414 2.071290
v 1.211598 1.143693 2.394529
v -1.064946 1.113709 0.793503
v -1.139940 0.870497 0.449228
v -1.430547 0.607330 0.158791
v -0.340176 0.559073 2.028975
v -0.560036 0.851699 1.697066
v -0.657786 1.083880 1.209150
v -0.944341 1.076071 -1.174090
v -0.930427 0.892359 -1.453572
v -1.002231 0.641549 -1.980748
v -1.366653 0.646873 -0.455196
v -1.216736 0.884561 -0.666733
v -1.135498 1.086360 -0.870832
v 0.185567 1.037875 -1.106813
v 0.332459 0.879074 -1.007445
v 0.503567 0.704281 -0.925662
v -0.568098 0.659766 -1.956227
v -0.300213 0.890674 -1.637076
v -0.115331 1.084843 -1.575531
v 1.208490 1.065187 0.402516
v 1.253858 0.852713 0.687075
v 1.307013 0.618543 1.002369
v 0.747834 0.696948 -0.557220
v 0.887962 0.867614 -0.349928
v 0.852743 1.024783 -0.094654
v 0.447924 1.446279 2.161975
v -0.065305 1.428994 1.792685
v -0.524473 1.398599 1.431229
v -0.915963 1.318864 0.429115
v -1.066338 1.351259 -0.120638
v -0.981951 1.277745 -0.580097
v -0.911933 1.349482 -1.355925
v -0.575749 1.344094 -1.462708
v -0.211783 1.264025 -1.329579
v 0.297339 1.243309 -1.006830
v 0.449165 1.177438 -0.524783
v 0.737658 1.211320 -0.238523
v 1.000483 1.256260 0.505787
v 1.242576 1.414130 1.236242
v 1.184090 1.462965 1.943604
v -0.249660 2.110586 0.319275
v -0.491795 1.835538 0.600042
v -0.709128 1.572054 0.851727
v 0.806044 1.754059 2.042186
v 0.534834 2.032532 1.352972
v 0.228301 2.087427 0.574930
v -0.320584 1.937955 -0.311690
v -0.739838 1.860475 -0.728170
v -0.812620 1.428986 -0.802980
v 0.024827 1.956703 -0.455696
v 0.038921 1.696021 -0.866904
v 0.052765 1.486797 -1.262656
v 0.401870 2.104924 0.061677
v 0.729098 1.780934 0.096679
v 0.919299 1.453714 0.115436
v 0.646120 1.908647 0.647365
v 1.035072 1.798574 1.454754
v 0.920317 1.560918 0.605309
v 0.374530 1.773944 -0.424936
v 0.599635 1.442597 -0.319869
v 0.300828 1.407185 -0.695014
v -0.352257 1.890688 -0.897558
v -0.328491 1.651318 -1.414168
v -0.693417 1.620193 -1.207893
v -0.601070 1.839139 -0.060013
v -0.889629 1.561964 -0.389686
v -0.754863 1.531892 0.201205
v -0.030819 2.005814 0.997516
v -0.323315 1.737415 1.339340
v 0.237753 1.798953 1.767452
v 1.248035 1.118468 1.591449
v 1.456992 0.842216 1.445572
v 1.281306 1.098472 0.956183
v 0.589750 1.020071 -0.410782
v 0.508238 0.873026 -0.600527
v 0.398711 1.031540 -0.762543
v -0.481301 1.125504 -1.727785
v -0.708588 0.895175 -1.798174
v -0.771112 1.108856 -1.485767
v -1.197834 1.111569 -0.421784
v -1.290852 0.878762 -0.152594
v -1.074261 1.100093 0.153861
v -0.347663 1.152720 1.926021
v -0.091637 0.840540 2.374190
v 0.198446 1.155575 2.300249
v 0.908933 0.861915 0.107447
v 1.099496 0.646107 0.387157
v 0.956820 0.662936 -0.137041
v 0.054368 0.885687 -1.408576
v 0.221102 0.688362 -1.224872
v -0.135144 0.673627 -1.566516
v -1.035006 0.887815 -1.026891
v -1.137404 0.641409 -1.450371
v -1.334859 0.629684 -0.996143
v -0.956623 0.861065 1.130335
v -1.010167 0.609897 0.703619
v -0.812974 0.537204 1.554831
v 1.068643 0.829214 2.711883
v 0.758522 0.464436 2.722958
v 1.274385 0.472272 2.455468
v 0.787771 0.179600 0.344357
v 0.496861 0.066915 0.049607
v 0.652599 0.224261 -0.174931
v 0.226469 0.182200 -0.941084
v 0.020666 0.078683 -0.673739
v -0.193730 0.130553 -1.440847
v -0.817999 0.130891 -1.149678
v -0.525638 0.080286 -0.526305
v -0.922090 0.124930 -0.606887
v 0.834646 0.088913 1.454071
v 0.394680 0.088694 1.696821
v 0.326276 0.058465 0.830868
v -0.704545 0.111628 0.374538
v -0.331731 0.068090 0.376396
v -0.399810 0.103064 0.922348
vn -0.0438 -0.9990 0.0102
vn -0.3350 -0.8343 0.4379
vn -0.0400 -0.9990 -0.0218
vn 0.0111 -0.9991 -0.0420
vn 0.0354 -0.9991 -0.0215
vn -0.3675 -0.6859 0.6281
vn -0.6997 -0.7134 -0.0381
vn -0.4121 -0.3932 -0.8219
vn 0.7563 0.1747 -0.6305
vn 0.9303 -0.3483 -0.1153
vn -0.5376 -0.5321 0.6541
vn -0.7646 -0.6331 -0.1203
vn 0.0540 0.0549 -0.9970
vn 0.8009 0.2875 -0.5253
vn 0.8449 -0.4702 -0.2551
vn -0.8166 0.4272 0.3881
vn -0.7510 0.6470 -0.1316
vn 0.4978 -0.3532 -0.7922
vn 0.8856 0.0143 -0.4642
vn 0.6222 0.6719 0.4017
vn 0.1633 0.9826 0.0887
vn 0.4056 0.9091 -0.0956
vn 0.3774 0.9007 0.2154
vn 0.3658 0.9177 0.1550
vn 0.7055 0.7064 -0.0575
vn 0.4367 0.8953 -0.0883
vn 0.7393 0.6159 -0.2722
vn 0.7834 0.6209 -0.0259
vn 0.8620 0.4948 -0.1101
vn 0.6299 0.7165 0.2999
vn 0.8890 0.4560 0.0420
vn 0.7777 0.5702 -0.2646
vn 0.8657 0.3460 -0.3617
vn 0.9601 0.2728 -0.0617
vn 0.9802 0.0126 -0.1975
vn 0.2045 0.8914 -0.4044
vn 0.6518 0.6096 -0.4512
vn 0.7353 0.3959 -0.5501
vn 0.4302 0.7350 -0.5241
vn 0.4410 0.7648 -0.4697
vn 0.7706 0.3559 -0.5286
vn 0.7313 0.3030 -0.6111
vn 0.7329 0.3017 -0.6097
vn 0.7876 0.5557 -0.2662
vn 0.7751 0.2600 -0.5758
vn 0.6858 0.1595 -0.7101
vn 0.7797 0.0404 -0.6249
vn 0.8859 0.4064 -0.2235
vn 0.8085 0.5171 -0.2808
vn 0.4824 -0.3563 -0.8002
vn -0.2211 0.8824 -0.4154
vn 0.4216 0.7723 -0.4752
vn 0.4916 0.7768 -0.3935
vn -0.0854 0.9935 -0.0755
vn -0.1096 0.9912 -0.0740
vn 0.4380 0.8232 -0.3613
vn -0.3060 0.8584 -0.4118
vn -0.2641 0.8519 -0.4523
vn -0.9620 0.1954 -0.1909
vn 0.3272 -0.1065 -0.9389
vn 0.3202 -0.1090 -0.9410
vn -0.4607 0.4879 -0.7414
vn -0.2324 0.6043 -0.7621
vn -0.7913 0.6089 0.0546
vn -0.8280 0.5566 0.0687
vn -0.4414 0.8769 -0.1903
vn -0.2622 0.9612 0.0852
vn -0.9491 0.2020 -0.2418
vn -0.4691 0.8638 -0.1836
vn -0.6831 0.7209 0.1170
vn -0.7811 0.5975 0.1813
vn -0.7913 0.5744 0.2097
vn -0.8323 0.5362 0.1407
vn -0.7648 0.6442 0.0140
vn -0.8259 0.4734 -0.3062
vn -0.8700 0.4364 -0.2296
vn -0.6269 0.7576 0.1815
vn -0.6498 0.7274 0.2206
vn -0.7884 0.6149 0.0175
vn -0.8986 0.3862 0.2084
vn -0.0435 0.9844 0.1704
vn -0.5456 0.7836 0.2971
vn -0.6232 0.7441 0.2408
vn -0.0407 0.9854 0.1654
vn -0.1200 0.9859 0.1168
vn -0.5026 0.8347 0.2253
vn -0.3679 0.8579 0.3588
vn -0.2516 0.9091 0.3320
vn -0.1294 0.9007 0.4148
vn -0.7373 0.5457 0.3983
vn -0.5534 0.5076 0.6603
vn -0.5586 0.5026 0.6598
vn -0.5238 0.4772 0.7056
vn -0.2983 0.6271 0.7195
vn -0.2980 0.6269 0.7198
vn 0.6487 0.6392 0.4130
vn 0.9480 0.3166 0.0331
vn 0.8570 0.4810 0.1849
vn 0.9890 0.1423 0.0404
vn 0.9914 0.1078 0.0745
vn 0.8279 0.5315 0.1793
vn 0.8032 0.5952 0.0233
vn 0.9957 0.0781 0.0497
vn 0.8270 0.4264 -0.3663
vn 0.9572 -0.1425 -0.2520
vn 0.9573 -0.1303 -0.2582
vn 0.9524 0.1704 -0.2527
vn 0.9906 0.0343 -0.1323
vn 0.6352 0.7614 -0.1293
vn 0.5835 0.7718 -0.2527
vn 0.8737 0.1956 -0.4453
vn 0.4801 0.7750 -0.4109
vn 0.4869 0.4836 -0.7273
vn 0.7688 -0.0188 -0.6393
vn 0.6943 0.1044 -0.7121
vn 0.4443 0.6056 -0.6602
vn 0.8738 0.1228 -0.4705
vn 0.8060 0.4127 -0.4243
vn 0.9506 0.1302 -0.2816
vn 0.5916 0.7121 -0.3781
vn 0.7477 0.5849 -0.3143
vn 0.8953 0.2268 -0.3834
vn 0.7746 0.4213 -0.4718
vn 0.8314 -0.2000 -0.5184
vn 0.3715 0.2350 -0.8982
vn 0.5361 0.7684 -0.3496
vn 0.3770 -0.0661 -0.9238
vn 0.2863 0.6460 -0.7077
vn 0.2933 0.8238 -0.4851
vn 0.3594 0.7788 -0.5142
vn 0.3651 -0.0768 -0.9278
vn -0.5013 0.6642 -0.5546
vn -0.5617 0.5289 -0.6362
vn -0.2818 0.3226 -0.9036
vn 0.0227 0.5666 -0.8237
vn -0.5003 0.8063 -0.3155
vn -0.7416 0.4753 -0.4735
vn -0.7723 0.5125 -0.3753
vn -0.8409 -0.2270 -0.4913
vn -0.9944 0.0607 -0.0860
vn -0.6623 0.7369 -0.1353
vn -0.9601 0.2382 -0.1466
vn -0.8850 0.4492 -0.1225
vn -0.6641 0.7356 -0.1335
vn -0.6956 0.6785 -0.2363
vn -0.9642 0.2275 -0.1364
vn -0.8188 0.5429 0.1866
vn -0.9439 0.2568 0.2077
vn -0.9086 0.3209 0.2674
vn -0.9175 0.3916 -0.0703
vn -0.7596 0.6192 0.1990
vn -0.8301 0.5144 0.2152
vn -0.9587 0.2844 0.0079
vn -0.8097 0.5868 -0.0007
vn -0.6350 0.7546 0.1652
vn -0.8642 0.0111 0.5030
vn -0.8704 0.3535 0.3426
vn -0.8219 0.0279 0.5690
vn -0.9156 0.1162 0.3849
vn -0.4581 0.7199 0.5214
vn -0.8127 0.1440 0.5646
vn -0.4617 0.5822 0.6693
vn -0.4066 0.6993 0.5880
vn -0.4494 0.6679 0.5933
vn -0.5837 -0.3706 0.7224
vn -0.5258 -0.3051 0.7940
vn -0.4448 0.5715 0.6896
vn -0.2982 0.6812 0.6686
vn -0.3226 0.6179 0.7170
vn -0.2935 0.6386 0.7113
vn 0.7306 0.3975 -0.5551
vn 0.7623 -0.4544 -0.4608
vn 0.9207 -0.2226 -0.3205
vn 0.7671 -0.3783 -0.5181
vn 0.9590 0.2806 -0.0405
vn 0.8559 0.0976 -0.5078
vn 0.8541 0.4725 -0.2173
vn 0.9590 0.2805 -0.0405
vn 0.8762 -0.1731 -0.4498
vn 0.9423 -0.0920 -0.3220
vn 0.9202 -0.1460 -0.3631
vn 0.9247 -0.2774 -0.2606
vn 0.7833 -0.4488 -0.4301
vn 0.7828 -0.4535 -0.4261
vn 0.9590 -0.2071 -0.1933
vn 0.6801 0.6309 -0.3734
vn 0.7635 0.3789 -0.5230
vn 0.6713 0.3518 -0.6524
vn 0.8202 0.2811 -0.4983
vn 0.5236 -0.2393 -0.8177
vn 0.8119 0.1645 -0.5601
vn 0.6915 -0.0836 -0.7175
vn 0.5378 0.1387 -0.8316
vn 0.6426 0.2537 -0.7230
vn 0.7017 0.2292 -0.6746
vn 0.5800 0.0626 -0.8122
vn 0.6922 -0.0617 -0.7191
vn 0.7512 0.0306 -0.6594
vn 0.6543 0.1844 -0.7334
vn 0.2628 -0.1288 -0.9562
vn -0.6710 0.5945 -0.4431
vn -0.9349 0.2734 -0.2262
vn -0.7582 0.6228 -0.1931
vn -0.8461 -0.0093 -0.5330
vn -0.8883 -0.0966 -0.4491
vn -0.7600 0.6246 -0.1796
vn -0.6449 0.7180 -0.2618
vn -0.6375 0.7030 -0.3153
vn -0.8696 0.4892 -0.0667
vn -0.9633 0.1083 -0.2455
vn -0.9867 0.0164 -0.1617
vn -0.8967 -0.1998 -0.3950
vn -0.8814 -0.4692 0.0544
vn -0.8166 -0.5764 -0.0297
vn -0.8222 -0.5668 -0.0518
vn -0.6581 0.3447 0.6694
vn -0.9636 -0.0686 0.2584
vn -0.7766 0.1973 0.5983
vn -0.5734 0.5562 0.6016
vn -0.6089 0.6620 0.4370
vn -0.9417 -0.2246 0.2504
vn -0.9656 -0.1521 0.2107
vn -0.7591 0.3675 0.5373
vn -0.6914 0.2495 0.6780
vn -0.7587 -0.2831 0.5867
vn -0.7960 -0.2310 0.5594
vn -0.8254 -0.5457 0.1446
vn -0.7369 -0.6502 0.1851
vn -0.6624 -0.3241 0.6754
vn -0.4850 -0.4727 0.7358
vn 0.3086 0.3171 0.8968
vn 0.0875 0.5146 0.8529
vn -0.4453 -0.4015 0.8003
vn 0.2521 0.6282 0.7361
vn 0.9272 -0.0463 0.3718
vn 0.0987 -0.0537 0.9937
vn 0.4361 -0.3455 0.8309
vn 0.8961 0.2563 0.3623
vn 0.8393 0.3345 0.4286
vn -0.3880 -0.6866 0.6148
vn -0.1029 -0.8708 0.4808
vn 0.2773 -0.8137 0.5109
vn 0.3489 -0.8331 0.4293
vn 0.7708 -0.5631 0.2980
vn 0.7881 -0.5795 -0.2075
vn 0.8770 -0.4687 -0.1059
vn 0.2814 -0.9365 -0.2093
vn 0.0876 -0.9961 -0.0141
vn 0.6463 -0.6876 -0.3308
vn 0.6304 -0.7175 -0.2962
vn 0.4443 -0.8905 -0.0981
vn 0.5298 -0.8221 -0.2086
vn 0.6802 -0.6937 -0.2367
vn 0.7412 -0.5208 -0.4235
vn 0.0712 -0.9970 -0.0294
vn 0.1560 -0.9789 -0.1317
vn 0.4894 -0.8364 -0.2467
vn 0.4780 -0.8495 -0.2231
vn 0.8502 -0.4563 -0.2625
vn 0.8192 -0.5460 -0.1754
vn 0.6663 -0.6150 -0.4216
vn 0.4825 -0.8482 -0.2183
vn 0.1734 -0.9779 -0.1166
vn 0.6160 -0.6631 -0.4253
vn 0.4744 -0.6640 -0.5779
vn 0.2353 -0.9536 -0.1881
vn 0.2883 -0.9466 -0.1446
vn 0.7075 -0.4451 -0.5489
vn 0.7016 -0.4367 -0.5630
vn 0.0263 -0.9973 -0.0681
vn 0.0160 -0.9970 -0.0755
vn 0.0124 -0.9974 -0.0709
vn -0.0002 -0.9971 -0.0766
vn 0.2682 -0.7830 -0.5613
vn 0.1268 -0.7068 -0.6959
vn -0.1796 -0.7602 -0.6243
vn -0.0621 -0.9967 -0.0522
vn -0.0518 -0.9975 -0.0488
vn -0.3546 -0.9260 -0.1295
vn -0.4699 -0.8802 -0.0667
vn -0.0623 -0.9967 -0.0517
vn -0.1056 -0.9939 -0.0312
vn -0.4665 -0.8790 -0.0991
vn -0.7193 -0.6894 0.0853
vn -0.0584 -0.9979 -0.0271
vn -0.1057 -0.9944 -0.0023
vn -0.1113 -0.9938 -0.0032
vn -0.2662 -0.9592 0.0953
vn -0.7225 -0.6913 0.0068
vn -0.6872 -0.7260 -0.0248
vn 0.8846 -0.4344 -0.1698
vn 0.1552 -0.9852 0.0730
vn -0.1292 -0.9619 0.2409
vn 0.1664 -0.9841 0.0616
vn 0.0748 -0.9972 0.0037
vn 0.0427 -0.9962 0.0764
vn 0.0189 -0.9993 0.0334
vn 0.0469 -0.9988 0.0105
vn 0.0536 -0.9984 0.0202
vn -0.0576 -0.9668 0.2489
vn -0.0405 -0.9982 0.0437
vn -0.0283 -0.9989 0.0371
vn -0.0261 -0.9985 0.0490
vn 0.0064 -0.9997 0.0238
vn 0.0022 -0.9999 0.0120
vn -0.6858 -0.7265 -0.0430
vn -0.2562 -0.9666 -0.0085
vn -0.1085 -0.9938 0.0222
vn -0.4308 -0.8971 0.0983
vn -0.4164 -0.8675 0.2723
vn -0.1161 -0.9929 0.0267
vn -0.1161 -0.9920 0.0491
vn -0.4790 -0.8405 0.2533
vn -0.4893 -0.8687 0.0775
vn -0.0726 -0.9970 0.0273
vn -0.0730 -0.9962 0.0471
vn -0.0841 -0.9950 0.0533
vn -0.0849 -0.9955 0.0419
vn -0.2632 -0.9570 0.1222
vn -0.1942 -0.8664 0.4601
vt 0.216433 0.307081
vt 0.193372 0.357175
vt 0.185033 0.288197
vt 0.085182 0.566367
vt 0.117052 0.518286
vt 0.133987 0.609595
vt 0.217947 0.245487
vt 0.248798 0.289612
vt 0.236078 0.360161
vt 0.085426 0.630552
vt 0.055286 0.218933
vt 0.042479 0.292057
vt 0.008259 0.247995
vt 0.887217 0.033163
vt 0.860588 0.021610
vt 0.910528 0.008259
vt 0.924660 0.293565
vt 0.915350 0.237389
vt 0.947775 0.262303
vt 0.884220 0.548998
vt 0.892031 0.490047
vt 0.922140 0.529839
vt 0.043115 0.549493
vt 0.046827 0.172062
vt 0.927326 0.054720
vt 0.947202 0.322592
vt 0.898836 0.640052
vt 0.418839 0.311949
vt 0.429503 0.234219
vt 0.461295 0.316900
vt 0.476659 0.561642
vt 0.465541 0.516898
vt 0.503041 0.533285
vt 0.018750 0.813344
vt 0.016963 0.766357
vt 0.059827 0.789521
vt 0.503114 0.824778
vt 0.491143 0.773225
vt 0.536190 0.810995
vt 0.772914 0.560308
vt 0.723794 0.522884
vt 0.789674 0.505024
vt 0.777949 0.283215
vt 0.729267 0.233121
vt 0.770422 0.199143
vt 0.793505 0.399497
vt 0.727753 0.323318
vt 0.732846 0.449553
vt 0.674438 0.263936
vt 0.671375 0.341347
vt 0.631804 0.283193
vt 0.668887 0.441952
vt 0.633711 0.338311
vt 0.520365 0.866374
vt 0.721790 0.145671
vt 0.675317 0.175989
vt 0.634471 0.208186
vt 0.673998 0.099795
vt 0.510339 0.741387
vt 0.483348 0.680719
vt 0.536190 0.694531
vt 0.500938 0.626348
vt 0.637083 0.142193
vt 0.631174 0.055202
vt 0.465812 0.722057
vt 0.615774 0.175756
vt 0.604833 0.106036
vt 0.040626 0.846373
vt 0.149219 0.716351
vt 0.153204 0.767792
vt 0.086734 0.750828
vt 0.725474 0.066443
vt 0.671601 0.008259
vt 0.763589 0.139029
vt 0.772172 0.060036
vt 0.778102 0.675371
vt 0.719800 0.668166
vt 0.749183 0.602557
vt 0.690584 0.599426
vt 0.549300 0.575302
vt 0.555987 0.515328
vt 0.061206 0.733013
vt 0.008259 0.716351
vt 0.741828 0.716808
vt 0.694607 0.714866
vt 0.509123 0.609829
vt 0.077725 0.805282
vt 0.535870 0.422809
vt 0.575315 0.436569
vt 0.497658 0.484568
vt 0.153204 0.821504
vt 0.516313 0.332937
vt 0.575425 0.351025
vt 0.479299 0.402123
vt 0.673091 0.650995
vt 0.633453 0.648810
vt 0.641134 0.600031
vt 0.595730 0.599426
vt 0.450801 0.463371
vt 0.434778 0.385188
vt 0.810358 0.218441
vt 0.550065 0.253158
vt 0.486144 0.230366
vt 0.824311 0.317038
vt 0.512101 0.141669
vt 0.575041 0.173678
vt 0.531917 0.072892
vt 0.447934 0.160421
vt 0.467922 0.082472
vt 0.348612 0.626348
vt 0.371180 0.692975
vt 0.303961 0.686014
vt 0.330801 0.743158
vt 0.725521 0.582908
vt 0.669868 0.555239
vt 0.668453 0.488584
vt 0.615663 0.552854
vt 0.617319 0.488676
vt 0.622869 0.414284
vt 0.094922 0.893944
vt 0.077725 0.838023
vt 0.117829 0.838023
vt 0.947763 0.585207
vt 0.958597 0.491731
vt 0.986748 0.517688
vt 0.991741 0.457592
vt 0.591944 0.342548
vt 0.610853 0.286022
vt 0.476612 0.806878
vt 0.851526 0.801483
vt 0.890334 0.773660
vt 0.881858 0.829942
vt 0.840829 0.767776
vt 0.876469 0.745761
vt 0.456278 0.753487
vt 0.794621 0.656503
vt 0.814264 0.627135
vt 0.814264 0.680502
vt 0.552709 0.799999
vt 0.552709 0.743815
vt 0.572593 0.775578
vt 0.017921 0.887550
vt 0.038926 0.910272
vt 0.845333 0.706109
vt 0.871669 0.683731
vt 0.795427 0.599426
vt 0.552709 0.694466
vt 0.573246 0.670592
vt 0.573246 0.727296
vt 0.008259 0.833612
vt 0.169723 0.772580
vt 0.213976 0.770107
vt 0.220256 0.817115
vt 0.960642 0.110165
vt 0.987950 0.080500
vt 0.991741 0.132862
vt 0.236774 0.863099
vt 0.275936 0.846423
vt 0.275936 0.903332
vt 0.171490 0.719219
vt 0.220256 0.716351
vt 0.950730 0.053013
vt 0.733516 0.796865
vt 0.712408 0.747333
vt 0.763542 0.761404
vt 0.753277 0.831554
vt 0.702071 0.847213
vt 0.684322 0.769722
vt 0.670260 0.725029
vt 0.467395 0.591456
vt 0.627860 0.699780
vt 0.659159 0.687478
vt 0.407353 0.545831
vt 0.425866 0.511628
vt 0.444541 0.564724
vt 0.361256 0.530516
vt 0.381678 0.485535
vt 0.591944 0.655566
vt 0.409611 0.431609
vt 0.328276 0.457323
vt 0.366502 0.400521
vt 0.386574 0.350225
vt 0.392414 0.273324
vt 0.351751 0.208037
vt 0.391947 0.163388
vt 0.317795 0.155579
vt 0.353369 0.094251
vt 0.412108 0.082954
vt 0.041707 0.606390
vt 0.093768 0.690128
vt 0.374778 0.008259
vt 0.434855 0.017683
vt 0.381087 0.761330
vt 0.591944 0.257845
vt 0.960533 0.400927
vt 0.932022 0.449455
vt 0.984859 0.374107
vt 0.875071 0.859805
vt 0.854883 0.908347
vt 0.840829 0.833783
vt 0.940717 0.384518
vt 0.970460 0.354928
vt 0.903115 0.410210
vt 0.916477 0.344454
vt 0.207969 0.841060
vt 0.555600 0.626348
vt 0.942418 0.204993
vt 0.967165 0.235150
vt 0.985616 0.208954
vt 0.967188 0.168286
vt 0.935609 0.136077
vt 0.904494 0.176633
vt 0.892700 0.084800
vt 0.819803 0.697020
vt 0.819803 0.750173
vt 0.794621 0.724795
vt 0.651302 0.799561
vt 0.643841 0.731712
vt 0.598447 0.702047
vt 0.597630 0.762056
vt 0.382576 0.596985
vt 0.236774 0.716351
vt 0.274946 0.753907
vt 0.236774 0.782039
vt 0.269528 0.829904
vt 0.618015 0.805422
vt 0.122042 0.089742
vt 0.087015 0.163714
vt 0.080270 0.104058
vt 0.350111 0.303548
vt 0.333706 0.363015
vt 0.303961 0.244340
vt 0.303961 0.416219
vt 0.305202 0.325699
vt 0.030085 0.341391
vt 0.060770 0.382114
vt 0.012078 0.462434
vt 0.055315 0.500853
vt 0.321225 0.796110
vt 0.439759 0.781261
vt 0.375684 0.826998
vt 0.143739 0.699832
vt 0.313732 0.830932
vt 0.436027 0.841353
vt 0.365114 0.876565
vt 0.303961 0.876910
vt 0.199767 0.634034
vt 0.220116 0.693586
vt 0.263342 0.624513
vt 0.869975 0.667213
vt 0.844575 0.618476
vt 0.844028 0.517939
vt 0.258471 0.423205
vt 0.287173 0.395718
vt 0.287442 0.505042
vt 0.272873 0.342224
vt 0.859575 0.418505
vt 0.840829 0.361789
vt 0.872161 0.354508
vt 0.274725 0.274518
vt 0.849272 0.300905
vt 0.886588 0.296939
vt 0.868455 0.238100
vt 0.253115 0.222653
vt 0.287442 0.198960
vt 0.265534 0.111620
vt 0.857909 0.147908
vt 0.219242 0.157840
vt 0.220554 0.052563
vt 0.849757 0.074797
vt 0.166543 0.017150
vt 0.209945 0.008259
vt 0.174379 0.114933
vt 0.178997 0.211687
vt 0.133159 0.179313
vt 0.146476 0.265528
vt 0.097631 0.238318
vt 0.238036 0.541962
vt 0.171817 0.549146
vt 0.211023 0.433748
vt 0.162511 0.422175
vt 0.107914 0.318006
vt 0.155025 0.338915
vt 0.116088 0.405490
s 0
usemtl Rock_OBJ_Material
f 1/1/1 16/2/1 15/3/1
f 2/4/2 18/5/2 24/6/2
f 1/1/3 15/3/3 30/7/3
f 1/1/4 30/7/4 36/8/4
f 1/1/5 36/8/5 25/9/5
f 2/4/6 24/6/6 45/10/6
f 3/11/7 21/12/7 51/13/7
f 4/14/8 33/15/8 57/16/8
f 5/17/9 39/18/9 63/19/9
f 6/20/10 42/21/10 69/22/10
f 2/4/11 45/10/11 52/23/11
f 3/11/12 51/13/12 58/24/12
f 4/14/13 57/16/13 64/25/13
f 5/17/14 63/19/14 70/26/14
f 6/20/15 69/22/15 46/27/15
f 7/28/16 75/29/16 90/30/16
f 8/31/17 78/32/17 96/33/17
f 9/34/18 81/35/18 99/36/18
f 10/37/19 84/38/19 102/39/19
f 11/40/20 87/41/20 91/42/20
f 93/43/21 100/44/21 12/45/21
f 92/46/22 103/47/22 93/43/22
f 91/42/23 104/48/23 92/46/23
f 93/43/24 103/47/24 100/44/24
f 103/47/25 101/49/25 100/44/25
f 92/46/26 104/48/26 103/47/26
f 104/48/27 105/50/27 103/47/27
f 103/47/28 105/50/28 101/49/28
f 105/50/29 102/51/29 101/49/29
f 91/42/30 87/41/30 104/48/30
f 87/41/31 86/52/31 104/48/31
f 104/48/32 86/52/32 105/50/32
f 86/52/33 85/53/33 105/50/33
f 105/50/34 85/53/34 102/51/34
f 85/54/35 10/37/35 102/39/35
f 100/44/36 97/55/36 12/45/36
f 101/49/37 106/56/37 100/44/37
f 102/51/38 107/57/38 101/49/38
f 100/44/39 106/56/39 97/55/39
f 106/56/40 98/58/40 97/55/40
f 101/49/41 107/57/41 106/56/41
f 107/59/42 108/60/42 106/61/42
f 106/61/43 108/60/43 98/62/43
f 108/63/44 99/64/44 98/58/44
f 102/39/45 84/38/45 107/59/45
f 84/38/46 83/65/46 107/59/46
f 107/59/47 83/65/47 108/60/47
f 83/66/48 82/67/48 108/63/48
f 108/63/49 82/67/49 99/64/49
f 82/68/50 9/34/50 99/36/50
f 97/69/51 94/70/51 12/71/51
f 98/58/52 109/72/52 97/55/52
f 99/64/53 110/73/53 98/58/53
f 97/55/54 109/72/54 94/74/54
f 109/72/55 95/75/55 94/74/55
f 98/58/56 110/73/56 109/72/56
f 110/76/57 111/77/57 109/78/57
f 109/78/58 111/77/58 95/79/58
f 111/80/59 96/33/59 95/81/59
f 99/36/60 81/35/60 110/82/60
f 81/35/61 80/83/61 110/82/61
f 110/76/62 80/84/62 111/77/62
f 80/84/63 79/85/63 111/77/63
f 111/80/64 79/86/64 96/33/64
f 79/86/65 8/31/65 96/33/65
f 94/70/66 88/87/66 12/71/66
f 95/81/67 112/88/67 94/89/67
f 96/33/68 113/90/68 95/81/68
f 94/70/69 112/91/69 88/87/69
f 112/88/70 89/92/70 88/93/70
f 95/81/71 113/90/71 112/88/71
f 113/90/72 114/94/72 112/88/72
f 112/88/73 114/94/73 89/92/73
f 114/94/74 90/30/74 89/92/74
f 96/95/75 78/96/75 113/97/75
f 78/96/76 77/98/76 113/97/76
f 113/90/77 77/99/77 114/94/77
f 77/99/78 76/100/78 114/94/78
f 114/94/79 76/100/79 90/30/79
f 76/100/80 7/28/80 90/30/80
f 88/101/81 93/43/81 12/45/81
f 89/92/82 115/102/82 88/93/82
f 90/30/83 116/103/83 89/92/83
f 88/101/84 115/104/84 93/43/84
f 115/104/85 92/46/85 93/43/85
f 89/92/86 116/103/86 115/102/86
f 116/103/87 117/105/87 115/102/87
f 115/102/88 117/105/88 92/106/88
f 117/105/89 91/107/89 92/106/89
f 90/30/90 75/29/90 116/103/90
f 75/29/91 74/108/91 116/103/91
f 116/103/92 74/108/92 117/105/92
f 74/108/93 73/109/93 117/105/93
f 117/110/94 73/111/94 91/112/94
f 73/111/95 11/113/95 91/112/95
f 48/114/96 87/41/96 11/40/96
f 47/115/97 118/116/97 48/114/97
f 46/117/98 119/118/98 47/115/98
f 48/114/99 118/116/99 87/41/99
f 118/116/100 86/52/100 87/41/100
f 47/115/101 119/118/101 118/116/101
f 119/118/102 120/119/102 118/116/102
f 118/120/103 120/121/103 86/122/103
f 120/119/104 85/53/104 86/52/104
f 46/27/105 69/22/105 119/123/105
f 69/22/106 68/124/106 119/123/106
f 119/123/107 68/124/107 120/125/107
f 68/124/108 67/126/108 120/125/108
f 120/119/109 67/127/109 85/53/109
f 67/127/110 10/128/110 85/53/110
f 72/129/111 84/38/111 10/37/111
f 71/130/112 121/131/112 72/132/112
f 70/133/113 122/134/113 71/130/113
f 72/129/114 121/135/114 84/38/114
f 121/135/115 83/65/115 84/38/115
f 71/130/116 122/134/116 121/131/116
f 122/136/117 123/137/117 121/138/117
f 121/139/118 123/140/118 83/141/118
f 123/142/119 82/68/119 83/143/119
f 70/133/120 63/144/120 122/134/120
f 63/144/121 62/145/121 122/134/121
f 122/136/122 62/146/122 123/137/122
f 62/147/123 61/148/123 123/149/123
f 123/142/124 61/150/124 82/68/124
f 61/150/125 9/34/125 82/68/125
f 66/151/126 81/152/126 9/153/126
f 65/154/127 124/155/127 66/156/127
f 64/157/128 125/158/128 65/159/128
f 66/151/129 124/160/129 81/152/129
f 124/160/130 80/161/130 81/152/130
f 65/154/131 125/162/131 124/155/131
f 125/163/132 126/164/132 124/165/132
f 124/165/133 126/164/133 80/84/133
f 126/164/134 79/85/134 80/84/134
f 64/166/135 57/167/135 125/163/135
f 57/167/136 56/168/136 125/163/136
f 125/163/137 56/168/137 126/164/137
f 56/168/138 55/169/138 126/164/138
f 126/164/139 55/169/139 79/85/139
f 55/170/140 8/31/140 79/86/140
f 60/171/141 78/96/141 8/172/141
f 59/173/142 127/174/142 60/175/142
f 58/176/143 128/177/143 59/173/143
f 60/171/144 127/178/144 78/96/144
f 127/178/145 77/98/145 78/96/145
f 59/173/146 128/177/146 127/174/146
f 128/177/147 129/179/147 127/174/147
f 127/174/148 129/179/148 77/99/148
f 129/179/149 76/100/149 77/99/149
f 58/176/150 51/180/150 128/177/150
f 51/180/151 50/181/151 128/177/151
f 128/177/152 50/181/152 129/179/152
f 50/181/153 49/182/153 129/179/153
f 129/179/154 49/182/154 76/100/154
f 49/182/155 7/28/155 76/100/155
f 54/183/156 75/29/156 7/28/156
f 53/184/157 130/185/157 54/183/157
f 52/186/158 131/187/158 53/184/158
f 54/183/159 130/185/159 75/29/159
f 130/185/160 74/108/160 75/29/160
f 53/184/161 131/187/161 130/185/161
f 131/187/162 132/188/162 130/185/162
f 130/185/163 132/188/163 74/108/163
f 132/188/164 73/109/164 74/108/164
f 52/23/165 45/10/165 131/189/165
f 45/10/166 44/190/166 131/189/166
f 131/187/167 44/191/167 132/188/167
f 44/191/168 43/192/168 132/188/168
f 132/188/169 43/192/169 73/109/169
f 43/193/170 11/113/170 73/111/170
f 67/127/171 72/194/171 10/128/171
f 68/124/172 133/195/172 67/126/172
f 69/22/173 134/196/173 68/124/173
f 67/126/174 133/195/174 72/197/174
f 133/198/175 71/130/175 72/132/175
f 68/124/176 134/196/176 133/195/176
f 134/199/177 135/200/177 133/198/177
f 133/198/178 135/200/178 71/130/178
f 135/201/179 70/26/179 71/202/179
f 69/22/180 42/21/180 134/196/180
f 42/21/181 41/203/181 134/196/181
f 134/196/182 41/203/182 135/201/182
f 41/203/183 40/204/183 135/201/183
f 135/201/184 40/204/184 70/26/184
f 40/204/185 5/17/185 70/26/185
f 61/205/186 66/151/186 9/153/186
f 62/147/187 136/206/187 61/148/187
f 63/19/188 137/207/188 62/208/188
f 61/209/189 136/210/189 66/156/189
f 136/210/190 65/154/190 66/156/190
f 62/208/191 137/207/191 136/210/191
f 137/207/192 138/211/192 136/210/192
f 136/210/193 138/211/193 65/154/193
f 138/211/194 64/25/194 65/154/194
f 63/19/195 39/18/195 137/207/195
f 39/18/196 38/212/196 137/207/196
f 137/207/197 38/212/197 138/211/197
f 38/212/198 37/213/198 138/211/198
f 138/211/199 37/213/199 64/25/199
f 37/213/200 4/14/200 64/25/200
f 55/169/201 60/171/201 8/172/201
f 56/214/202 139/215/202 55/216/202
f 57/167/203 140/217/203 56/168/203
f 55/169/204 139/218/204 60/171/204
f 139/218/205 59/219/205 60/171/205
f 56/168/206 140/217/206 139/218/206
f 140/217/207 141/220/207 139/218/207
f 139/218/208 141/220/208 59/219/208
f 141/221/209 58/176/209 59/173/209
f 57/222/210 33/223/210 140/224/210
f 33/223/211 32/225/211 140/224/211
f 140/217/212 32/226/212 141/220/212
f 32/227/213 31/228/213 141/229/213
f 141/229/214 31/228/214 58/24/214
f 31/228/215 3/11/215 58/24/215
f 49/182/216 54/183/216 7/28/216
f 50/181/217 142/230/217 49/182/217
f 51/180/218 143/231/218 50/181/218
f 49/182/219 142/230/219 54/183/219
f 142/230/220 53/184/220 54/183/220
f 50/181/221 143/231/221 142/230/221
f 143/231/222 144/232/222 142/230/222
f 142/230/223 144/232/223 53/184/223
f 144/232/224 52/186/224 53/184/224
f 51/180/225 21/233/225 143/231/225
f 21/233/226 20/234/226 143/231/226
f 143/235/227 20/236/227 144/237/227
f 20/236/228 19/238/228 144/237/228
f 144/237/229 19/238/229 52/23/229
f 19/238/230 2/4/230 52/23/230
f 43/193/231 48/239/231 11/113/231
f 44/240/232 145/241/232 43/193/232
f 45/10/233 146/242/233 44/190/233
f 43/193/234 145/241/234 48/239/234
f 145/241/235 47/243/235 48/239/235
f 44/240/236 146/244/236 145/241/236
f 146/244/237 147/245/237 145/241/237
f 145/241/238 147/245/238 47/243/238
f 147/245/239 46/246/239 47/243/239
f 45/10/240 24/6/240 146/242/240
f 24/6/241 23/247/241 146/242/241
f 146/242/242 23/247/242 147/248/242
f 23/247/243 22/249/243 147/248/243
f 147/250/244 22/251/244 46/27/244
f 22/251/245 6/20/245 46/27/245
f 27/252/246 42/21/246 6/20/246
f 26/253/247 148/254/247 27/255/247
f 25/9/248 149/256/248 26/253/248
f 27/252/249 148/257/249 42/21/249
f 148/257/250 41/203/250 42/21/250
f 26/253/251 149/256/251 148/254/251
f 149/258/252 150/259/252 148/257/252
f 148/257/253 150/259/253 41/203/253
f 150/259/254 40/204/254 41/203/254
f 25/9/255 36/8/255 149/256/255
f 36/8/256 35/260/256 149/256/256
f 149/258/257 35/261/257 150/259/257
f 35/261/258 34/262/258 150/259/258
f 150/259/259 34/262/259 40/204/259
f 34/262/260 5/17/260 40/204/260
f 34/262/261 39/18/261 5/17/261
f 35/261/262 151/263/262 34/262/262
f 36/8/263 152/264/263 35/260/263
f 34/262/264 151/263/264 39/18/264
f 151/263/265 38/212/265 39/18/265
f 35/260/266 152/264/266 151/265/266
f 152/264/267 153/266/267 151/265/267
f 151/263/268 153/267/268 38/212/268
f 153/267/269 37/213/269 38/212/269
f 36/8/270 30/7/270 152/264/270
f 30/7/271 29/268/271 152/264/271
f 152/264/272 29/268/272 153/266/272
f 29/268/273 28/269/273 153/266/273
f 153/267/274 28/270/274 37/213/274
f 28/270/275 4/14/275 37/213/275
f 28/269/276 33/271/276 4/272/276
f 29/268/277 154/273/277 28/269/277
f 30/7/278 155/274/278 29/268/278
f 28/269/279 154/273/279 33/271/279
f 154/273/280 32/227/280 33/271/280
f 29/268/281 155/274/281 154/273/281
f 155/274/282 156/275/282 154/273/282
f 154/273/283 156/275/283 32/227/283
f 156/275/284 31/228/284 32/227/284
f 30/7/285 15/3/285 155/274/285
f 15/3/286 14/276/286 155/274/286
f 155/274/287 14/276/287 156/275/287
f 14/276/288 13/277/288 156/275/288
f 156/275/289 13/277/289 31/228/289
f 13/277/290 3/11/290 31/228/290
f 22/251/291 27/252/291 6/20/291
f 23/247/292 157/278/292 22/249/292
f 24/6/293 158/279/293 23/247/293
f 22/249/294 157/278/294 27/255/294
f 157/278/295 26/253/295 27/255/295
f 23/247/296 158/279/296 157/278/296
f 158/279/297 159/280/297 157/278/297
f 157/278/298 159/280/298 26/253/298
f 159/280/299 25/9/299 26/253/299
f 24/6/300 18/5/300 158/279/300
f 18/5/301 17/281/301 158/279/301
f 158/279/302 17/281/302 159/280/302
f 17/281/303 16/2/303 159/280/303
f 159/280/304 16/2/304 25/9/304
f 16/2/305 1/1/305 25/9/305
f 13/277/306 21/12/306 3/11/306
f 14/276/307 160/282/307 13/277/307
f 15/3/308 161/283/308 14/276/308
f 13/277/309 160/282/309 21/12/309
f 160/282/310 20/236/310 21/12/310
f 14/276/311 161/283/311 160/282/311
f 161/283/312 162/284/312 160/282/312
f 160/282/313 162/284/313 20/236/313
f 162/284/314 19/238/314 20/236/314
f 15/3/315 16/2/315 161/283/315
f 16/2/316 17/281/316 161/283/316
f 161/283/317 17/281/317 162/284/317
f 17/281/318 18/5/318 162/284/318
f 162/284/319 18/5/319 19/238/319
f 18/5/320 2/4/320 19/238/320
