# Blender 5.1.2
# www.blender.org
mtllib Rock_Round.mtl
o Rock_Round
v -0.020590 0.371620 -0.152724
v 0.550189 0.394371 1.576244
v -1.138658 0.741193 0.575442
v -1.151228 0.974677 -1.000584
v 0.337062 1.064183 -1.078071
v 1.405118 0.758428 0.069371
v -0.417398 1.825221 1.335019
v -1.397842 2.046595 -0.069012
v -0.303996 1.962136 -0.870924
v 1.056806 2.019516 -0.534077
v 1.533557 1.976332 1.332884
v 0.028116 2.814196 0.208551
v -0.938824 0.405086 0.402130
v -0.654464 0.357658 0.224378
v -0.313072 0.358531 0.020216
v 0.094319 0.325165 0.190882
v 0.232882 0.283450 0.606470
v 0.433381 0.221277 1.207664
v 0.051520 0.394191 1.416956
v -0.395670 0.563658 1.008328
v -0.881710 0.578693 0.874618
v 1.407847 0.571288 0.440867
v 1.278758 0.364416 0.911877
v 0.993596 0.283071 1.397943
v 0.271013 0.367536 -0.119411
v 0.681037 0.374671 -0.070695
v 1.002759 0.531610 -0.010437
v -0.909793 0.629288 -0.848030
v -0.648553 0.487235 -0.652484
v -0.266605 0.412234 -0.349129
v -1.290830 0.716923 0.204475
v -1.464687 0.674270 -0.276575
v -1.335764 0.832711 -0.706342
v 0.284131 0.710960 -0.993151
v 0.177473 0.481052 -0.722049
v 0.066326 0.413680 -0.403797
v -0.723138 0.996371 -1.025940
v -0.326116 1.011417 -1.021120
v 0.019007 1.007405 -1.163565
v 0.583899 0.982078 -0.863235
v 0.987061 0.799551 -0.687322
v 1.207074 0.786405 -0.292734
v 1.419059 1.579211 1.547076
v 1.168396 1.136662 1.651189
v 0.944226 0.659645 1.818782
v 1.479543 0.995813 0.336313
v 1.620534 1.270982 0.682096
v 1.672089 1.622679 1.059334
v -0.623822 1.552222 1.187651
v -0.853834 1.267212 1.041179
v -0.939426 1.021913 0.747068
v 0.278459 0.791848 1.582810
v 0.012332 1.179279 1.518917
v -0.242477 1.535427 1.566206
v -1.587651 1.842394 -0.360887
v -1.243184 1.506369 -0.523267
v -1.203622 1.246904 -0.762542
v -1.352849 1.028846 0.467485
v -1.422829 1.390359 0.285292
v -1.403751 1.730831 0.097110
v -0.166976 1.771367 -0.949120
v -0.008866 1.565871 -1.091968
v 0.164089 1.315369 -1.059884
v -0.857894 1.298371 -0.935287
v -0.648539 1.552676 -0.916522
v -0.441618 1.752408 -0.850651
v 1.137060 1.719652 -0.392918
v 1.380054 1.417593 -0.276715
v 1.537681 1.046372 -0.106376
v 0.519605 1.280877 -0.989239
v 0.620145 1.503668 -0.756215
v 0.928416 1.781975 -0.738312
v 1.233057 2.099566 1.749379
v 0.576757 2.068873 1.803291
v -0.028201 1.992880 1.726367
v -0.739022 1.938429 1.092568
v -1.074176 2.038373 0.744178
v -1.258448 2.048256 0.305194
v -1.309670 2.178997 -0.410122
v -1.005618 2.199739 -0.720012
v -0.580077 2.058707 -0.816141
v -0.037568 2.140665 -1.033236
v 0.347540 2.123923 -0.889520
v 0.719541 2.077846 -0.713754
v 1.204268 2.045357 -0.190763
v 1.408477 2.082092 0.262467
v 1.676214 2.121310 0.886370
v -0.106702 2.953149 0.640373
v -0.262817 2.665964 1.047423
v -0.379222 2.233479 1.305627
v 1.387842 2.472381 1.278646
v 0.844926 2.730115 0.867326
v 0.386603 2.883173 0.511608
v -0.431056 3.038710 0.187846
v -0.856876 2.701510 0.089239
v -1.381603 2.507739 0.000013
v -0.096439 2.825653 -0.167306
v -0.211155 2.563641 -0.537340
v -0.306489 2.315632 -0.847507
v 0.293254 2.593691 0.014638
v 0.560303 2.405170 -0.175308
v 0.842409 2.231089 -0.371956
v 0.776406 2.716548 0.281342
v 1.233799 2.450998 0.581867
v 1.110166 2.424541 0.019336
v 0.205538 2.568501 -0.372789
v 0.510299 2.368057 -0.592744
v 0.079509 2.364031 -0.742403
v -0.561066 2.774192 -0.279879
v -0.652965 2.474226 -0.684393
v -1.063054 2.570568 -0.388661
v -0.602001 2.761162 0.577150
v -1.100918 2.488497 0.483153
v -0.747464 2.393664 0.948603
v 0.285579 2.735281 0.980643
v 0.136413 2.425095 1.462310
v 0.840998 2.584589 1.544069
v 1.661269 1.702692 0.513259
v 1.369940 1.354378 0.152042
v 1.392302 1.722478 -0.024229
v 0.521628 1.794388 -0.856226
v 0.390100 1.563971 -1.132914
v 0.186188 1.897241 -1.184413
v -0.798866 1.821247 -0.831801
v -0.953590 1.536293 -0.764625
v -1.260583 1.873404 -0.686878
v -1.116502 1.665370 0.451427
v -1.092286 1.331013 0.641960
v -0.998844 1.639294 0.934071
v 0.275514 1.567313 1.760514
v 0.608026 1.123587 1.815115
v 0.904261 1.585465 1.770759
v 1.053886 1.474781 -0.619391
v 1.210354 1.121042 -0.489374
v 0.859389 1.201898 -0.803659
v -0.365965 1.573071 -1.092502
v -0.198676 1.286547 -1.269537
v -0.524137 1.299106 -1.026389
v -1.518601 1.459394 -0.168539
v -1.410793 1.150682 -0.435870
v -1.355843 1.094224 0.023598
v -0.436825 1.225257 1.268614
v -0.651112 0.917117 1.068770
v -0.212336 0.841879 1.350755
v 1.536095 1.191376 1.231701
v 1.476089 0.633564 1.536943
v 1.649217 0.790305 0.898642
v 0.822495 0.488820 -0.377139
v 0.384376 0.419371 -0.387433
v 0.457506 0.713081 -0.595043
v -0.084604 0.693201 -0.900882
v -0.193848 0.472417 -0.668119
v -0.460368 0.666182 -0.855745
v -1.165087 0.501618 -0.537355
v -0.643785 0.414943 -0.218877
v -1.008846 0.422826 -0.025708
v 1.042145 0.320553 0.389248
v 0.825142 0.250915 0.889323
v 0.484449 0.322361 0.254962
v -0.596356 0.307558 0.698004
v -0.234854 0.304336 0.473803
v -0.091888 0.275122 0.849292
vn -0.0291 -0.9918 -0.1243
vn -0.0495 -0.8979 0.4374
vn -0.0440 -0.9878 -0.1492
vn -0.0242 -0.9846 -0.1733
vn 0.0049 -0.9865 -0.1636
vn 0.0842 -0.7376 0.6699
vn -0.7270 0.1008 0.6792
vn -0.8707 0.2180 -0.4409
vn 0.2168 0.2182 -0.9515
vn 0.6953 -0.5795 -0.4251
vn -0.3686 -0.2667 0.8905
vn -0.5582 -0.1069 0.8228
vn -0.4388 0.5422 -0.7166
vn 0.2103 0.2139 -0.9539
vn 0.9228 -0.3772 0.0781
vn -0.7288 0.1167 0.6747
vn -0.9369 -0.0193 0.3491
vn -0.1727 0.0639 -0.9829
vn 0.3956 0.7766 -0.4904
vn 0.8767 0.2988 0.3771
vn 0.2866 0.8035 -0.5218
vn 0.3602 0.9307 -0.0637
vn 0.5084 0.8499 -0.1385
vn 0.0643 0.8570 -0.5113
vn 0.1305 0.7893 -0.6000
vn 0.5404 0.8373 -0.0826
vn 0.5736 0.8026 -0.1638
vn 0.1899 0.7670 -0.6129
vn 0.1548 0.8394 -0.5210
vn 0.6609 0.7313 -0.1686
vn 0.7011 0.6266 -0.3403
vn 0.8052 0.5572 -0.2032
vn 0.8126 0.4235 -0.4004
vn 0.5791 0.5004 -0.6436
vn 0.5490 0.7821 -0.2947
vn 0.5591 0.8134 -0.1605
vn 0.4872 0.8574 -0.1660
vn 0.4519 0.8821 -0.1326
vn 0.5638 0.8060 -0.1801
vn 0.2316 0.7586 -0.6090
vn 0.4751 0.8696 -0.1342
vn 0.1733 0.8356 -0.5213
vn 0.1978 0.8276 -0.5253
vn 0.0773 0.7670 -0.6370
vn 0.5921 0.6342 -0.4972
vn 0.4046 0.5849 -0.7030
vn 0.2336 0.6841 -0.6909
vn 0.2743 0.7062 -0.6528
vn 0.0730 0.7766 -0.6258
vn -0.5446 0.0516 -0.8371
vn 0.4405 0.8899 -0.1188
vn 0.0531 0.8071 -0.5880
vn 0.0548 0.7716 -0.6338
vn 0.0244 0.8673 -0.4973
vn -0.5524 0.7820 -0.2887
vn 0.0384 0.7985 -0.6008
vn -0.2081 0.8077 -0.5517
vn -0.3550 0.9293 -0.1015
vn -0.3266 0.9380 -0.1161
vn -0.3245 0.2337 -0.9166
vn -0.1221 0.2804 -0.9521
vn -0.3809 0.5826 -0.7180
vn -0.6538 0.4453 -0.6117
vn -0.7155 0.4785 -0.5090
vn -0.9720 0.0679 -0.2249
vn 0.4398 0.8859 -0.1477
vn -0.6362 0.7324 0.2428
vn -0.3727 0.8931 0.2521
vn -0.3739 0.8249 0.4239
vn -0.3732 0.8195 0.4350
vn -0.4961 0.8544 0.1547
vn -0.4842 0.7094 0.5122
vn -0.4991 0.7058 0.5028
vn -0.4500 0.5440 0.7082
vn -0.8582 0.1039 0.5027
vn -0.9074 0.1692 0.3847
vn -0.7246 0.3130 0.6140
vn -0.6733 0.2116 0.7084
vn -0.6262 0.2245 0.7466
vn -0.5727 0.1120 0.8121
vn 0.0602 0.9555 -0.2887
vn -0.0349 0.8229 0.5672
vn -0.4227 0.5457 0.7236
vn 0.2177 0.9164 0.3358
vn 0.0724 0.9466 0.3141
vn -0.0422 0.8459 0.5317
vn -0.2464 0.8478 0.4696
vn 0.0516 0.9763 0.2102
vn 0.2903 0.9352 0.2028
vn -0.4269 0.5843 0.6902
vn -0.1734 0.5607 0.8097
vn -0.2143 0.5241 0.8243
vn 0.0543 0.4261 0.9030
vn 0.4404 0.6277 0.6419
vn 0.8143 0.2939 0.5005
vn 0.9363 0.1082 0.3343
vn 0.9936 -0.1076 -0.0355
vn 0.9061 0.0618 -0.4186
vn 0.9996 -0.0160 -0.0221
vn 0.8640 0.3174 -0.3907
vn 0.8580 -0.2553 -0.4458
vn 0.8590 -0.2627 -0.4395
vn 0.8587 0.2953 -0.4188
vn 0.8635 0.2901 -0.4126
vn 0.9173 0.3637 0.1620
vn 0.9029 0.4217 0.0835
vn 0.9985 -0.0531 0.0157
vn 0.7510 0.4030 -0.5230
vn 0.8079 0.1813 -0.5607
vn 0.9157 0.0579 -0.3977
vn 0.4834 0.4057 -0.7757
vn 0.2642 -0.2325 -0.9360
vn 0.8550 0.1373 -0.5001
vn 0.2756 0.2711 -0.9222
vn 0.4372 0.1412 -0.8882
vn 0.8558 0.1166 -0.5040
vn 0.7091 0.3382 -0.6187
vn 0.7116 0.3123 -0.6294
vn 0.2822 0.6798 -0.6769
vn 0.1419 -0.3956 -0.9074
vn -0.1011 -0.1947 -0.9756
vn -0.1008 -0.2119 -0.9721
vn -0.5789 0.1156 -0.8071
vn -0.5558 0.0054 -0.8313
vn -0.5123 -0.0160 -0.8586
vn -0.1855 0.0268 -0.9823
vn 0.0086 0.3052 -0.9523
vn -0.4243 0.4089 -0.8080
vn -0.0338 0.0968 -0.9947
vn -0.1512 0.2031 -0.9674
vn -0.4469 0.0319 -0.8940
vn -0.3050 -0.0585 -0.9506
vn -0.2842 0.1255 -0.9505
vn -0.6529 0.4481 -0.6106
vn -0.4574 0.3895 -0.7994
vn -0.5843 0.5002 -0.6390
vn -0.5765 -0.3553 -0.7358
vn -0.6490 -0.3352 -0.6830
vn -0.6518 0.4489 -0.6113
vn -0.7664 0.6403 0.0504
vn -0.9190 0.1968 0.3415
vn -0.6818 0.3828 0.6234
vn -0.6997 0.2089 0.6832
vn -0.7804 -0.0513 0.6232
vn -0.9064 -0.1924 0.3761
vn -0.6631 0.3338 0.6700
vn -0.9686 0.0664 0.2397
vn -0.9699 -0.0724 0.2325
vn -0.6738 0.2099 0.7084
vn -0.5601 0.0047 0.8284
vn -0.8466 -0.2609 0.4640
vn -0.8554 -0.1953 0.4797
vn -0.5565 0.0222 0.8306
vn -0.5533 0.0398 0.8320
vn -0.5975 0.0191 0.8016
vn -0.7270 0.1028 0.6789
vn -0.3117 -0.3408 0.8869
vn -0.4515 -0.1655 0.8768
vn -0.3373 -0.1664 0.9266
vn -0.1250 -0.0096 0.9921
vn -0.4504 -0.2314 0.8623
vn -0.0193 0.1078 0.9940
vn -0.0140 -0.0766 0.9970
vn 0.0824 -0.0112 0.9965
vn -0.3680 -0.2596 0.8928
vn 0.2705 0.2035 0.9410
vn 0.2816 -0.0888 0.9554
vn 0.3984 -0.0099 0.9172
vn 0.3874 -0.2105 0.8976
vn 0.8188 0.0712 0.5697
vn 0.8546 -0.0156 -0.5191
vn 0.7102 0.3326 -0.6205
vn 0.7625 0.0272 -0.6464
vn 0.8574 0.1609 -0.4889
vn 0.2766 -0.2466 -0.9288
vn 0.7284 0.0718 -0.6814
vn 0.6699 0.0236 -0.7420
vn 0.3014 0.3767 -0.8759
vn 0.5009 0.5074 -0.7012
vn 0.6637 -0.3838 -0.6420
vn 0.8327 -0.2866 -0.4738
vn 0.6666 -0.0040 -0.7454
vn 0.3314 -0.1635 -0.9292
vn 0.4098 -0.2782 -0.8687
vn 0.6063 -0.1947 -0.7710
vn -0.3427 0.1350 -0.9297
vn 0.0129 0.5774 -0.8164
vn 0.4751 0.2189 -0.8522
vn -0.2750 0.7291 -0.6267
vn -0.4335 0.6537 -0.6203
vn 0.0120 0.5306 -0.8475
vn -0.5883 0.1478 -0.7950
vn -0.5312 0.1037 -0.8409
vn -0.2536 0.2771 -0.9268
vn 0.4961 0.0580 -0.8663
vn -0.3249 -0.5464 -0.7719
vn -0.5589 -0.3980 -0.7275
vn 0.0125 -0.0097 -0.9999
vn -0.2599 0.1694 -0.9507
vn -0.0701 0.2580 -0.9636
vn -0.8816 0.2325 0.4107
vn -0.6887 -0.4207 -0.5905
vn -0.8449 0.2873 -0.4512
vn -0.9258 0.0225 0.3772
vn -0.9565 0.1803 0.2293
vn -0.7836 0.2271 -0.5783
vn -0.9236 -0.3780 0.0640
vn -0.9298 -0.3383 0.1448
vn -0.9793 -0.2012 -0.0230
vn -0.8526 0.2069 -0.4798
vn -0.9591 0.0140 -0.2826
vn -0.9783 0.1562 0.1362
vn -0.9405 0.0009 0.3398
vn -0.9837 -0.1790 -0.0197
vn -0.8077 -0.4656 0.3618
vn -0.6940 0.1439 0.7055
vn -0.4826 -0.0596 0.8738
vn -0.7454 -0.3890 0.5413
vn -0.6914 -0.2254 0.6864
vn -0.4713 -0.4388 0.7651
vn -0.4842 -0.2135 0.8485
vn -0.5525 -0.1478 0.8203
vn -0.4922 -0.1030 0.8643
vn -0.4351 -0.1525 0.8874
vn -0.7241 0.1020 0.6821
vn -0.2591 -0.3417 0.9034
vn -0.5275 -0.4988 0.6877
vn -0.7023 -0.3199 0.6359
vn -0.4345 -0.1241 0.8921
vn -0.2969 -0.2183 0.9296
vn 0.8879 -0.0079 0.4599
vn 0.7405 -0.2752 0.6132
vn 0.4698 0.0878 0.8784
vn 0.8869 -0.0993 0.4512
vn 0.9597 -0.2586 0.1100
vn 0.7030 0.2817 0.6530
vn 0.9613 0.0454 0.2719
vn 0.9763 0.1346 0.1695
vn 0.9446 -0.0862 -0.3165
vn 0.3125 -0.6894 0.6535
vn 0.5432 -0.8198 0.1815
vn 0.7544 -0.6549 0.0438
vn 0.7507 -0.6555 -0.0822
vn 0.9013 -0.2409 -0.3600
vn 0.9763 -0.1903 -0.1030
vn 0.5121 -0.7884 -0.3410
vn 0.4533 -0.8833 -0.1198
vn 0.0378 -0.9840 -0.1743
vn 0.6267 -0.7473 -0.2209
vn 0.6182 -0.6946 -0.3678
vn 0.1567 -0.9470 -0.2804
vn 0.1126 -0.5921 -0.7980
vn -0.0088 -0.7041 -0.7100
vn -0.0088 -0.7039 -0.7102
vn 0.0268 -0.9835 -0.1789
vn 0.0277 -0.9799 -0.1978
vn 0.6733 -0.5312 -0.5143
vn 0.6854 -0.6658 -0.2949
vn 0.7081 -0.6368 -0.3050
vn 0.5789 -0.2716 -0.7689
vn 0.2941 -0.2649 -0.9183
vn -0.1327 -0.7296 -0.6709
vn -0.0077 -0.9777 -0.2097
vn -0.1670 -0.5994 -0.7828
vn -0.3263 -0.5406 -0.7754
vn -0.0863 -0.7023 -0.7066
vn -0.0320 -0.7176 -0.6957
vn -0.0803 -0.4051 -0.9108
vn 0.0276 -0.4406 -0.8973
vn -0.0271 -0.9812 -0.1913
vn -0.0386 -0.9803 -0.1938
vn -0.0472 -0.7276 -0.6843
vn 0.0526 -0.7732 -0.6320
vn 0.0211 -0.4447 -0.8954
vn -0.0322 -0.4226 -0.9057
vn -0.4975 -0.6171 -0.6097
vn -0.1281 -0.8759 -0.4652
vn -0.0635 -0.9845 -0.1634
vn -0.4933 -0.5835 -0.6451
vn -0.6997 -0.5762 -0.4223
vn -0.0638 -0.9845 -0.1634
vn -0.0877 -0.9882 -0.1254
vn -0.4893 -0.8720 0.0151
vn -0.5764 -0.7690 0.2765
vn -0.0592 -0.9868 -0.1509
vn -0.0750 -0.9887 -0.1296
vn -0.0900 -0.9874 -0.1298
vn -0.1722 -0.9850 -0.0127
vn -0.6864 -0.7226 0.0824
vn -0.7232 -0.6033 0.3361
vn 0.5097 -0.7669 -0.3901
vn 0.5732 -0.7964 -0.1927
vn 0.2436 -0.9697 -0.0194
vn 0.5508 -0.7144 -0.4315
vn 0.4582 -0.7666 -0.4499
vn 0.2440 -0.9693 -0.0291
vn 0.0272 -0.9916 -0.1263
vn 0.0306 -0.9896 -0.1405
vn 0.0337 -0.9898 -0.1386
vn 0.0995 -0.9946 0.0299
vn -0.0066 -0.9949 -0.1007
vn -0.0015 -0.9938 -0.1111
vn 0.0098 -0.9946 -0.1031
vn 0.0138 -0.9917 -0.1276
vn 0.0015 -0.9909 -0.1345
vn -0.7388 -0.5988 0.3093
vn -0.2108 -0.9745 -0.0772
vn -0.0620 -0.9922 -0.1079
vn -0.5229 -0.7777 0.3490
vn -0.2137 -0.6811 0.7003
vn -0.0688 -0.9929 -0.0966
vn -0.0461 -0.9971 -0.0600
vn -0.2547 -0.6585 0.7082
vn -0.5676 -0.7651 0.3039
vn -0.0341 -0.9930 -0.1128
vn -0.0178 -0.9954 -0.0940
vn -0.0253 -0.9974 -0.0680
vn -0.0412 -0.9952 -0.0892
vn -0.2745 -0.9248 0.2633
vn -0.1460 -0.8768 0.4581
vt 0.202972 0.318021
vt 0.235576 0.278694
vt 0.238911 0.339361
vt 0.610425 0.431558
vt 0.647652 0.384564
vt 0.648638 0.444390
vt 0.193716 0.361542
vt 0.168613 0.326494
vt 0.189832 0.281145
vt 0.577195 0.479937
vt 0.561476 0.183937
vt 0.575341 0.242516
vt 0.523435 0.209826
vt 0.870201 0.293883
vt 0.839754 0.329246
vt 0.827703 0.269054
vt 0.212203 0.671623
vt 0.183937 0.692794
vt 0.183937 0.644229
vt 0.113603 0.126954
vt 0.085321 0.177789
vt 0.065515 0.120487
vt 0.550287 0.401436
vt 0.523189 0.147428
vt 0.870569 0.234377
vt 0.220202 0.634102
vt 0.369479 0.760953
vt 0.367256 0.714376
vt 0.414541 0.756851
vt 0.407971 0.292158
vt 0.379353 0.360966
vt 0.358658 0.278937
vt 0.419500 0.049285
vt 0.404616 0.103710
vt 0.357623 0.044719
vt 0.872129 0.114811
vt 0.834662 0.124758
vt 0.845285 0.073172
vt 0.416420 0.564116
vt 0.415091 0.539929
vt 0.459799 0.552048
vt 0.599420 0.729161
vt 0.555650 0.676226
vt 0.638456 0.667036
vt 0.041423 0.528507
vt 0.007341 0.577965
vt 0.011258 0.522140
vt 0.719261 0.805330
vt 0.682163 0.742926
vt 0.720915 0.720979
vt 0.566223 0.609885
vt 0.635726 0.599194
vt 0.053729 0.595439
vt 0.007341 0.631454
vt 0.572808 0.551074
vt 0.507153 0.564798
vt 0.047339 0.668095
vt 0.010287 0.685915
vt 0.494750 0.626390
vt 0.450261 0.591055
vt 0.553644 0.539159
vt 0.567883 0.494619
vt 0.603328 0.528370
vt 0.506834 0.546652
vt 0.512520 0.508882
vt 0.459904 0.515491
vt 0.839973 0.012252
vt 0.813078 0.041343
vt 0.777123 0.007341
vt 0.900229 0.009957
vt 0.870774 0.040237
vt 0.949986 0.027069
vt 0.924667 0.046568
vt 0.897675 0.071052
vt 0.637645 0.497698
vt 0.744889 0.046394
vt 0.788355 0.082679
vt 0.702683 0.012492
vt 0.693135 0.082975
vt 0.719455 0.106458
vt 0.754218 0.551422
vt 0.807022 0.494619
vt 0.814282 0.558013
vt 0.869799 0.500510
vt 0.776558 0.141208
vt 0.724942 0.171270
vt 0.663320 0.143869
vt 0.423161 0.010574
vt 0.667481 0.547784
vt 0.823680 0.629044
vt 0.756781 0.602865
vt 0.882864 0.575613
vt 0.768961 0.681109
vt 0.836653 0.710722
vt 0.894173 0.658283
vt 0.901210 0.733717
vt 0.344497 0.122632
vt 0.389358 0.169356
vt 0.936303 0.613935
vt 0.395308 0.237367
vt 0.344360 0.205771
vt 0.940804 0.683725
vt 0.735462 0.657155
vt 0.777217 0.758788
vt 0.851774 0.796758
vt 0.782426 0.872762
vt 0.722671 0.906122
vt 0.921045 0.815374
vt 0.866898 0.882728
vt 0.801924 0.943975
vt 0.667481 0.747868
vt 0.535698 0.747510
vt 0.468529 0.755547
vt 0.482164 0.692501
vt 0.426923 0.699742
vt 0.126243 0.637038
vt 0.126244 0.553474
vt 0.169255 0.605860
vt 0.162882 0.522140
vt 0.435492 0.643184
vt 0.384152 0.656642
vt 0.405107 0.610706
vt 0.992659 0.046405
vt 0.972533 0.011688
vt 0.270364 0.667890
vt 0.241505 0.678816
vt 0.239236 0.621070
vt 0.079592 0.640507
vt 0.068412 0.595113
vt 0.111561 0.617438
vt 0.961900 0.073432
vt 0.105460 0.572733
vt 0.073054 0.542841
vt 0.111561 0.522140
vt 0.947871 0.081019
vt 0.699880 0.379244
vt 0.680158 0.423022
vt 0.663320 0.379244
vt 0.976957 0.154089
vt 0.945283 0.136593
vt 0.986819 0.106390
vt 0.904683 0.126120
vt 0.872085 0.150439
vt 0.871348 0.188689
vt 0.831558 0.169189
vt 0.831530 0.215813
vt 0.772453 0.199718
vt 0.787236 0.244811
vt 0.718109 0.232978
vt 0.322675 0.663679
vt 0.285046 0.641378
vt 0.322675 0.606039
vt 0.451025 0.078315
vt 0.224553 0.550401
vt 0.183937 0.587091
vt 0.183937 0.522140
vt 0.484311 0.177270
vt 0.484123 0.109818
vt 0.450669 0.142663
vt 0.219959 0.619420
vt 0.432999 0.209397
vt 0.479796 0.243553
vt 0.443534 0.268439
vt 0.438856 0.340753
vt 0.495257 0.363574
vt 0.442041 0.399034
vt 0.506951 0.442099
vt 0.930705 0.859855
vt 0.940804 0.909661
vt 0.874039 0.924685
vt 0.239236 0.591357
vt 0.255112 0.522140
vt 0.285675 0.591357
vt 0.623773 0.859992
vt 0.583586 0.848848
vt 0.642977 0.805822
vt 0.596555 0.791533
vt 0.380494 0.573101
vt 0.364284 0.618991
vt 0.344360 0.671341
vt 0.270364 0.606039
vt 0.038972 0.187458
vt 0.020462 0.251824
vt 0.007341 0.210529
vt 0.166052 0.651720
vt 0.166052 0.698296
vt 0.126244 0.666674
vt 0.092677 0.664186
vt 0.056079 0.233944
vt 0.047155 0.292242
vt 0.014819 0.304977
vt 0.032841 0.336647
vt 0.910590 0.162384
vt 0.960393 0.181303
vt 0.909543 0.207936
vt 0.300357 0.522140
vt 0.320933 0.552454
vt 0.300357 0.581521
vt 0.992659 0.200044
vt 0.948298 0.227577
vt 0.911671 0.258935
vt 0.454300 0.007341
vt 0.736744 0.276574
vt 0.789374 0.301158
vt 0.495553 0.046753
vt 0.552357 0.031587
vt 0.537669 0.092110
vt 0.805329 0.364561
vt 0.603135 0.061328
vt 0.578652 0.129696
vt 0.487324 0.301017
vt 0.529819 0.271534
vt 0.539504 0.338048
vt 0.586578 0.292744
vt 0.602030 0.377852
vt 0.526416 0.810110
vt 0.573820 0.915610
vt 0.518716 0.898825
vt 0.453446 0.828683
vt 0.329678 0.047902
vt 0.312049 0.080275
vt 0.271552 0.007341
vt 0.238756 0.082899
vt 0.183145 0.033758
vt 0.166428 0.100844
vt 0.395654 0.813460
vt 0.146092 0.183992
vt 0.170561 0.228952
vt 0.121742 0.234165
vt 0.151426 0.287658
vt 0.103032 0.290565
vt 0.123923 0.336903
vt 0.071893 0.341727
vt 0.046774 0.381593
vt 0.104234 0.378345
vt 0.151728 0.376643
vt 0.984487 0.249428
vt 0.132797 0.419567
vt 0.946880 0.281416
vt 0.104970 0.458624
vt 0.081284 0.411228
vt 0.178589 0.428806
vt 0.162506 0.472507
vt 0.134105 0.507458
vt 0.905794 0.319493
vt 0.219407 0.480592
vt 0.228918 0.395915
vt 0.866292 0.358691
vt 0.648638 0.056154
vt 0.609411 0.014048
vt 0.269556 0.423930
vt 0.637486 0.130635
vt 0.279992 0.363872
vt 0.311306 0.382960
vt 0.619993 0.187247
vt 0.201558 0.151753
vt 0.271453 0.139836
vt 0.219818 0.227812
vt 0.329528 0.161919
vt 0.273921 0.230956
vt 0.329678 0.321270
vt 0.285664 0.295996
vt 0.628591 0.249407
vt 0.318626 0.250640
vt 0.641756 0.303545
s 0
usemtl Rock_OBJ_Material
f 1/1/1 16/2/1 15/3/1
f 2/4/2 18/5/2 24/6/2
f 1/1/3 15/3/3 30/7/3
f 1/1/4 30/7/4 36/8/4
f 1/1/5 36/8/5 25/9/5
f 2/4/6 24/6/6 45/10/6
f 3/11/7 21/12/7 51/13/7
f 4/14/8 33/15/8 57/16/8
f 5/17/9 39/18/9 63/19/9
f 6/20/10 42/21/10 69/22/10
f 2/4/11 45/10/11 52/23/11
f 3/11/12 51/13/12 58/24/12
f 4/14/13 57/16/13 64/25/13
f 5/17/14 63/19/14 70/26/14
f 6/27/15 69/28/15 46/29/15
f 7/30/16 75/31/16 90/32/16
f 8/33/17 78/34/17 96/35/17
f 9/36/18 81/37/18 99/38/18
f 10/39/19 84/40/19 102/41/19
f 11/42/20 87/43/20 91/44/20
f 93/45/21 100/46/21 12/47/21
f 92/48/22 103/49/22 93/50/22
f 91/44/23 104/51/23 92/52/23
f 93/45/24 103/53/24 100/46/24
f 103/53/25 101/54/25 100/46/25
f 92/52/26 104/51/26 103/55/26
f 104/51/27 105/56/27 103/55/27
f 103/53/28 105/57/28 101/54/28
f 105/57/29 102/58/29 101/54/29
f 91/44/30 87/43/30 104/51/30
f 87/43/31 86/59/31 104/51/31
f 104/51/32 86/59/32 105/56/32
f 86/59/33 85/60/33 105/56/33
f 105/56/34 85/60/34 102/41/34
f 85/60/35 10/39/35 102/41/35
f 100/61/36 97/62/36 12/63/36
f 101/64/37 106/65/37 100/61/37
f 102/41/38 107/66/38 101/64/38
f 100/61/39 106/65/39 97/62/39
f 106/67/40 98/68/40 97/69/40
f 101/64/41 107/66/41 106/65/41
f 107/70/42 108/71/42 106/67/42
f 106/67/43 108/71/43 98/68/43
f 108/71/44 99/38/44 98/68/44
f 102/41/45 84/40/45 107/66/45
f 84/72/46 83/73/46 107/70/46
f 107/70/47 83/73/47 108/71/47
f 83/73/48 82/74/48 108/71/48
f 108/71/49 82/74/49 99/38/49
f 82/74/50 9/36/50 99/38/50
f 97/62/51 94/75/51 12/63/51
f 98/68/52 109/76/52 97/69/52
f 99/38/53 110/77/53 98/68/53
f 97/69/54 109/76/54 94/78/54
f 109/76/55 95/79/55 94/78/55
f 98/68/56 110/77/56 109/76/56
f 110/77/57 111/80/57 109/76/57
f 109/81/58 111/82/58 95/83/58
f 111/82/59 96/84/59 95/83/59
f 99/38/60 81/37/60 110/77/60
f 81/37/61 80/85/61 110/77/61
f 110/77/62 80/85/62 111/80/62
f 80/85/63 79/86/63 111/80/63
f 111/80/64 79/86/64 96/87/64
f 79/88/65 8/33/65 96/35/65
f 94/75/66 88/89/66 12/63/66
f 95/83/67 112/90/67 94/91/67
f 96/84/68 113/92/68 95/83/68
f 94/91/69 112/90/69 88/93/69
f 112/90/70 89/94/70 88/93/70
f 95/83/71 113/92/71 112/90/71
f 113/92/72 114/95/72 112/90/72
f 112/90/73 114/95/73 89/94/73
f 114/95/74 90/96/74 89/94/74
f 96/35/75 78/34/75 113/97/75
f 78/34/76 77/98/76 113/97/76
f 113/92/77 77/99/77 114/95/77
f 77/98/78 76/100/78 114/101/78
f 114/95/79 76/102/79 90/96/79
f 76/100/80 7/30/80 90/32/80
f 88/93/81 93/50/81 12/103/81
f 89/94/82 115/104/82 88/93/82
f 90/96/83 116/105/83 89/94/83
f 88/93/84 115/104/84 93/50/84
f 115/104/85 92/48/85 93/50/85
f 89/94/86 116/105/86 115/104/86
f 116/105/87 117/106/87 115/104/87
f 115/104/88 117/106/88 92/48/88
f 117/106/89 91/107/89 92/48/89
f 90/96/90 75/108/90 116/105/90
f 75/108/91 74/109/91 116/105/91
f 116/105/92 74/109/92 117/106/92
f 74/109/93 73/110/93 117/106/93
f 117/106/94 73/110/94 91/107/94
f 73/111/95 11/42/95 91/44/95
f 48/112/96 87/43/96 11/42/96
f 47/113/97 118/114/97 48/112/97
f 46/29/98 119/115/98 47/113/98
f 48/112/99 118/114/99 87/43/99
f 118/114/100 86/59/100 87/43/100
f 47/116/101 119/117/101 118/118/101
f 119/117/102 120/119/102 118/118/102
f 118/114/103 120/120/103 86/59/103
f 120/120/104 85/60/104 86/59/104
f 46/29/105 69/28/105 119/115/105
f 69/28/106 68/121/106 119/115/106
f 119/115/107 68/121/107 120/120/107
f 68/121/108 67/122/108 120/120/108
f 120/120/109 67/122/109 85/60/109
f 67/122/110 10/39/110 85/60/110
f 72/123/111 84/72/111 10/124/111
f 71/125/112 121/126/112 72/127/112
f 70/128/113 122/129/113 71/130/113
f 72/123/114 121/131/114 84/72/114
f 121/131/115 83/73/115 84/72/115
f 71/130/116 122/129/116 121/132/116
f 122/129/117 123/133/117 121/132/117
f 121/132/118 123/133/118 83/134/118
f 123/135/119 82/74/119 83/73/119
f 70/136/120 63/137/120 122/138/120
f 63/139/121 62/140/121 122/141/121
f 122/141/122 62/140/122 123/135/122
f 62/140/123 61/142/123 123/135/123
f 123/135/124 61/142/124 82/74/124
f 61/142/125 9/36/125 82/74/125
f 66/143/126 81/37/126 9/36/126
f 65/144/127 124/145/127 66/143/127
f 64/25/128 125/146/128 65/144/128
f 66/143/129 124/145/129 81/37/129
f 124/145/130 80/85/130 81/37/130
f 65/144/131 125/146/131 124/145/131
f 125/146/132 126/147/132 124/145/132
f 124/145/133 126/147/133 80/85/133
f 126/147/134 79/86/134 80/85/134
f 64/25/135 57/16/135 125/146/135
f 57/16/136 56/148/136 125/146/136
f 125/146/137 56/148/137 126/147/137
f 56/148/138 55/149/138 126/147/138
f 126/147/139 55/149/139 79/86/139
f 55/150/140 8/151/140 79/152/140
f 60/153/141 78/34/141 8/33/141
f 59/154/142 127/155/142 60/156/142
f 58/24/143 128/157/143 59/158/143
f 60/153/144 127/159/144 78/34/144
f 127/159/145 77/98/145 78/34/145
f 59/154/146 128/160/146 127/155/146
f 128/157/147 129/161/147 127/159/147
f 127/159/148 129/161/148 77/98/148
f 129/161/149 76/100/149 77/98/149
f 58/24/150 51/13/150 128/157/150
f 51/13/151 50/162/151 128/157/151
f 128/157/152 50/162/152 129/161/152
f 50/162/153 49/163/153 129/161/153
f 129/161/154 49/163/154 76/100/154
f 49/163/155 7/30/155 76/100/155
f 54/164/156 75/31/156 7/30/156
f 53/165/157 130/166/157 54/164/157
f 52/23/158 131/167/158 53/165/158
f 54/164/159 130/166/159 75/31/159
f 130/168/160 74/109/160 75/108/160
f 53/165/161 131/167/161 130/166/161
f 131/169/162 132/170/162 130/168/162
f 130/168/163 132/170/163 74/109/163
f 132/170/164 73/110/164 74/109/164
f 52/23/165 45/10/165 131/167/165
f 45/171/166 44/172/166 131/173/166
f 131/174/167 44/175/167 132/176/167
f 44/175/168 43/177/168 132/176/168
f 132/176/169 43/177/169 73/111/169
f 43/177/170 11/42/170 73/111/170
f 67/122/171 72/178/171 10/39/171
f 68/121/172 133/179/172 67/122/172
f 69/28/173 134/180/173 68/121/173
f 67/122/174 133/179/174 72/178/174
f 133/181/175 71/125/175 72/127/175
f 68/121/176 134/180/176 133/179/176
f 134/182/177 135/183/177 133/184/177
f 133/185/178 135/186/178 71/187/178
f 135/188/179 70/128/179 71/130/179
f 69/22/180 42/21/180 134/182/180
f 42/21/181 41/189/181 134/182/181
f 134/182/182 41/189/182 135/183/182
f 41/189/183 40/190/183 135/183/183
f 135/183/184 40/190/184 70/191/184
f 40/190/185 5/192/185 70/191/185
f 61/142/186 66/143/186 9/36/186
f 62/140/187 136/193/187 61/142/187
f 63/139/188 137/194/188 62/140/188
f 61/142/189 136/193/189 66/143/189
f 136/193/190 65/144/190 66/143/190
f 62/140/191 137/194/191 136/193/191
f 137/194/192 138/195/192 136/193/192
f 136/193/193 138/195/193 65/144/193
f 138/195/194 64/25/194 65/144/194
f 63/196/195 39/197/195 137/198/195
f 39/199/196 38/200/196 137/194/196
f 137/194/197 38/200/197 138/195/197
f 38/200/198 37/201/198 138/195/198
f 138/195/199 37/201/199 64/25/199
f 37/201/200 4/14/200 64/25/200
f 55/202/201 60/153/201 8/33/201
f 56/148/202 139/203/202 55/149/202
f 57/16/203 140/204/203 56/148/203
f 55/202/204 139/205/204 60/153/204
f 139/205/205 59/158/205 60/153/205
f 56/148/206 140/204/206 139/203/206
f 140/206/207 141/207/207 139/205/207
f 139/205/208 141/207/208 59/158/208
f 141/207/209 58/24/209 59/158/209
f 57/16/210 33/15/210 140/204/210
f 33/15/211 32/208/211 140/204/211
f 140/206/212 32/209/212 141/207/212
f 32/209/213 31/210/213 141/207/213
f 141/207/214 31/210/214 58/24/214
f 31/210/215 3/11/215 58/24/215
f 49/163/216 54/164/216 7/30/216
f 50/162/217 142/211/217 49/163/217
f 51/13/218 143/212/218 50/162/218
f 49/163/219 142/211/219 54/164/219
f 142/211/220 53/165/220 54/164/220
f 50/162/221 143/212/221 142/211/221
f 143/212/222 144/213/222 142/211/222
f 142/211/223 144/213/223 53/165/223
f 144/213/224 52/23/224 53/165/224
f 51/13/225 21/12/225 143/212/225
f 21/12/226 20/214/226 143/212/226
f 143/212/227 20/214/227 144/213/227
f 20/214/228 19/215/228 144/213/228
f 144/213/229 19/215/229 52/23/229
f 19/215/230 2/4/230 52/23/230
f 43/177/231 48/112/231 11/42/231
f 44/175/232 145/216/232 43/177/232
f 45/217/233 146/218/233 44/175/233
f 43/177/234 145/216/234 48/112/234
f 145/216/235 47/113/235 48/112/235
f 44/175/236 146/218/236 145/216/236
f 146/218/237 147/219/237 145/216/237
f 145/216/238 147/219/238 47/113/238
f 147/219/239 46/29/239 47/113/239
f 45/220/240 24/221/240 146/222/240
f 24/221/241 23/223/241 146/222/241
f 146/222/242 23/223/242 147/224/242
f 23/223/243 22/225/243 147/224/243
f 147/219/244 22/226/244 46/29/244
f 22/226/245 6/27/245 46/29/245
f 27/227/246 42/21/246 6/20/246
f 26/228/247 148/229/247 27/227/247
f 25/9/248 149/230/248 26/228/248
f 27/227/249 148/229/249 42/21/249
f 148/229/250 41/189/250 42/21/250
f 26/228/251 149/230/251 148/229/251
f 149/230/252 150/231/252 148/229/252
f 148/229/253 150/231/253 41/189/253
f 150/231/254 40/190/254 41/189/254
f 25/9/255 36/8/255 149/230/255
f 36/8/256 35/232/256 149/230/256
f 149/230/257 35/232/257 150/231/257
f 35/232/258 34/233/258 150/231/258
f 150/231/259 34/233/259 40/190/259
f 34/233/260 5/192/260 40/190/260
f 34/233/261 39/234/261 5/192/261
f 35/232/262 151/235/262 34/233/262
f 36/8/263 152/236/263 35/232/263
f 34/233/264 151/235/264 39/234/264
f 151/237/265 38/200/265 39/199/265
f 35/232/266 152/236/266 151/235/266
f 152/236/267 153/238/267 151/235/267
f 151/237/268 153/239/268 38/200/268
f 153/238/269 37/240/269 38/241/269
f 36/8/270 30/7/270 152/236/270
f 30/7/271 29/242/271 152/236/271
f 152/236/272 29/242/272 153/238/272
f 29/242/273 28/243/273 153/238/273
f 153/238/274 28/243/274 37/240/274
f 28/243/275 4/244/275 37/240/275
f 28/245/276 33/15/276 4/14/276
f 29/242/277 154/246/277 28/243/277
f 30/7/278 155/247/278 29/242/278
f 28/245/279 154/248/279 33/15/279
f 154/249/280 32/209/280 33/250/280
f 29/242/281 155/247/281 154/246/281
f 155/247/282 156/251/282 154/246/282
f 154/249/283 156/252/283 32/209/283
f 156/252/284 31/210/284 32/209/284
f 30/7/285 15/3/285 155/247/285
f 15/3/286 14/253/286 155/247/286
f 155/247/287 14/253/287 156/251/287
f 14/253/288 13/254/288 156/251/288
f 156/252/289 13/255/289 31/210/289
f 13/255/290 3/11/290 31/210/290
f 22/225/291 27/227/291 6/20/291
f 23/223/292 157/256/292 22/225/292
f 24/221/293 158/257/293 23/223/293
f 22/225/294 157/256/294 27/227/294
f 157/256/295 26/228/295 27/227/295
f 23/223/296 158/257/296 157/256/296
f 158/257/297 159/258/297 157/256/297
f 157/256/298 159/258/298 26/228/298
f 159/258/299 25/9/299 26/228/299
f 24/221/300 18/259/300 158/257/300
f 18/259/301 17/260/301 158/257/301
f 158/257/302 17/260/302 159/258/302
f 17/260/303 16/2/303 159/258/303
f 159/258/304 16/2/304 25/9/304
f 16/2/305 1/1/305 25/9/305
f 13/255/306 21/12/306 3/11/306
f 14/253/307 160/261/307 13/254/307
f 15/3/308 161/262/308 14/253/308
f 13/255/309 160/263/309 21/12/309
f 160/263/310 20/214/310 21/12/310
f 14/253/311 161/262/311 160/261/311
f 161/262/312 162/264/312 160/261/312
f 160/263/313 162/265/313 20/214/313
f 162/265/314 19/215/314 20/214/314
f 15/3/315 16/2/315 161/262/315
f 16/2/316 17/260/316 161/262/316
f 161/262/317 17/260/317 162/264/317
f 17/260/318 18/259/318 162/264/318
f 162/265/319 18/5/319 19/215/319
f 18/5/320 2/4/320 19/215/320
