# Blender 5.1.2
# www.blender.org
mtllib Rock_Flat.mtl
o Rock_Flat
v -0.027687 0.234693 0.063621
v -2.098678 0.615615 0.519927
v -0.585634 0.384582 -1.533875
v 1.040010 0.490790 -0.935354
v 0.961730 0.649023 0.470105
v -0.694331 0.702405 2.117023
v -1.606064 1.262969 -0.785064
v 0.427855 0.987768 -1.304537
v 1.312589 1.043678 -0.325181
v 0.464235 1.270869 1.215912
v -1.627164 1.486296 1.463423
v 0.039900 1.807438 -0.091684
v -0.432414 0.245561 -1.073726
v -0.251700 0.232766 -0.564148
v -0.118660 0.225128 -0.189395
v -0.403049 0.270789 0.149243
v -0.971022 0.346731 0.276913
v -1.732645 0.449514 0.448027
v -2.220448 0.442627 -0.039809
v -1.609371 0.376755 -0.681514
v -1.046576 0.379366 -1.177957
v -1.201684 0.643350 1.953082
v -1.587595 0.601829 1.479279
v -1.909314 0.607288 0.992692
v -0.154104 0.289980 0.451923
v -0.326402 0.388646 0.981909
v -0.566655 0.525099 1.720893
v 0.915921 0.297702 -0.809592
v 0.485169 0.259957 -0.410444
v 0.217784 0.213443 -0.161311
v -0.056274 0.378131 -1.437756
v 0.407417 0.396993 -1.261345
v 0.882163 0.385756 -1.249013
v 0.892228 0.430907 0.463956
v 0.612626 0.286127 0.352369
v 0.263297 0.246788 0.196176
v 1.289495 0.434616 -0.715820
v 1.306967 0.458640 -0.272024
v 1.372237 0.498123 0.190869
v 0.848073 0.604201 0.888272
v 0.468750 0.582927 1.379462
v -0.095070 0.639756 1.777157
v -1.787641 1.273727 1.265509
v -2.018953 1.072819 1.084479
v -2.226760 0.844146 0.855922
v -1.115701 0.923894 2.316754
v -1.201097 1.110559 1.822583
v -1.438527 1.298763 1.660901
v -1.365632 1.026077 -1.000094
v -1.087835 0.809137 -1.180572
v -0.873538 0.587808 -1.430604
v -2.294360 0.776702 0.215283
v -2.303185 0.960387 -0.177791
v -1.917453 1.119087 -0.516787
v 0.608990 0.854445 -1.264568
v 0.772695 0.729979 -1.172511
v 0.928499 0.608010 -1.072031
v -0.274998 0.567652 -1.563090
v 0.014543 0.712557 -1.678879
v 0.286489 0.865070 -1.629534
v 1.137093 0.929651 -0.106695
v 0.996038 0.843757 0.076888
v 1.109138 0.740072 0.298932
v 1.109017 0.634067 -0.785097
v 1.233416 0.760540 -0.662528
v 1.414015 0.901079 -0.543519
v 0.277537 1.193158 1.577521
v -0.016500 1.067768 1.904772
v -0.373465 0.897085 2.124247
v 0.919616 0.779904 0.673463
v 0.752318 0.927260 0.816452
v 0.607222 1.081361 0.994456
v -1.744908 1.480252 0.968627
v -1.837807 1.454720 0.383865
v -1.876497 1.399763 -0.261009
v -0.987306 1.198844 -1.034105
v -0.498212 1.179315 -1.463030
v 0.076819 1.072258 -1.435997
v 0.638836 1.004226 -1.038292
v 0.854811 1.019827 -0.795995
v 1.150438 1.042665 -0.598137
v 1.198375 1.114461 0.021485
v 0.846345 1.134748 0.359385
v 0.802294 1.261957 0.903010
v 0.059805 1.411226 1.527957
v -0.610724 1.584436 1.890221
v -1.168346 1.532182 1.654206
v -0.323109 1.715946 -0.247994
v -0.890138 1.729266 -0.510673
v -1.414848 1.528039 -0.728435
v -1.314777 1.656640 1.165500
v -0.936265 1.894425 0.802656
v -0.329907 1.771964 0.251172
v 0.155716 1.571115 -0.453483
v 0.284552 1.393350 -0.853178
v 0.372681 1.163836 -1.130105
v 0.481901 1.686361 -0.185548
v 0.793768 1.397519 -0.233758
v 1.248923 1.245390 -0.327983
v 0.183244 1.812475 0.309188
v 0.343374 1.712925 0.780061
v 0.432714 1.469917 1.083874
v -0.252411 1.832788 0.802841
v -0.863192 1.831298 1.489505
v -0.093559 1.665309 1.314629
v 0.736682 1.696993 0.242245
v 0.847829 1.493527 0.676574
v 0.929710 1.299134 0.101672
v 0.517051 1.379802 -0.506059
v 1.060775 1.275102 -0.692866
v 0.727290 1.241920 -0.988585
v -0.211874 1.582525 -0.748438
v -0.060006 1.322388 -1.190846
v -0.629865 1.391072 -0.923788
v -0.892222 1.809888 0.128657
v -1.421755 1.614912 -0.064484
v -1.399966 1.665526 0.590811
v -0.968285 1.332793 1.935073
v -0.697878 1.120428 2.141521
v -0.274001 1.265751 1.785101
v 0.761517 1.017786 0.553949
v 0.915194 0.881225 0.421147
v 0.994284 0.976717 0.223553
v 1.281386 0.886249 -0.901481
v 0.953432 0.751984 -0.871028
v 0.938339 0.869073 -1.125652
v -0.215476 0.915461 -1.502941
v -0.529067 0.757817 -1.457111
v -0.846557 0.978203 -1.384037
v -2.354292 1.250524 0.136762
v -2.475061 1.041736 0.571236
v -2.055887 1.268939 0.789266
v 0.479925 0.988865 1.321767
v 0.221903 0.841385 1.547767
v 0.697970 0.797150 1.141112
v 1.382337 0.788059 -0.319038
v 1.361603 0.664078 -0.079094
v 1.294538 0.633412 -0.496979
v 0.437689 0.727530 -1.343107
v 0.692888 0.554217 -1.384712
v 0.234380 0.548109 -1.526996
v -1.862262 0.874373 -0.856959
v -1.444283 0.615686 -1.050611
v -2.267608 0.656036 -0.509842
v -1.589652 1.090688 1.452258
v -1.916700 0.868076 1.348438
v -1.553129 0.895345 1.863167
v 0.072214 0.445430 1.360814
v 0.182746 0.318604 0.635351
v 0.571264 0.372983 0.844330
v 0.964417 0.321571 0.049471
v 0.501866 0.243479 -0.062461
v 0.965007 0.278697 -0.402680
v 0.474200 0.301239 -0.816986
v 0.155875 0.207797 -0.498473
v 0.069195 0.213618 -1.003361
v -0.945625 0.481417 1.282295
v -1.330360 0.456605 0.863603
v -0.656451 0.354721 0.635893
v -0.893151 0.281480 -0.719594
v -0.613754 0.269323 -0.210340
v -1.351061 0.356706 -0.157067
vn -0.0805 -0.9945 0.0665
vn -0.3865 -0.9118 0.1388
vn -0.0390 -0.9979 0.0517
vn -0.0010 -0.9957 0.0930
vn -0.0201 -0.9907 0.1345
vn -0.6455 -0.7232 0.2458
vn -0.5528 -0.4162 -0.7220
vn 0.8398 0.2202 -0.4963
vn 0.6114 0.3472 0.7111
vn 0.3469 -0.5986 0.7220
vn -0.7549 -0.6391 0.1469
vn -0.2056 0.1959 -0.9588
vn 0.8283 0.1631 -0.5359
vn 0.7835 -0.4359 0.4428
vn 0.2177 -0.3919 0.8939
vn -0.6548 0.5767 -0.4885
vn 0.3909 0.7067 -0.5897
vn 0.8308 0.2554 -0.4945
vn 0.5921 0.5085 0.6252
vn -0.2183 0.9281 0.3018
vn -0.0805 0.9966 0.0163
vn 0.0891 0.9886 -0.1215
vn -0.4365 0.8905 0.1283
vn -0.0671 0.9927 -0.1000
vn 0.2004 0.9701 0.1369
vn 0.0894 0.9926 0.0817
vn 0.2546 0.9397 0.2285
vn 0.2002 0.9478 0.2480
vn 0.4789 0.7488 0.4581
vn -0.5485 0.7561 0.3569
vn -0.3351 0.6932 0.6381
vn 0.2757 0.8862 0.3723
vn 0.4656 0.7168 0.5190
vn 0.4859 0.7152 0.5025
vn 0.6318 0.4955 0.5961
vn 0.2433 0.9649 -0.0991
vn 0.2176 0.9673 0.1305
vn 0.4307 0.7623 0.4831
vn 0.1867 0.9731 -0.1354
vn 0.5984 0.7085 -0.3740
vn 0.4311 0.8544 0.2900
vn 0.8964 0.4427 -0.0220
vn 0.8510 0.4845 -0.2028
vn 0.3392 0.9309 0.1356
vn 0.5913 0.5014 0.6317
vn 0.9902 -0.0946 0.1024
vn 0.9638 -0.1788 0.1977
vn 0.5755 0.5923 0.5640
vn 0.5992 0.7174 0.3554
vn 0.9238 0.2950 0.2441
vn 0.1231 0.8484 -0.5148
vn 0.5129 0.6478 -0.5633
vn 0.3015 0.9503 -0.0781
vn 0.2811 0.7087 -0.6471
vn 0.4243 0.8702 -0.2503
vn 0.1229 0.9744 -0.1883
vn 0.1074 0.9673 -0.2296
vn 0.2787 0.9486 -0.1496
vn 0.0765 0.7795 -0.6217
vn 0.8826 0.1603 -0.4420
vn 0.5586 -0.1191 -0.8209
vn 0.6571 -0.2418 -0.7139
vn 0.7436 -0.1400 -0.6538
vn 0.3582 0.0615 -0.9316
vn 0.5664 0.6628 -0.4898
vn 0.0216 0.8402 -0.5419
vn 0.2797 0.9075 -0.3135
vn 0.3567 0.7719 -0.5262
vn 0.1990 0.9570 -0.2109
vn 0.1286 0.9650 -0.2287
vn 0.2412 0.8705 -0.4290
vn -0.1530 0.8280 -0.5394
vn -0.0680 0.7506 -0.6573
vn -0.0265 0.7652 -0.6432
vn 0.3527 0.7462 -0.5645
vn 0.1678 0.7353 -0.6566
vn -0.0662 0.9232 -0.3787
vn -0.3289 0.8489 -0.4137
vn -0.0881 0.6140 -0.7844
vn -0.3051 0.4043 -0.8622
vn -0.1972 0.9739 -0.1120
vn 0.0809 0.9889 -0.1244
vn -0.3090 0.9426 -0.1265
vn 0.0907 0.9898 -0.1098
vn 0.0924 0.9887 -0.1180
vn -0.3041 0.9450 -0.1202
vn -0.3248 0.9437 -0.0621
vn -0.3863 0.9118 -0.1396
vn -0.4715 0.8779 0.0835
vn -0.3801 0.9166 -0.1239
vn -0.4082 0.9113 -0.0532
vn -0.4113 0.9098 -0.0566
vn -0.4457 0.8946 0.0318
vn -0.4073 0.9102 0.0745
vn -0.4118 0.9071 0.0869
vn -0.3795 0.4622 0.8015
vn -0.5065 0.0970 0.8567
vn -0.2583 0.8881 0.3801
vn -0.4519 0.5433 0.7076
vn -0.3531 0.6257 0.6956
vn -0.5323 0.1346 0.8358
vn 0.1992 0.8016 0.5637
vn 0.1997 -0.1102 0.9736
vn 0.5108 0.2705 0.8161
vn 0.2500 0.2917 0.9233
vn 0.3275 0.4098 0.8513
vn 0.2733 0.7324 0.6236
vn 0.3153 0.7564 0.5731
vn 0.3587 0.5324 0.7668
vn 0.5806 0.6811 0.4461
vn 0.6355 -0.3340 0.6961
vn 0.8216 0.5294 0.2114
vn 0.7480 0.6203 0.2360
vn 0.7198 -0.6055 0.3395
vn 0.9079 -0.3859 0.1639
vn 0.7520 0.6146 0.2383
vn 0.7754 0.3883 0.4980
vn 0.7979 0.2953 0.5254
vn 0.6931 0.0297 0.7203
vn 0.6712 0.6919 0.2661
vn 0.6109 0.7896 0.0575
vn 0.9331 -0.2607 0.2475
vn 0.7997 -0.4401 0.4085
vn 0.7507 -0.5261 0.3996
vn 0.7809 -0.5095 0.3613
vn 0.4989 0.8133 -0.2994
vn 0.6866 -0.6911 -0.2258
vn 0.5823 0.1927 -0.7898
vn 0.4966 0.8400 -0.2188
vn 0.1878 0.9037 -0.3849
vn 0.3174 -0.8640 -0.3908
vn 0.3122 -0.8560 -0.4121
vn 0.1942 0.9098 -0.3669
vn 0.3064 0.8927 -0.3306
vn 0.6827 0.5513 -0.4796
vn 0.7119 0.5262 -0.4652
vn 0.6588 -0.6679 -0.3462
vn 0.3897 -0.1584 -0.9072
vn 0.2000 0.8047 -0.5590
vn 0.5820 0.6406 -0.5008
vn 0.3678 0.8058 -0.4642
vn -0.1540 0.5419 -0.8262
vn -0.3768 0.0128 -0.9262
vn -0.1393 0.5970 -0.7900
vn 0.0907 0.2433 -0.9657
vn -0.3206 0.3864 -0.8648
vn -0.1781 0.0689 -0.9816
vn -0.1902 -0.0555 -0.9802
vn -0.4984 0.6288 -0.5969
vn -0.2004 0.2588 -0.9449
vn -0.3299 0.5486 -0.7683
vn -0.4400 -0.3613 -0.8221
vn -0.5976 -0.1039 -0.7950
vn -0.3769 0.7076 -0.5977
vn -0.2882 0.4665 -0.8362
vn -0.6769 0.5473 -0.4922
vn -0.6824 0.4787 -0.5524
vn -0.9037 -0.3953 -0.1644
vn -0.6220 0.5750 -0.5314
vn -0.3423 0.9377 -0.0594
vn -0.9696 0.0798 -0.2312
vn -0.5537 0.8002 0.2306
vn -0.4325 0.8849 0.1728
vn -0.5835 0.8101 0.0573
vn -0.7138 -0.6846 0.1474
vn -0.7479 0.0163 0.6636
vn -0.5987 0.6306 0.4938
vn -0.7598 0.4937 0.4230
vn -0.6579 0.6593 0.3639
vn -0.8624 0.4653 0.1995
vn 0.8742 0.1056 0.4740
vn 0.7550 -0.0685 0.6521
vn 0.6123 -0.4158 0.6725
vn 0.8505 0.3165 0.4202
vn 0.8508 0.3158 0.4201
vn 0.7165 -0.2639 0.6458
vn 0.6506 0.0248 0.7590
vn 0.7647 0.5437 0.3459
vn 0.7689 0.5386 0.3446
vn 0.6641 -0.2376 0.7089
vn 0.5776 0.0203 0.8160
vn 0.6508 0.1350 0.7472
vn 0.7831 -0.1734 0.5972
vn 0.8958 0.1477 0.4191
vn 0.9639 -0.0831 0.2531
vn 0.8140 -0.2346 0.5314
vn 0.7112 0.2423 0.6599
vn 0.4877 0.8595 0.1529
vn 0.6928 0.6001 0.3999
vn 0.6908 -0.6803 -0.2450
vn 0.5386 0.7286 0.4230
vn 0.9160 -0.3832 -0.1189
vn 0.9173 -0.0696 -0.3921
vn 0.8047 -0.2887 -0.5188
vn 0.7079 0.6138 0.3494
vn 0.9817 -0.1425 -0.1263
vn 0.9814 -0.1215 -0.1486
vn 0.9990 0.0191 -0.0404
vn 0.7298 0.4976 -0.4688
vn 0.6594 0.3692 -0.6549
vn 0.5830 0.6432 -0.4964
vn 0.4533 -0.0615 -0.8892
vn 0.6972 0.4010 -0.5943
vn 0.6397 -0.5045 -0.5799
vn 0.4777 -0.6666 -0.5723
vn 0.3376 0.6586 -0.6725
vn 0.2413 0.5477 -0.8011
vn 0.6161 0.1023 -0.7810
vn 0.0281 -0.6577 -0.7528
vn 0.7260 0.3294 -0.6037
vn 0.0055 -0.6235 -0.7818
vn 0.1893 -0.7954 -0.5758
vn 0.2589 -0.7574 -0.5995
vn 0.0407 -0.5181 -0.8544
vn 0.1580 -0.4113 -0.8977
vn -0.6571 0.0171 -0.7536
vn -0.3469 0.2961 -0.8899
vn -0.4960 0.3940 -0.7738
vn -0.3862 0.7179 -0.5791
vn -0.6678 0.5486 -0.5030
vn -0.3788 0.0784 -0.9222
vn -0.5377 -0.2711 -0.7984
vn -0.7049 0.4837 -0.5189
vn -0.9954 -0.0932 -0.0212
vn -0.5072 -0.4613 -0.7280
vn -0.5391 -0.5763 -0.6142
vn -0.4381 -0.6525 -0.6183
vn -0.4406 -0.8332 -0.3341
vn -0.9764 -0.2160 -0.0001
vn -0.8460 -0.4289 0.3166
vn -0.7469 -0.0533 0.6628
vn -0.6507 0.0677 0.7563
vn -0.8262 0.2427 0.5084
vn -0.7397 -0.1256 0.6611
vn -0.6654 -0.2291 0.7105
vn -0.5632 0.5329 0.6315
vn -0.5997 0.7008 0.3864
vn -0.4385 0.7960 0.4174
vn -0.4494 0.8073 0.3826
vn -0.6511 -0.6185 0.4399
vn -0.6647 -0.6090 0.4327
vn -0.6570 -0.5693 0.4942
vn -0.5802 -0.6211 0.5270
vn -0.5666 -0.5822 0.5831
vn -0.1113 -0.7740 0.6234
vn 0.1609 -0.8805 0.4459
vn -0.0249 -0.9845 0.1737
vn -0.0137 -0.9838 0.1787
vn 0.1556 -0.8697 0.4684
vn 0.2642 -0.8289 0.4931
vn -0.0204 -0.9854 0.1692
vn 0.0417 -0.9831 0.1782
vn 0.2840 -0.8728 0.3968
vn 0.5515 -0.7352 0.3941
vn -0.0037 -0.9870 0.1607
vn 0.0360 -0.9852 0.1677
vn 0.0423 -0.9833 0.1772
vn 0.3898 -0.9007 0.1918
vn 0.5631 -0.7429 0.3620
vn 0.9277 -0.3018 0.2198
vn 0.5054 -0.1848 0.8429
vn 0.3439 -0.8915 0.2950
vn 0.0752 -0.9938 0.0821
vn 0.2932 -0.9106 0.2913
vn 0.3903 -0.9204 0.0235
vn 0.1518 -0.9865 0.0609
vn 0.1437 -0.9852 0.0936
vn 0.4382 -0.8948 0.0854
vn 0.4564 -0.8893 0.0302
vn 0.0762 -0.9936 0.0830
vn 0.1232 -0.9910 -0.0528
vn 0.0398 -0.9980 -0.0492
vn 0.0398 -0.9979 -0.0514
vn 0.3620 -0.9281 -0.0870
vn 0.4019 -0.6669 -0.6274
vn 0.7691 -0.6127 -0.1819
vn -0.0063 -0.9949 -0.1009
vn 0.1598 -0.9871 -0.0128
vn -0.0046 -0.9806 -0.1961
vn -0.0177 -0.9780 -0.2081
vn 0.1827 -0.9776 -0.1042
vn 0.2337 -0.9710 -0.0513
vn 0.3113 -0.9183 -0.2447
vn 0.1867 -0.8997 -0.3947
vn -0.0367 -0.9991 0.0235
vn -0.0614 -0.9981 0.0014
vn -0.0610 -0.9981 -0.0010
vn -0.0632 -0.9980 -0.0027
vn -0.0103 -0.9361 -0.3515
vn 0.0432 -0.9523 -0.3021
vn -0.0234 -0.9153 0.4021
vn -0.1252 -0.9743 0.1874
vn -0.2212 -0.9658 0.1354
vn -0.1110 -0.9749 0.1930
vn -0.0704 -0.9848 0.1589
vn -0.1289 -0.9759 0.1763
vn -0.0985 -0.9840 0.1488
vn -0.0688 -0.9844 0.1622
vn -0.0678 -0.9846 0.1612
vn -0.2017 -0.9563 0.2116
vn -0.1063 -0.9871 0.1198
vn -0.1094 -0.9870 0.1178
vn -0.1062 -0.9877 0.1150
vn -0.0803 -0.9884 0.1287
vn -0.0681 -0.9906 0.1189
vn -0.1691 -0.9577 -0.2330
vn -0.0762 -0.9971 0.0020
vn -0.0894 -0.9959 0.0114
vn -0.1871 -0.9716 -0.1449
vn -0.1386 -0.9770 -0.1623
vn -0.0806 -0.9965 0.0204
vn -0.1148 -0.9926 0.0393
vn -0.1304 -0.9911 0.0264
vn -0.0970 -0.9952 0.0098
vn -0.0912 -0.9942 0.0575
vn -0.1162 -0.9906 0.0721
vn -0.1120 -0.9909 0.0753
vn -0.1159 -0.9901 0.0788
vn -0.0847 -0.9915 0.0987
vn -0.3313 -0.8787 0.3436
vt 0.240027 0.209119
vt 0.220370 0.256417
vt 0.205656 0.199284
vt 0.131153 0.469630
vt 0.150623 0.423829
vt 0.196691 0.485799
vt 0.234711 0.165106
vt 0.276973 0.188047
vt 0.272420 0.253097
vt 0.159038 0.510498
vt 0.973753 0.117400
vt 0.974950 0.193165
vt 0.946567 0.157802
vt 0.585324 0.936056
vt 0.590503 0.979273
vt 0.566057 0.950847
vt 0.598410 0.748399
vt 0.613668 0.789381
vt 0.583203 0.768857
vt 0.412738 0.442254
vt 0.422211 0.350976
vt 0.439831 0.409050
vt 0.084330 0.467845
vt 0.949989 0.078523
vt 0.570670 0.913085
vt 0.586029 0.718565
vt 0.403136 0.504177
vt 0.858018 0.282758
vt 0.841478 0.345456
vt 0.823464 0.263132
vt 0.702807 0.055806
vt 0.745757 0.079072
vt 0.688189 0.078119
vt 0.529548 0.843460
vt 0.522111 0.878825
vt 0.502781 0.838803
vt 0.532520 0.634846
vt 0.528007 0.676636
vt 0.503141 0.647207
vt 0.611142 0.508591
vt 0.550813 0.481028
vt 0.609460 0.452566
vt 0.608085 0.275063
vt 0.555840 0.230255
vt 0.607642 0.208396
vt 0.607129 0.384747
vt 0.546725 0.317280
vt 0.534923 0.438581
vt 0.497320 0.255962
vt 0.485374 0.346274
vt 0.463506 0.272603
vt 0.775482 0.646109
vt 0.729573 0.603478
vt 0.765750 0.569407
vt 0.707529 0.529993
vt 0.477144 0.447876
vt 0.454761 0.348461
vt 0.519471 0.589845
vt 0.578937 0.155782
vt 0.514449 0.169168
vt 0.465428 0.195641
vt 0.559997 0.118774
vt 0.492527 0.700699
vt 0.504389 0.780707
vt 0.454761 0.752294
vt 0.482605 0.821878
vt 0.516762 0.134740
vt 0.530615 0.064609
vt 0.531642 0.750850
vt 0.528086 0.796210
vt 0.503229 0.099872
vt 0.635899 0.162930
vt 0.611480 0.121400
vt 0.582420 0.050618
vt 0.665782 0.113227
vt 0.641496 0.056599
vt 0.488947 0.885383
vt 0.518586 0.904635
vt 0.484176 0.924156
vt 0.513492 0.936239
vt 0.264150 0.683392
vt 0.235282 0.697463
vt 0.235282 0.662908
vt 0.657825 0.059072
vt 0.656724 0.229317
vt 0.697288 0.172650
vt 0.730488 0.116261
vt 0.732835 0.261488
vt 0.754650 0.196520
vt 0.804026 0.291951
vt 0.798325 0.133804
vt 0.800289 0.220269
vt 0.842543 0.157918
vt 0.866830 0.194312
vt 0.669812 0.319495
vt 0.738953 0.352681
vt 0.672693 0.409556
vt 0.802021 0.378084
vt 0.735190 0.432402
vt 0.669771 0.475811
vt 0.709019 0.642025
vt 0.747180 0.663858
vt 0.671472 0.618180
vt 0.685045 0.575137
vt 0.007465 0.563533
vt 0.057843 0.531028
vt 0.050444 0.609641
vt 0.641268 0.546239
vt 0.075094 0.678842
vt 0.096408 0.609452
vt 0.109779 0.702834
vt 0.666907 0.523521
vt 0.310945 0.677962
vt 0.279080 0.699749
vt 0.279080 0.643986
vt 0.370301 0.708497
vt 0.370301 0.651772
vt 0.399776 0.675852
vt 0.398540 0.629619
vt 0.072773 0.582945
vt 0.096992 0.531028
vt 0.109779 0.555970
vt 0.550393 0.589100
vt 0.552692 0.668672
vt 0.569311 0.695966
vt 0.551159 0.728091
vt 0.566637 0.749069
vt 0.549816 0.772733
vt 0.236975 0.618812
vt 0.264150 0.603562
vt 0.247978 0.647978
vt 0.563617 0.795128
vt 0.548745 0.817320
vt 0.541896 0.026606
vt 0.568694 0.048596
vt 0.527671 0.057135
vt 0.148592 0.579353
vt 0.124709 0.599602
vt 0.139955 0.551177
vt 0.552294 0.921138
vt 0.557852 0.894252
vt 0.588723 0.007465
vt 0.614730 0.059699
vt 0.161009 0.624071
vt 0.142435 0.651159
vt 0.641477 0.020903
vt 0.546797 0.960703
vt 0.155376 0.670545
vt 0.142275 0.702953
vt 0.124709 0.716838
vt 0.124709 0.685475
vt 0.684698 0.040647
vt 0.748844 0.039677
vt 0.930881 0.037158
vt 0.904171 0.074846
vt 0.911424 0.007465
vt 0.924622 0.115036
vt 0.884264 0.043737
vt 0.868673 0.110953
vt 0.894963 0.157227
vt 0.917758 0.197899
vt 0.889099 0.241564
vt 0.355371 0.531028
vt 0.355371 0.617045
vt 0.326194 0.575068
vt 0.877589 0.335570
vt 0.899266 0.401375
vt 0.861947 0.425678
vt 0.925353 0.423113
vt 0.891261 0.465321
vt 0.808534 0.459411
vt 0.780372 0.508591
vt 0.718227 0.488687
vt 0.110544 0.516098
vt 0.721801 0.801864
vt 0.730308 0.752373
vt 0.767626 0.835197
vt 0.770872 0.766355
vt 0.737580 0.705676
vt 0.777320 0.711577
vt 0.573041 0.548783
vt 0.572002 0.627887
vt 0.598619 0.523521
vt 0.595276 0.601410
vt 0.593884 0.656587
vt 0.625365 0.575684
vt 0.626338 0.630174
vt 0.613783 0.694612
vt 0.543434 0.875656
vt 0.563469 0.849000
vt 0.236975 0.557766
vt 0.161009 0.531028
vt 0.250292 0.531028
vt 0.585373 0.820611
vt 0.578827 0.875827
vt 0.607188 0.850696
vt 0.599428 0.909237
vt 0.140535 0.733120
vt 0.564124 0.992535
vt 0.023963 0.743719
vt 0.007465 0.734567
vt 0.023963 0.695395
vt 0.342601 0.631975
vt 0.342601 0.703797
vt 0.326194 0.670543
vt 0.415117 0.531028
vt 0.437482 0.555067
vt 0.415117 0.580840
vt 0.426762 0.617873
vt 0.198844 0.693356
vt 0.175939 0.669395
vt 0.198844 0.649120
vt 0.953850 0.019676
vt 0.437780 0.632803
vt 0.437780 0.688943
vt 0.415117 0.648625
vt 0.142340 0.020529
vt 0.132326 0.060200
vt 0.091387 0.058950
vt 0.077203 0.096479
vt 0.976173 0.059639
vt 0.908774 0.309289
vt 0.943229 0.248095
vt 0.279080 0.531028
vt 0.311264 0.591800
vt 0.279080 0.629056
vt 0.938365 0.377917
vt 0.217921 0.531028
vt 0.182043 0.582458
vt 0.175939 0.535027
vt 0.976173 0.289256
vt 0.038056 0.322666
vt 0.060187 0.438627
vt 0.007465 0.408229
vt 0.222045 0.589940
vt 0.175939 0.634190
vt 0.700296 0.683479
vt 0.688725 0.734917
vt 0.653361 0.661045
vt 0.057843 0.680465
vt 0.019697 0.646295
vt 0.236305 0.515317
vt 0.677779 0.774943
vt 0.641268 0.708978
vt 0.274012 0.488772
vt 0.355279 0.484033
vt 0.320141 0.516098
vt 0.370301 0.531028
vt 0.400187 0.572518
vt 0.370301 0.614689
vt 0.378718 0.396995
vt 0.316819 0.313198
vt 0.388965 0.299802
vt 0.318523 0.231092
vt 0.422748 0.259065
vt 0.371573 0.205605
vt 0.399463 0.180162
vt 0.321190 0.162632
vt 0.355954 0.141748
vt 0.626338 0.754354
vt 0.316142 0.101354
vt 0.267622 0.142246
vt 0.364299 0.069086
vt 0.309111 0.040080
vt 0.267198 0.066059
vt 0.259800 0.007465
vt 0.228980 0.117151
vt 0.219716 0.039904
vt 0.217205 0.017619
vt 0.612882 0.924056
vt 0.184658 0.087010
vt 0.193565 0.145631
vt 0.170423 0.009879
vt 0.132521 0.115881
vt 0.155037 0.184630
vt 0.086240 0.164694
vt 0.025811 0.146178
vt 0.301765 0.403703
vt 0.226643 0.412659
vt 0.253701 0.321845
vt 0.190577 0.327932
vt 0.028313 0.223476
vt 0.088863 0.242012
vt 0.165290 0.251278
vt 0.114425 0.335350
s 0
usemtl Rock_OBJ_Material
f 1/1/1 16/2/1 15/3/1
f 2/4/2 18/5/2 24/6/2
f 1/1/3 15/3/3 30/7/3
f 1/1/4 30/7/4 36/8/4
f 1/1/5 36/8/5 25/9/5
f 2/4/6 24/6/6 45/10/6
f 3/11/7 21/12/7 51/13/7
f 4/14/8 33/15/8 57/16/8
f 5/17/9 39/18/9 63/19/9
f 6/20/10 42/21/10 69/22/10
f 2/4/11 45/10/11 52/23/11
f 3/11/12 51/13/12 58/24/12
f 4/14/13 57/16/13 64/25/13
f 5/17/14 63/19/14 70/26/14
f 6/20/15 69/22/15 46/27/15
f 7/28/16 75/29/16 90/30/16
f 8/31/17 78/32/17 96/33/17
f 9/34/18 81/35/18 99/36/18
f 10/37/19 84/38/19 102/39/19
f 11/40/20 87/41/20 91/42/20
f 93/43/21 100/44/21 12/45/21
f 92/46/22 103/47/22 93/43/22
f 91/42/23 104/48/23 92/46/23
f 93/43/24 103/47/24 100/44/24
f 103/47/25 101/49/25 100/44/25
f 92/46/26 104/48/26 103/47/26
f 104/48/27 105/50/27 103/47/27
f 103/47/28 105/50/28 101/49/28
f 105/50/29 102/51/29 101/49/29
f 91/52/30 87/53/30 104/54/30
f 87/53/31 86/55/31 104/54/31
f 104/48/32 86/56/32 105/50/32
f 86/56/33 85/57/33 105/50/33
f 105/50/34 85/57/34 102/51/34
f 85/58/35 10/37/35 102/39/35
f 100/44/36 97/59/36 12/45/36
f 101/49/37 106/60/37 100/44/37
f 102/51/38 107/61/38 101/49/38
f 100/44/39 106/60/39 97/59/39
f 106/60/40 98/62/40 97/59/40
f 101/49/41 107/61/41 106/60/41
f 107/63/42 108/64/42 106/65/42
f 106/65/43 108/64/43 98/66/43
f 108/67/44 99/68/44 98/62/44
f 102/39/45 84/38/45 107/63/45
f 84/38/46 83/69/46 107/63/46
f 107/63/47 83/69/47 108/64/47
f 83/69/48 82/70/48 108/64/48
f 108/67/49 82/71/49 99/68/49
f 82/70/50 9/34/50 99/36/50
f 97/59/51 94/72/51 12/45/51
f 98/62/52 109/73/52 97/59/52
f 99/68/53 110/74/53 98/62/53
f 97/59/54 109/73/54 94/72/54
f 109/73/55 95/75/55 94/72/55
f 98/62/56 110/74/56 109/73/56
f 110/74/57 111/76/57 109/73/57
f 109/73/58 111/76/58 95/75/58
f 111/76/59 96/33/59 95/75/59
f 99/36/60 81/35/60 110/77/60
f 81/35/61 80/78/61 110/77/61
f 110/77/62 80/78/62 111/79/62
f 80/78/63 79/80/63 111/79/63
f 111/81/64 79/82/64 96/83/64
f 79/84/65 8/31/65 96/33/65
f 94/72/66 88/85/66 12/45/66
f 95/75/67 112/86/67 94/72/67
f 96/33/68 113/87/68 95/75/68
f 94/72/69 112/86/69 88/85/69
f 112/86/70 89/88/70 88/85/70
f 95/75/71 113/87/71 112/86/71
f 113/87/72 114/89/72 112/86/72
f 112/86/73 114/89/73 89/88/73
f 114/89/74 90/90/74 89/88/74
f 96/33/75 78/32/75 113/87/75
f 78/32/76 77/91/76 113/87/76
f 113/87/77 77/91/77 114/89/77
f 77/91/78 76/92/78 114/89/78
f 114/93/79 76/94/79 90/30/79
f 76/94/80 7/28/80 90/30/80
f 88/85/81 93/43/81 12/45/81
f 89/88/82 115/95/82 88/85/82
f 90/90/83 116/96/83 89/88/83
f 88/85/84 115/95/84 93/43/84
f 115/95/85 92/46/85 93/43/85
f 89/88/86 116/96/86 115/95/86
f 116/96/87 117/97/87 115/95/87
f 115/95/88 117/97/88 92/46/88
f 117/97/89 91/42/89 92/46/89
f 90/90/90 75/98/90 116/96/90
f 75/98/91 74/99/91 116/96/91
f 116/96/92 74/99/92 117/97/92
f 74/99/93 73/100/93 117/97/93
f 117/97/94 73/100/94 91/42/94
f 73/100/95 11/40/95 91/42/95
f 48/101/96 87/53/96 11/102/96
f 47/103/97 118/104/97 48/101/97
f 46/105/98 119/106/98 47/107/98
f 48/101/99 118/104/99 87/53/99
f 118/104/100 86/55/100 87/53/100
f 47/103/101 119/108/101 118/104/101
f 119/109/102 120/110/102 118/111/102
f 118/104/103 120/112/103 86/55/103
f 120/113/104 85/114/104 86/115/104
f 46/116/105 69/117/105 119/118/105
f 69/117/106 68/119/106 119/118/106
f 119/109/107 68/120/107 120/110/107
f 68/120/108 67/121/108 120/110/108
f 120/110/109 67/121/109 85/122/109
f 67/123/110 10/37/110 85/58/110
f 72/124/111 84/38/111 10/37/111
f 71/125/112 121/126/112 72/124/112
f 70/26/113 122/127/113 71/125/113
f 72/124/114 121/126/114 84/38/114
f 121/126/115 83/69/115 84/38/115
f 71/125/116 122/127/116 121/126/116
f 122/127/117 123/128/117 121/126/117
f 121/126/118 123/128/118 83/69/118
f 123/128/119 82/70/119 83/69/119
f 70/26/120 63/19/120 122/127/120
f 63/129/121 62/130/121 122/131/121
f 122/127/122 62/132/122 123/128/122
f 62/132/123 61/133/123 123/128/123
f 123/128/124 61/133/124 82/70/124
f 61/133/125 9/34/125 82/70/125
f 66/134/126 81/135/126 9/136/126
f 65/137/127 124/138/127 66/139/127
f 64/25/128 125/140/128 65/141/128
f 66/134/129 124/142/129 81/135/129
f 124/142/130 80/143/130 81/135/130
f 65/137/131 125/144/131 124/138/131
f 125/144/132 126/145/132 124/138/132
f 124/142/133 126/146/133 80/143/133
f 126/146/134 79/84/134 80/143/134
f 64/25/135 57/16/135 125/140/135
f 57/16/136 56/147/136 125/140/136
f 125/144/137 56/148/137 126/145/137
f 56/149/138 55/150/138 126/151/138
f 126/146/139 55/152/139 79/84/139
f 55/152/140 8/31/140 79/84/140
f 60/153/141 78/32/141 8/31/141
f 59/154/142 127/155/142 60/156/142
f 58/24/143 128/157/143 59/154/143
f 60/156/144 127/155/144 78/158/144
f 127/155/145 77/159/145 78/158/145
f 59/154/146 128/157/146 127/155/146
f 128/157/147 129/160/147 127/155/147
f 127/155/148 129/160/148 77/159/148
f 129/160/149 76/94/149 77/159/149
f 58/24/150 51/13/150 128/157/150
f 51/13/151 50/161/151 128/157/151
f 128/157/152 50/161/152 129/160/152
f 50/161/153 49/162/153 129/160/153
f 129/163/154 49/164/154 76/165/154
f 49/162/155 7/28/155 76/94/155
f 54/166/156 75/29/156 7/28/156
f 53/167/157 130/168/157 54/166/157
f 52/169/158 131/170/158 53/167/158
f 54/166/159 130/168/159 75/29/159
f 130/171/160 74/99/160 75/98/160
f 53/167/161 131/170/161 130/168/161
f 131/172/162 132/173/162 130/171/162
f 130/171/163 132/173/163 74/99/163
f 132/173/164 73/100/164 74/99/164
f 52/23/165 45/10/165 131/174/165
f 45/175/166 44/176/166 131/177/166
f 131/177/167 44/176/167 132/178/167
f 44/176/168 43/179/168 132/178/168
f 132/178/169 43/179/169 73/180/169
f 43/179/170 11/102/170 73/180/170
f 67/123/171 72/124/171 10/37/171
f 68/181/172 133/182/172 67/123/172
f 69/183/173 134/184/173 68/181/173
f 67/123/174 133/182/174 72/124/174
f 133/182/175 71/125/175 72/124/175
f 68/181/176 134/184/176 133/182/176
f 134/184/177 135/185/177 133/182/177
f 133/182/178 135/185/178 71/125/178
f 135/185/179 70/26/179 71/125/179
f 69/183/180 42/186/180 134/184/180
f 42/186/181 41/187/181 134/184/181
f 134/184/182 41/187/182 135/185/182
f 41/187/183 40/188/183 135/185/183
f 135/185/184 40/188/184 70/26/184
f 40/188/185 5/17/185 70/26/185
f 61/133/186 66/189/186 9/34/186
f 62/132/187 136/190/187 61/133/187
f 63/129/188 137/191/188 62/130/188
f 61/133/189 136/190/189 66/189/189
f 136/192/190 65/137/190 66/139/190
f 62/130/191 137/191/191 136/193/191
f 137/194/192 138/195/192 136/190/192
f 136/190/193 138/195/193 65/141/193
f 138/195/194 64/25/194 65/141/194
f 63/19/195 39/18/195 137/194/195
f 39/18/196 38/196/196 137/194/196
f 137/194/197 38/196/197 138/195/197
f 38/196/198 37/197/198 138/195/198
f 138/195/199 37/197/199 64/25/199
f 37/197/200 4/14/200 64/25/200
f 55/152/201 60/153/201 8/31/201
f 56/149/202 139/198/202 55/150/202
f 57/16/203 140/199/203 56/147/203
f 55/200/204 139/201/204 60/202/204
f 139/203/205 59/204/205 60/205/205
f 56/206/206 140/207/206 139/208/206
f 140/207/207 141/209/207 139/208/207
f 139/210/208 141/211/208 59/212/208
f 141/213/209 58/24/209 59/154/209
f 57/16/210 33/15/210 140/199/210
f 33/214/211 32/215/211 140/216/211
f 140/217/212 32/218/212 141/219/212
f 32/218/213 31/220/213 141/219/213
f 141/213/214 31/221/214 58/24/214
f 31/221/215 3/11/215 58/24/215
f 49/162/216 54/166/216 7/28/216
f 50/161/217 142/222/217 49/162/217
f 51/13/218 143/223/218 50/161/218
f 49/224/219 142/225/219 54/226/219
f 142/222/220 53/167/220 54/166/220
f 50/161/221 143/223/221 142/222/221
f 143/223/222 144/227/222 142/222/222
f 142/222/223 144/227/223 53/167/223
f 144/228/224 52/229/224 53/230/224
f 51/13/225 21/12/225 143/223/225
f 21/12/226 20/231/226 143/223/226
f 143/223/227 20/231/227 144/227/227
f 20/232/228 19/233/228 144/234/228
f 144/228/229 19/235/229 52/229/229
f 19/235/230 2/236/230 52/229/230
f 43/179/231 48/101/231 11/102/231
f 44/176/232 145/237/232 43/179/232
f 45/175/233 146/238/233 44/176/233
f 43/179/234 145/237/234 48/101/234
f 145/237/235 47/103/235 48/101/235
f 44/176/236 146/238/236 145/237/236
f 146/238/237 147/239/237 145/237/237
f 145/240/238 147/241/238 47/107/238
f 147/241/239 46/105/239 47/107/239
f 45/10/240 24/6/240 146/242/240
f 24/243/241 23/244/241 146/238/241
f 146/238/242 23/244/242 147/239/242
f 23/245/243 22/246/243 147/247/243
f 147/248/244 22/249/244 46/250/244
f 22/246/245 6/20/245 46/27/245
f 27/251/246 42/21/246 6/20/246
f 26/252/247 148/253/247 27/251/247
f 25/9/248 149/254/248 26/252/248
f 27/251/249 148/253/249 42/21/249
f 148/253/250 41/255/250 42/21/250
f 26/252/251 149/254/251 148/253/251
f 149/254/252 150/256/252 148/253/252
f 148/253/253 150/256/253 41/255/253
f 150/256/254 40/257/254 41/255/254
f 25/9/255 36/8/255 149/254/255
f 36/8/256 35/258/256 149/254/256
f 149/254/257 35/258/257 150/256/257
f 35/258/258 34/259/258 150/256/258
f 150/256/259 34/259/259 40/257/259
f 34/260/260 5/17/260 40/188/260
f 34/260/261 39/18/261 5/17/261
f 35/258/262 151/261/262 34/259/262
f 36/8/263 152/262/263 35/258/263
f 34/259/264 151/261/264 39/263/264
f 151/261/265 38/264/265 39/263/265
f 35/258/266 152/262/266 151/261/266
f 152/262/267 153/265/267 151/261/267
f 151/261/268 153/265/268 38/264/268
f 153/265/269 37/266/269 38/264/269
f 36/8/270 30/7/270 152/262/270
f 30/7/271 29/267/271 152/262/271
f 152/262/272 29/267/272 153/265/272
f 29/267/273 28/268/273 153/265/273
f 153/265/274 28/268/274 37/266/274
f 28/268/275 4/269/275 37/266/275
f 28/270/276 33/15/276 4/14/276
f 29/267/277 154/271/277 28/268/277
f 30/7/278 155/272/278 29/267/278
f 28/268/279 154/271/279 33/273/279
f 154/271/280 32/218/280 33/273/280
f 29/267/281 155/272/281 154/271/281
f 155/272/282 156/274/282 154/271/282
f 154/271/283 156/274/283 32/218/283
f 156/274/284 31/220/284 32/218/284
f 30/7/285 15/3/285 155/272/285
f 15/3/286 14/275/286 155/272/286
f 155/272/287 14/275/287 156/274/287
f 14/275/288 13/276/288 156/274/288
f 156/274/289 13/276/289 31/220/289
f 13/276/290 3/277/290 31/220/290
f 22/246/291 27/251/291 6/20/291
f 23/245/292 157/278/292 22/246/292
f 24/6/293 158/279/293 23/245/293
f 22/246/294 157/278/294 27/251/294
f 157/278/295 26/252/295 27/251/295
f 23/245/296 158/279/296 157/278/296
f 158/279/297 159/280/297 157/278/297
f 157/278/298 159/280/298 26/252/298
f 159/280/299 25/9/299 26/252/299
f 24/6/300 18/5/300 158/279/300
f 18/5/301 17/281/301 158/279/301
f 158/279/302 17/281/302 159/280/302
f 17/281/303 16/2/303 159/280/303
f 159/280/304 16/2/304 25/9/304
f 16/2/305 1/1/305 25/9/305
f 13/276/306 21/282/306 3/277/306
f 14/275/307 160/283/307 13/276/307
f 15/3/308 161/284/308 14/275/308
f 13/276/309 160/283/309 21/282/309
f 160/283/310 20/232/310 21/282/310
f 14/275/311 161/284/311 160/283/311
f 161/284/312 162/285/312 160/283/312
f 160/283/313 162/285/313 20/232/313
f 162/285/314 19/233/314 20/232/314
f 15/3/315 16/2/315 161/284/315
f 16/2/316 17/281/316 161/284/316
f 161/284/317 17/281/317 162/285/317
f 17/281/318 18/5/318 162/285/318
f 162/285/319 18/5/319 19/233/319
f 18/5/320 2/4/320 19/233/320
