# Blender 5.1.2
# www.blender.org
mtllib Rock_Spire.mtl
o Rock_Spire
v 0.145189 0.137772 0.117286
v 1.211311 0.732476 -0.064865
v 0.367567 0.931903 0.883426
v -0.648856 0.862252 0.677364
v -0.539513 0.971089 -0.291670
v 0.345284 0.909015 -0.751964
v 0.853189 3.348000 0.461250
v -0.366771 2.935888 0.798758
v -0.703134 2.564868 0.037653
v -0.410356 2.963588 -0.986266
v 1.058808 3.572008 -1.105327
v -0.175679 4.014335 -0.141916
v 0.344040 0.424003 0.730948
v 0.286876 0.176879 0.526763
v 0.206473 0.154687 0.294397
v 0.350379 0.152926 0.089918
v 0.626255 0.173300 0.053121
v 1.020452 0.202413 0.000543
v 1.200523 0.528416 0.254074
v 0.795878 0.744369 0.478815
v 0.581881 0.833067 0.714103
v 0.574650 0.769014 -0.674824
v 0.816637 0.656164 -0.509546
v 1.093794 0.616811 -0.315080
v 0.203282 0.130699 -0.060404
v 0.237538 0.350928 -0.237732
v 0.317908 0.484537 -0.529919
v -0.496509 0.207147 0.639827
v -0.212700 0.128074 0.415274
v -0.011553 0.133525 0.247793
v 0.120284 0.805178 0.923433
v -0.187574 0.558146 1.012317
v -0.548961 0.501941 0.999087
v -0.365264 0.596235 -0.184441
v -0.152973 0.385712 -0.058572
v 0.003616 0.120646 0.036399
v -0.649292 0.842231 0.422304
v -0.588500 0.887994 0.152857
v -0.669428 0.769559 -0.094964
v -0.360611 0.890950 -0.425093
v -0.136810 0.775611 -0.577128
v 0.113709 0.840176 -0.682293
v 1.368031 2.893028 -0.972776
v 1.597462 1.976374 -0.713693
v 1.463102 1.161392 -0.339153
v 0.613249 1.154622 -1.077638
v 0.740386 1.881199 -1.076129
v 0.973243 2.752019 -1.190999
v 0.807051 2.724247 0.671408
v 0.633665 1.995431 0.764413
v 0.534354 1.361099 0.911242
v 1.378984 1.228380 0.072564
v 1.397325 2.024449 0.253061
v 1.103234 2.781259 0.374830
v -0.536882 2.537310 0.943442
v -0.673032 1.901571 0.978233
v -0.733813 1.243329 0.897998
v 0.206800 1.377004 0.989219
v -0.006038 1.964267 1.090221
v -0.243670 2.613029 1.068121
v -0.853457 2.302506 -0.044910
v -0.843663 1.811823 -0.152791
v -0.739720 1.295534 -0.251324
v -0.723300 1.362542 0.514323
v -0.793807 1.849879 0.354646
v -0.907343 2.344876 0.210326
v -0.271562 2.567973 -1.299004
v 0.007074 1.807053 -1.277255
v 0.234623 1.197488 -1.028461
v -0.596297 1.276861 -0.496076
v -0.631701 1.788630 -0.762044
v -0.535016 2.423299 -0.912370
v 1.188629 3.813397 -0.773093
v 1.196809 3.862405 -0.305362
v 1.082862 3.707314 0.153613
v 0.467302 3.188924 0.550861
v 0.176615 3.260968 0.732921
v -0.126089 3.058062 0.756573
v -0.555407 2.977125 0.652226
v -0.553259 2.705001 0.348467
v -0.561870 2.546854 0.161853
v -0.758241 2.753017 -0.160471
v -0.588792 2.714859 -0.353726
v -0.609426 3.000794 -0.747906
v -0.141943 3.174239 -1.089711
v 0.238420 3.499753 -1.258477
v 0.635780 3.501618 -1.157093
v 0.024790 4.257173 -0.031615
v 0.336524 4.366764 0.145101
v 0.660604 3.996176 0.338204
v 0.738893 4.136990 -0.916674
v 0.366512 4.500111 -0.657181
v 0.024130 4.027026 -0.309268
v -0.197892 3.559878 0.073826
v -0.288686 3.613403 0.337809
v -0.303892 3.164291 0.530114
v -0.293614 3.357383 -0.075992
v -0.320247 2.766342 -0.026828
v -0.603916 2.869369 0.001409
v -0.225086 3.781075 -0.321710
v -0.292798 3.608156 -0.543384
v -0.374498 3.396008 -0.811445
v -0.024637 3.824603 -0.548525
v 0.318119 4.109932 -0.999087
v -0.082768 3.576052 -0.832204
v -0.386817 3.332276 -0.249823
v -0.510903 3.263922 -0.491916
v -0.434346 2.768788 -0.156286
v -0.315264 3.079700 0.100416
v -0.526635 2.974220 0.157185
v -0.480596 3.225634 0.378142
v -0.030015 3.942130 0.260127
v -0.081193 3.485143 0.525213
v 0.217052 3.520681 0.398018
v 0.370545 4.572613 -0.254873
v 0.780522 4.339690 -0.059340
v 0.820060 4.423520 -0.541405
v 0.544409 2.703798 -1.255242
v 0.430749 1.839427 -1.317546
v 0.125651 2.667262 -1.336766
v -0.674448 2.384984 -0.579581
v -0.737596 1.802640 -0.421418
v -0.819990 2.367247 -0.304032
v -0.843562 2.428814 0.446802
v -0.786151 1.870568 0.654571
v -0.752737 2.528295 0.740038
v 0.089096 2.643020 0.935647
v 0.325247 1.981640 0.939984
v 0.434605 2.676419 0.801050
v 1.536582 3.092379 -0.018263
v 1.719724 2.018870 -0.229372
v 1.559918 3.071953 -0.564940
v -0.337751 1.798647 -0.976119
v -0.080186 1.215837 -0.842077
v -0.383226 1.200069 -0.706349
v -0.928301 1.823312 0.123814
v -0.783939 1.279388 0.009316
v -0.693602 1.367155 0.251194
v -0.342611 1.933583 1.047960
v -0.478909 1.177626 1.104224
v -0.104381 1.247721 1.110507
v 1.067916 2.021060 0.610143
v 0.728897 1.358947 0.626370
v 1.230030 1.178777 0.456064
v 1.177267 1.923772 -0.980225
v 1.254455 1.093385 -0.664436
v 0.864196 1.161211 -0.849616
v 0.076088 0.492833 -0.401437
v 0.042754 0.284293 -0.149305
v -0.152355 0.509246 -0.291916
v -0.383683 0.501105 0.040060
v -0.154574 0.336348 0.140178
v -0.445766 0.299329 0.315239
v -0.227410 0.149023 0.746789
v 0.013641 0.153788 0.519662
v 0.086615 0.179561 0.814780
v 0.493721 0.394197 -0.366625
v 0.796562 0.168584 -0.228242
v 0.430935 0.145515 -0.120633
v 0.555313 0.254416 0.532264
v 0.469890 0.177052 0.302797
v 0.770096 0.200588 0.283172
vn 0.0823 -0.9944 0.0665
vn 0.8985 -0.3553 -0.2577
vn 0.8185 -0.5606 -0.1253
vn 0.5237 -0.2562 0.8124
vn -0.9708 -0.2372 0.0358
vn -0.6275 -0.2977 -0.7195
vn -0.0103 -0.6940 -0.7199
vn 0.8964 -0.3705 0.2434
vn 0.2222 -0.1488 0.9636
vn -0.9818 -0.1723 -0.0804
vn -0.7911 -0.4346 -0.4304
vn -0.1691 -0.7150 -0.6783
vn 0.5511 0.3108 0.7744
vn -0.2850 0.7622 0.5813
vn -0.6116 0.2870 0.7373
vn -0.7034 0.3158 -0.6368
vn 0.0572 0.3452 -0.9368
vn -0.5437 0.5816 -0.6051
vn -0.8596 0.4629 -0.2164
vn 0.1061 0.6479 -0.7543
vn -0.6245 0.6544 -0.4263
vn -0.5854 0.7162 -0.3799
vn -0.8302 0.4221 -0.3642
vn -0.8069 0.5162 -0.2869
vn -0.5565 0.6781 -0.4801
vn -0.4936 0.7489 -0.4422
vn 0.1614 0.3262 -0.9314
vn 0.2295 0.3552 -0.9062
vn -0.7170 0.3499 -0.6029
vn -0.6619 0.4711 -0.5830
vn -0.3851 0.5375 -0.7502
vn -0.5629 0.3495 -0.7490
vn -0.9830 0.1801 0.0364
vn -0.9395 0.3418 0.0203
vn -0.8452 0.5133 -0.1486
vn -0.8409 0.3668 0.3979
vn -0.8833 0.0783 0.4623
vn -0.7989 0.5444 0.2558
vn -0.8965 0.1451 0.4186
vn -0.7376 0.1707 0.6533
vn 0.3078 0.9170 -0.2539
vn -0.8591 0.4839 -0.1667
vn -0.9658 0.1832 0.1834
vn -0.7944 0.2518 0.5527
vn -0.0443 0.9720 -0.2308
vn -0.0330 0.8262 -0.5624
vn -0.7899 0.3197 0.5233
vn -0.9254 0.1985 0.3229
vn -0.9974 0.0400 -0.0594
vn 0.2139 0.7579 -0.6163
vn -0.9324 0.2427 0.2677
vn -0.9125 0.2034 -0.3551
vn -0.4019 0.3500 -0.8462
vn -0.4782 0.6276 -0.6144
vn -0.7400 0.3038 -0.6001
vn -0.5395 0.3468 0.7673
vn -0.9133 0.0797 0.3995
vn -0.9964 0.0819 -0.0234
vn -0.9894 0.1351 0.0524
vn -0.9800 0.1446 -0.1364
vn -0.2626 0.7494 0.6078
vn -0.2849 0.7622 0.5813
vn -0.7259 0.3236 0.6069
vn -0.7705 0.5188 -0.3702
vn -0.4955 0.3560 0.7923
vn -0.9300 0.3234 0.1745
vn -0.5403 0.6204 0.5684
vn -0.3947 0.4937 0.7749
vn 0.3037 0.4524 0.8385
vn -0.0371 0.2910 0.9560
vn -0.2034 0.3067 0.9298
vn -0.6022 0.4283 0.6737
vn -0.2570 0.4811 0.8382
vn 0.1714 0.7684 0.6166
vn 0.5134 0.6470 0.5637
vn -0.1862 0.2917 0.9382
vn 0.1325 0.2227 0.9658
vn -0.5035 0.6658 -0.5507
vn -0.4866 0.7929 0.3667
vn 0.3488 0.6545 0.6708
vn -0.7443 0.5150 -0.4251
vn -0.8368 0.5402 -0.0890
vn 0.2631 0.8485 0.4591
vn 0.4155 0.8898 0.1888
vn 0.2073 0.9624 -0.1755
vn 0.2819 0.7322 -0.6200
vn 0.6103 0.4990 0.6153
vn 0.7867 0.4987 0.3638
vn 0.7842 0.5973 0.1682
vn 0.8417 0.5353 -0.0708
vn 0.5929 0.5730 -0.5658
vn 0.5805 0.5340 -0.6148
vn 0.1058 0.0924 -0.9901
vn 0.1649 -0.1722 -0.9712
vn 0.6203 -0.1069 -0.7771
vn 0.1357 0.1056 -0.9851
vn 0.2458 0.0906 -0.9651
vn 0.6167 -0.0244 -0.7868
vn 0.1870 0.0461 -0.9813
vn 0.1850 0.0671 -0.9804
vn -0.5044 0.1483 -0.8507
vn -0.1604 -0.3641 -0.9174
vn -0.0570 -0.3954 -0.9167
vn -0.0903 -0.0563 -0.9943
vn -0.0802 -0.0578 -0.9951
vn -0.1759 0.3546 -0.9183
vn -0.5743 0.3742 -0.7282
vn -0.7580 0.0865 -0.6465
vn -0.9232 0.0504 -0.3810
vn -0.9358 -0.2114 -0.2822
vn -0.9219 -0.0085 -0.3873
vn -0.9767 0.1461 0.1571
vn -0.9544 0.0227 -0.2976
vn -0.8830 -0.0315 -0.4684
vn -0.7920 0.4713 -0.3880
vn -0.6686 0.3510 -0.6556
vn -0.8569 -0.1607 -0.4899
vn -0.9251 -0.1173 -0.3613
vn -0.9292 -0.0597 -0.3648
vn -0.9920 0.0079 -0.1261
vn -0.9792 0.1865 -0.0799
vn -0.8057 0.3011 0.5101
vn -0.3705 0.7614 0.5319
vn -0.9449 -0.1291 0.3007
vn -0.9906 -0.1321 0.0344
vn -0.5148 0.8422 -0.1601
vn -0.6911 0.5668 -0.4484
vn -0.9954 -0.0906 0.0317
vn -0.9562 0.0106 0.2926
vn -0.6941 0.7193 -0.0290
vn -0.8925 0.3328 -0.3045
vn -0.9925 -0.1062 -0.0602
vn -0.9443 0.0475 0.3255
vn -0.9441 0.0052 0.3295
vn -0.6781 0.1842 0.7115
vn -0.6352 0.4076 0.6560
vn -0.4741 0.4721 0.7432
vn -0.1637 0.5944 0.7873
vn 0.3525 0.1605 0.9219
vn 0.4133 -0.0068 0.9106
vn 0.2812 0.4994 0.8195
vn -0.1462 0.3270 0.9336
vn 0.4019 0.1494 0.9034
vn 0.3489 0.1307 0.9280
vn 0.3301 0.2517 0.9098
vn 0.5584 0.3349 0.7590
vn 0.2330 0.0335 0.9719
vn 0.4867 0.1240 0.8647
vn 0.4892 0.0964 0.8669
vn 0.3234 0.0437 0.9452
vn 0.2520 0.4115 0.8759
vn 0.0910 0.3119 0.9457
vn 0.6705 0.1863 0.7182
vn 0.6203 0.1162 0.7757
vn 0.8220 -0.1439 0.5510
vn 0.5744 0.2021 0.7932
vn 0.7956 0.4859 0.3617
vn 0.8312 0.0326 0.5551
vn 0.9863 0.1612 0.0361
vn 0.9114 0.4109 0.0236
vn 0.8992 0.4332 -0.0611
vn 0.9217 -0.3063 0.2381
vn 0.9427 -0.2545 -0.2156
vn 0.9660 0.0670 -0.2497
vn 0.8848 0.0923 -0.4568
vn 0.8205 0.2693 -0.5042
vn 0.8139 0.2702 -0.5144
vn -0.8409 0.1219 -0.5274
vn -0.6329 -0.2527 -0.7318
vn -0.4679 -0.4781 -0.7433
vn -0.7786 -0.1847 -0.5997
vn -0.5834 -0.1020 -0.8058
vn -0.5912 -0.4197 -0.6887
vn -0.3659 -0.3592 -0.8586
vn -0.5534 -0.3069 -0.7743
vn -0.7179 -0.3595 -0.5962
vn -0.4528 -0.5366 -0.7120
vn -0.2317 -0.4796 -0.8464
vn -0.3452 -0.4510 -0.8231
vn -0.6454 -0.5393 -0.5409
vn -0.6890 -0.5147 -0.5102
vn -0.6502 -0.5020 -0.5703
vn -0.8008 0.5402 -0.2587
vn -0.9547 0.0456 -0.2940
vn -0.9712 -0.1622 -0.1748
vn -0.9731 0.0752 -0.2179
vn -0.8605 -0.0495 0.5071
vn -0.9409 -0.1908 -0.2800
vn -0.8459 -0.3151 0.4303
vn -0.8157 -0.2780 0.5073
vn -0.9774 -0.1786 -0.1134
vn -0.9676 -0.1815 -0.1754
vn -0.8653 -0.2795 0.4161
vn -0.8633 -0.2761 0.4226
vn -0.9567 -0.1600 -0.2430
vn -0.9862 -0.1202 -0.1134
vn -0.9896 -0.1430 0.0129
vn -0.4454 0.4673 0.7637
vn -0.2146 0.0991 0.9716
vn -0.6341 -0.0356 0.7724
vn -0.3978 0.0307 0.9169
vn -0.1235 -0.0115 0.9923
vn -0.2155 0.1111 0.9702
vn -0.0317 0.0799 0.9963
vn -0.1286 0.0457 0.9906
vn 0.3720 -0.0248 0.9279
vn -0.6364 -0.0538 0.7695
vn -0.0125 -0.1525 0.9882
vn 0.0100 -0.1421 0.9898
vn 0.4011 -0.1764 0.8989
vn 0.4172 -0.1659 0.8935
vn 0.2302 -0.1455 0.9622
vn 0.6762 0.1898 0.7118
vn 0.3323 0.0412 0.9423
vn 0.8258 0.0012 0.5639
vn 0.6764 0.1889 0.7119
vn 0.7231 0.1734 0.6687
vn 0.3388 -0.1507 0.9287
vn 0.2804 -0.1202 0.9523
vn 0.7348 0.0174 0.6780
vn 0.9318 -0.1006 0.3489
vn 0.8177 -0.1353 0.5595
vn 0.7205 -0.0867 0.6880
vn 0.2500 -0.2002 0.9473
vn 0.3400 -0.2930 0.8936
vn 0.9282 -0.1481 0.3414
vn 0.9487 -0.2800 -0.1471
vn 0.4716 0.0428 -0.8808
vn 0.5419 -0.1002 -0.8345
vn 0.8213 -0.3444 -0.4548
vn 0.5070 -0.0932 -0.8569
vn 0.2280 -0.1870 -0.9555
vn 0.5405 -0.2547 -0.8019
vn 0.3656 -0.3010 -0.8808
vn 0.2310 -0.2556 -0.9388
vn 0.6696 -0.1157 -0.7336
vn 0.7592 -0.5314 -0.3758
vn 0.3861 -0.6265 -0.6771
vn 0.2761 -0.5546 -0.7850
vn 0.2773 -0.5545 -0.7846
vn 0.5265 -0.6388 -0.5610
vn -0.1953 -0.6990 -0.6879
vn -0.1307 -0.4529 -0.8819
vn -0.2740 -0.8439 -0.4613
vn -0.1473 -0.6063 -0.7815
vn -0.4073 -0.5472 -0.7312
vn -0.1686 -0.6086 -0.7753
vn -0.0273 -0.7685 -0.6393
vn -0.3494 -0.6988 -0.6242
vn -0.3587 -0.6724 -0.6475
vn -0.6453 -0.5404 -0.5399
vn -0.2885 -0.6874 -0.6665
vn -0.5688 -0.5539 -0.6080
vn -0.5595 -0.7319 -0.3889
vn -0.5130 -0.7581 -0.4027
vn -0.5446 -0.5253 -0.6538
vn -0.6530 -0.4728 -0.5916
vn -0.4745 -0.4389 -0.7630
vn -0.5367 -0.7602 -0.3661
vn -0.8295 -0.5405 -0.1409
vn -0.5397 -0.7583 -0.3656
vn -0.7106 -0.5157 0.4785
vn -0.5080 -0.8350 -0.2115
vn -0.2708 -0.7462 -0.6082
vn -0.8447 -0.3226 -0.4271
vn -0.9204 -0.2942 -0.2576
vn -0.8113 -0.5841 -0.0226
vn -0.4758 -0.6499 -0.5926
vn -0.2769 -0.7370 -0.6165
vn -0.4738 -0.8249 -0.3083
vn -0.9253 -0.3015 -0.2303
vn -0.9736 -0.2275 0.0195
vn -0.9724 -0.2288 0.0457
vn -0.2302 -0.9718 0.0512
vn -0.3800 -0.7415 0.5530
vn 0.0546 -0.5473 0.8351
vn -0.1297 -0.5309 0.8375
vn 0.4019 -0.1776 0.8983
vn 0.6814 -0.5534 0.4790
vn 0.4521 -0.1762 0.8744
vn 0.2947 -0.2873 0.9114
vn 0.0145 -0.4642 -0.8856
vn 0.2001 -0.6477 -0.7352
vn 0.4668 -0.4563 -0.7576
vn 0.3179 -0.6422 -0.6975
vn -0.0639 -0.9008 -0.4295
vn 0.0228 -0.5003 -0.8655
vn -0.1701 -0.6710 -0.7217
vn -0.2524 -0.6475 -0.7190
vn -0.1673 -0.6024 -0.7805
vn 0.6428 -0.5329 -0.5503
vn 0.5182 -0.2678 0.8122
vn 0.1728 -0.6508 0.7393
vn 0.5315 -0.2761 0.8008
vn 0.6671 -0.2510 0.7014
vn 0.2668 -0.9390 0.2173
vn 0.0935 -0.9535 0.2867
vn 0.6992 -0.2711 0.6615
vn 0.3148 -0.3345 0.8883
vn 0.5508 -0.6803 0.4835
vn 0.9148 -0.3535 -0.1952
vt 0.424242 0.697070
vt 0.414299 0.722446
vt 0.399879 0.692947
vt 0.496149 0.483434
vt 0.456898 0.544960
vt 0.463685 0.486910
vt 0.419182 0.670763
vt 0.442621 0.685862
vt 0.441049 0.714987
vt 0.460732 0.846487
vt 0.494073 0.829374
vt 0.494073 0.882915
vt 0.219352 0.487985
vt 0.182588 0.496784
vt 0.213915 0.431195
vt 0.658705 0.778207
vt 0.620812 0.814362
vt 0.640656 0.722169
vt 0.725096 0.493370
vt 0.697865 0.523586
vt 0.701352 0.455581
vt 0.368100 0.414206
vt 0.343932 0.417298
vt 0.351748 0.366993
vt 0.050786 0.493840
vt 0.009010 0.432074
vt 0.056759 0.429936
vt 0.250757 0.432744
vt 0.685747 0.719324
vt 0.738594 0.453259
vt 0.350460 0.836238
vt 0.385642 0.829374
vt 0.385642 0.879054
vt 0.174002 0.163383
vt 0.129923 0.110372
vt 0.189653 0.078617
vt 0.944543 0.164101
vt 0.923002 0.136388
vt 0.960059 0.120640
vt 0.297426 0.804671
vt 0.272881 0.807891
vt 0.290573 0.765886
vt 0.776739 0.227167
vt 0.736072 0.228133
vt 0.752451 0.171793
vt 0.536934 0.096531
vt 0.484554 0.090221
vt 0.536604 0.021498
vt 0.713408 0.086107
vt 0.701905 0.122789
vt 0.681403 0.092996
vt 0.767296 0.015332
vt 0.740008 0.111424
vt 0.052242 0.710552
vt 0.009010 0.676879
vt 0.054993 0.636120
vt 0.724755 0.144793
vt 0.808494 0.064169
vt 0.771671 0.142556
vt 0.484479 0.009010
vt 0.434933 0.074819
vt 0.842177 0.142780
vt 0.802988 0.193774
vt 0.677260 0.180971
vt 0.690538 0.184697
vt 0.709993 0.194100
vt 0.540885 0.562980
vt 0.554674 0.621373
vt 0.532233 0.626825
vt 0.532710 0.693021
vt 0.564000 0.568664
vt 0.585339 0.617034
vt 0.554383 0.688572
vt 0.206510 0.854949
vt 0.173590 0.851539
vt 0.208566 0.832560
vt 0.698752 0.267872
vt 0.585339 0.687014
vt 0.208566 0.888512
vt 0.176788 0.882683
vt 0.318691 0.774885
vt 0.550077 0.820986
vt 0.532233 0.802106
vt 0.556632 0.742721
vt 0.846028 0.745192
vt 0.812211 0.716940
vt 0.811380 0.675805
vt 0.164123 0.827643
vt 0.532350 0.860130
vt 0.753581 0.669078
vt 0.787957 0.656843
vt 0.802498 0.741425
vt 0.766056 0.723102
vt 0.990990 0.114067
vt 0.976871 0.061329
vt 0.271264 0.761318
vt 0.829695 0.790703
vt 0.801023 0.782639
vt 0.752457 0.768630
vt 0.976166 0.160569
vt 0.532233 0.711042
vt 0.752457 0.616536
vt 0.939382 0.075450
vt 0.762089 0.563620
vt 0.250717 0.718319
vt 0.204609 0.659007
vt 0.253243 0.661661
vt 0.957893 0.009010
vt 0.442711 0.884614
vt 0.403662 0.886544
vt 0.403662 0.829374
vt 0.223394 0.767981
vt 0.164123 0.706512
vt 0.894127 0.098205
vt 0.917317 0.048588
vt 0.258742 0.183800
vt 0.214387 0.188343
vt 0.227347 0.144813
vt 0.192924 0.809622
vt 0.678786 0.058445
vt 0.217844 0.605178
vt 0.146537 0.027201
vt 0.205965 0.030009
vt 0.721806 0.009010
vt 0.164123 0.637250
vt 0.146102 0.645056
vt 0.102277 0.676653
vt 0.097336 0.605178
vt 0.078520 0.082663
vt 0.098438 0.009010
vt 0.146102 0.729375
vt 0.097268 0.762988
vt 0.048470 0.786676
vt 0.488200 0.193129
vt 0.433001 0.297007
vt 0.435376 0.183526
vt 0.388575 0.383068
vt 0.383081 0.285395
vt 0.383128 0.172305
vt 0.857353 0.252272
vt 0.337643 0.276961
vt 0.337643 0.172954
vt 0.389548 0.107810
vt 0.827637 0.273253
vt 0.769256 0.300218
vt 0.756848 0.385549
vt 0.723520 0.310537
vt 0.711648 0.388488
vt 0.683347 0.317860
vt 0.665092 0.267777
vt 0.674487 0.391491
vt 0.653481 0.328940
vt 0.318691 0.833825
vt 0.306199 0.848343
vt 0.712322 0.662005
vt 0.716362 0.585108
vt 0.734437 0.602965
vt 0.681619 0.649834
vt 0.009010 0.845415
vt 0.040580 0.858035
vt 0.009010 0.882512
vt 0.794781 0.831910
vt 0.694646 0.563620
vt 0.895143 0.813124
vt 0.864049 0.813124
vt 0.878601 0.761614
vt 0.764232 0.832190
vt 0.961520 0.365329
vt 0.954746 0.298567
vt 0.990990 0.287826
vt 0.986750 0.222849
vt 0.948366 0.223225
vt 0.908211 0.207849
vt 0.288584 0.359307
vt 0.276096 0.267911
vt 0.317867 0.276267
vt 0.245054 0.352350
vt 0.284749 0.212884
vt 0.882795 0.179462
vt 0.233041 0.258984
vt 0.201092 0.345668
vt 0.188287 0.248043
vt 0.864049 0.645458
vt 0.864049 0.563620
vt 0.904976 0.598071
vt 0.134574 0.234073
vt 0.084861 0.328682
vt 0.063463 0.184556
vt 0.010130 0.319982
vt 0.009010 0.179138
vt 0.134361 0.827395
vt 0.525545 0.430485
vt 0.552312 0.322999
vt 0.596024 0.335408
vt 0.602792 0.190035
vt 0.550242 0.194498
vt 0.580837 0.080176
vt 0.857353 0.366550
vt 0.800524 0.376787
vt 0.855848 0.443017
vt 0.813320 0.448296
vt 0.777790 0.457369
vt 0.815357 0.494416
vt 0.598482 0.767748
vt 0.574653 0.771721
vt 0.581110 0.711042
vt 0.787645 0.508538
vt 0.753500 0.499188
vt 0.620812 0.326510
vt 0.650161 0.292628
vt 0.637873 0.393836
vt 0.669750 0.460586
vt 0.300857 0.652803
vt 0.271264 0.664676
vt 0.284773 0.605178
vt 0.299698 0.696544
vt 0.273593 0.704032
vt 0.715955 0.727322
vt 0.300857 0.738285
vt 0.274994 0.743297
vt 0.719499 0.792051
vt 0.685175 0.788902
vt 0.914360 0.282462
vt 0.918081 0.371643
vt 0.875373 0.264496
vt 0.878084 0.345415
vt 0.287977 0.453711
vt 0.927571 0.439175
vt 0.305198 0.552656
vt 0.275164 0.542773
vt 0.319623 0.465605
vt 0.243183 0.506958
vt 0.148140 0.336792
vt 0.169434 0.425878
vt 0.105755 0.443076
vt 0.139732 0.503311
vt 0.078897 0.525120
vt 0.505216 0.517478
vt 0.543376 0.431168
vt 0.488336 0.308469
vt 0.480661 0.422987
vt 0.429798 0.396783
vt 0.423486 0.467605
vt 0.391937 0.441136
vt 0.337643 0.863414
vt 0.360419 0.472323
vt 0.456674 0.731145
vt 0.483956 0.723611
vt 0.483578 0.759507
vt 0.575980 0.867047
vt 0.574653 0.835698
vt 0.593402 0.840953
vt 0.251027 0.863487
vt 0.226586 0.883034
vt 0.226586 0.827643
vt 0.598482 0.817677
vt 0.459558 0.702863
vt 0.485573 0.690490
vt 0.514212 0.711548
vt 0.759570 0.545599
vt 0.864049 0.720714
vt 0.896391 0.719486
vt 0.885105 0.743593
vt 0.460285 0.675068
vt 0.485628 0.659595
vt 0.731589 0.539359
vt 0.462144 0.642814
vt 0.890779 0.697478
vt 0.492485 0.619739
vt 0.457598 0.613835
vt 0.438165 0.662056
vt 0.436832 0.617332
vt 0.734437 0.846094
vt 0.694731 0.862604
vt 0.866463 0.696174
vt 0.864049 0.663478
vt 0.412689 0.637004
vt 0.403868 0.590500
vt 0.653869 0.863659
vt 0.375351 0.614372
vt 0.386183 0.656497
vt 0.362543 0.562980
vt 0.337643 0.603906
vt 0.347448 0.646269
vt 0.225972 0.587158
vt 0.367915 0.687538
vt 0.180674 0.581820
vt 0.198922 0.552137
vt 0.385537 0.493818
vt 0.417456 0.535473
vt 0.454841 0.768946
vt 0.422543 0.793961
vt 0.433466 0.745027
vt 0.593402 0.881050
vt 0.381830 0.805315
vt 0.400931 0.756564
vt 0.349501 0.718370
vt 0.338034 0.682240
vt 0.382088 0.722775
vt 0.158518 0.569753
vt 0.365184 0.758612
vt 0.114827 0.571531
vt 0.337643 0.811354
s 0
usemtl Rock_OBJ_Material
f 1/1/1 16/2/1 15/3/1
f 2/4/2 18/5/2 24/6/2
f 1/1/1 15/3/1 30/7/1
f 1/1/1 30/7/1 36/8/1
f 1/1/1 36/8/1 25/9/1
f 2/10/3 24/11/3 45/12/3
f 3/13/4 21/14/4 51/15/4
f 4/16/5 33/17/5 57/18/5
f 5/19/6 39/20/6 63/21/6
f 6/22/7 42/23/7 69/24/7
f 2/25/8 45/26/8 52/27/8
f 3/13/9 51/15/9 58/28/9
f 4/16/10 57/18/10 64/29/10
f 5/19/11 63/21/11 70/30/11
f 6/31/12 69/32/12 46/33/12
f 7/34/13 75/35/13 90/36/13
f 8/37/14 78/38/14 96/39/14
f 9/40/15 81/41/15 99/42/15
f 10/43/16 84/44/16 102/45/16
f 11/46/17 87/47/17 91/48/17
f 93/49/18 100/50/18 12/51/18
f 92/52/19 103/53/19 93/49/19
f 91/54/20 104/55/20 92/56/20
f 93/49/21 103/53/21 100/50/21
f 103/53/22 101/57/22 100/50/22
f 92/52/23 104/58/23 103/53/23
f 104/58/24 105/59/24 103/53/24
f 103/53/25 105/59/25 101/57/25
f 105/59/26 102/45/26 101/57/26
f 91/48/27 87/47/27 104/60/27
f 87/47/28 86/61/28 104/60/28
f 104/58/29 86/62/29 105/59/29
f 86/62/30 85/63/30 105/59/30
f 105/59/31 85/63/31 102/45/31
f 85/63/32 10/43/32 102/45/32
f 100/50/33 97/64/33 12/51/33
f 101/57/34 106/65/34 100/50/34
f 102/45/35 107/66/35 101/57/35
f 100/67/36 106/68/36 97/69/36
f 106/68/37 98/70/37 97/69/37
f 101/71/38 107/72/38 106/68/38
f 107/72/39 108/73/39 106/68/39
f 106/68/40 108/73/40 98/70/40
f 108/74/41 99/75/41 98/76/41
f 102/45/42 84/44/42 107/66/42
f 84/44/43 83/77/43 107/66/43
f 107/72/44 83/78/44 108/73/44
f 83/79/45 82/80/45 108/74/45
f 108/74/46 82/80/46 99/75/46
f 82/81/47 9/40/47 99/42/47
f 97/82/48 94/83/48 12/84/48
f 98/85/49 109/86/49 97/87/49
f 99/75/50 110/88/50 98/76/50
f 97/82/51 109/89/51 94/83/51
f 109/86/52 95/90/52 94/91/52
f 98/85/53 110/92/53 109/86/53
f 110/92/54 111/93/54 109/86/54
f 109/86/55 111/93/55 95/90/55
f 111/94/56 96/39/56 95/95/56
f 99/42/57 81/41/57 110/96/57
f 81/97/58 80/98/58 110/92/58
f 110/92/59 80/98/59 111/93/59
f 80/98/60 79/99/60 111/93/60
f 111/94/61 79/100/61 96/39/61
f 79/100/62 8/37/62 96/39/62
f 94/83/63 88/101/63 12/84/63
f 95/90/64 112/102/64 94/91/64
f 96/39/65 113/103/65 95/95/65
f 94/91/66 112/102/66 88/104/66
f 112/105/67 89/106/67 88/107/67
f 95/95/68 113/103/68 112/108/68
f 113/109/69 114/110/69 112/111/69
f 112/105/70 114/112/70 89/106/70
f 114/112/71 90/113/71 89/106/71
f 96/39/72 78/38/72 113/103/72
f 78/38/73 77/114/73 113/103/73
f 113/103/74 77/114/74 114/115/74
f 77/116/75 76/117/75 114/118/75
f 114/112/76 76/119/76 90/113/76
f 76/117/77 7/34/77 90/36/77
f 88/120/78 93/49/78 12/51/78
f 89/106/79 115/121/79 88/107/79
f 90/36/80 116/122/80 89/123/80
f 88/120/81 115/124/81 93/49/81
f 115/124/82 92/52/82 93/49/82
f 89/106/83 116/125/83 115/121/83
f 116/126/84 117/127/84 115/128/84
f 115/128/85 117/127/85 92/56/85
f 117/127/86 91/54/86 92/56/86
f 90/36/87 75/35/87 116/122/87
f 75/35/88 74/129/88 116/122/88
f 116/122/89 74/129/89 117/130/89
f 74/131/90 73/132/90 117/127/90
f 117/127/91 73/132/91 91/54/91
f 73/132/92 11/133/92 91/54/92
f 48/134/93 87/47/93 11/46/93
f 47/135/94 118/136/94 48/134/94
f 46/137/95 119/138/95 47/135/95
f 48/134/96 118/136/96 87/47/96
f 118/136/97 86/61/97 87/47/97
f 47/135/98 119/138/98 118/136/98
f 119/138/99 120/139/99 118/136/99
f 118/136/100 120/139/100 86/61/100
f 120/140/101 85/63/101 86/62/101
f 46/137/102 69/24/102 119/138/102
f 69/24/103 68/141/103 119/138/103
f 119/138/104 68/141/104 120/139/104
f 68/141/105 67/142/105 120/139/105
f 120/139/106 67/142/106 85/143/106
f 67/144/107 10/43/107 85/63/107
f 72/145/108 84/44/108 10/43/108
f 71/146/109 121/147/109 72/145/109
f 70/30/110 122/148/110 71/146/110
f 72/145/111 121/147/111 84/44/111
f 121/147/112 83/77/112 84/44/112
f 71/146/113 122/148/113 121/147/113
f 122/148/114 123/149/114 121/147/114
f 121/147/115 123/149/115 83/77/115
f 123/149/116 82/150/116 83/77/116
f 70/30/117 63/21/117 122/148/117
f 63/21/118 62/151/118 122/148/118
f 122/148/119 62/151/119 123/149/119
f 62/151/120 61/152/120 123/149/120
f 123/149/121 61/152/121 82/150/121
f 61/153/122 9/40/122 82/81/122
f 66/154/123 81/41/123 9/40/123
f 65/155/124 124/156/124 66/157/124
f 64/29/125 125/158/125 65/155/125
f 66/159/126 124/160/126 81/161/126
f 124/162/127 80/98/127 81/97/127
f 65/155/128 125/158/128 124/156/128
f 125/158/129 126/163/129 124/156/129
f 124/164/130 126/165/130 80/166/130
f 126/167/131 79/99/131 80/98/131
f 64/29/132 57/18/132 125/158/132
f 57/168/133 56/169/133 125/170/133
f 125/170/134 56/169/134 126/171/134
f 56/169/135 55/172/135 126/171/135
f 126/171/136 55/172/136 79/100/136
f 55/172/137 8/37/137 79/100/137
f 60/173/138 78/38/138 8/37/138
f 59/174/139 127/175/139 60/176/139
f 58/28/140 128/177/140 59/174/140
f 60/176/141 127/175/141 78/178/141
f 127/179/142 77/114/142 78/38/142
f 59/174/143 128/177/143 127/175/143
f 128/177/144 129/180/144 127/175/144
f 127/175/145 129/180/145 77/116/145
f 129/180/146 76/117/146 77/116/146
f 58/28/147 51/15/147 128/177/147
f 51/15/148 50/181/148 128/177/148
f 128/177/149 50/181/149 129/180/149
f 50/181/150 49/182/150 129/180/150
f 129/180/151 49/182/151 76/117/151
f 49/183/152 7/184/152 76/185/152
f 54/186/153 75/35/153 7/34/153
f 53/187/154 130/188/154 54/186/154
f 52/27/155 131/189/155 53/187/155
f 54/186/156 130/188/156 75/35/156
f 130/188/157 74/129/157 75/35/157
f 53/187/158 131/189/158 130/188/158
f 131/189/159 132/190/159 130/188/159
f 130/188/160 132/190/160 74/129/160
f 132/191/161 73/132/161 74/131/161
f 52/27/162 45/26/162 131/189/162
f 45/192/163 44/193/163 131/194/163
f 131/194/164 44/193/164 132/195/164
f 44/193/165 43/196/165 132/195/165
f 132/195/166 43/196/166 73/197/166
f 43/196/167 11/46/167 73/197/167
f 67/144/168 72/145/168 10/43/168
f 68/198/169 133/199/169 67/144/169
f 69/200/170 134/201/170 68/198/170
f 67/144/171 133/199/171 72/145/171
f 133/199/172 71/146/172 72/145/172
f 68/198/173 134/201/173 133/199/173
f 134/201/174 135/202/174 133/199/174
f 133/199/175 135/202/175 71/146/175
f 135/202/176 70/30/176 71/146/176
f 69/200/177 42/203/177 134/201/177
f 42/204/178 41/205/178 134/206/178
f 134/201/179 41/207/179 135/202/179
f 41/207/180 40/208/180 135/202/180
f 135/202/181 40/208/181 70/30/181
f 40/208/182 5/19/182 70/30/182
f 61/152/183 66/209/183 9/210/183
f 62/151/184 136/211/184 61/152/184
f 63/21/185 137/212/185 62/151/185
f 61/152/186 136/211/186 66/209/186
f 136/213/187 65/214/187 66/215/187
f 62/151/188 137/212/188 136/211/188
f 137/216/189 138/217/189 136/213/189
f 136/213/190 138/217/190 65/214/190
f 138/218/191 64/29/191 65/155/191
f 63/21/192 39/20/192 137/212/192
f 39/219/193 38/220/193 137/216/193
f 137/216/194 38/220/194 138/217/194
f 38/221/195 37/222/195 138/218/195
f 138/218/196 37/222/196 64/29/196
f 37/222/197 4/16/197 64/29/197
f 55/172/198 60/173/198 8/37/198
f 56/169/199 139/223/199 55/172/199
f 57/168/200 140/224/200 56/169/200
f 55/172/201 139/223/201 60/173/201
f 139/223/202 59/225/202 60/173/202
f 56/169/203 140/224/203 139/223/203
f 140/224/204 141/226/204 139/223/204
f 139/223/205 141/226/205 59/225/205
f 141/227/206 58/28/206 59/174/206
f 57/168/207 33/228/207 140/224/207
f 33/229/208 32/230/208 140/231/208
f 140/231/209 32/230/209 141/227/209
f 32/230/210 31/232/210 141/227/210
f 141/227/211 31/232/211 58/28/211
f 31/232/212 3/13/212 58/28/212
f 49/182/213 54/186/213 7/34/213
f 50/181/214 142/233/214 49/182/214
f 51/15/215 143/234/215 50/181/215
f 49/182/216 142/233/216 54/186/216
f 142/233/217 53/187/217 54/186/217
f 50/181/218 143/234/218 142/233/218
f 143/234/219 144/235/219 142/233/219
f 142/233/220 144/235/220 53/187/220
f 144/235/221 52/27/221 53/187/221
f 51/15/222 21/14/222 143/234/222
f 21/14/223 20/236/223 143/234/223
f 143/234/224 20/236/224 144/235/224
f 20/236/225 19/237/225 144/235/225
f 144/235/226 19/237/226 52/27/226
f 19/238/227 2/4/227 52/239/227
f 43/196/228 48/134/228 11/46/228
f 44/193/229 145/240/229 43/196/229
f 45/192/230 146/241/230 44/193/230
f 43/196/231 145/240/231 48/134/231
f 145/240/232 47/135/232 48/134/232
f 44/193/233 146/241/233 145/240/233
f 146/241/234 147/242/234 145/240/234
f 145/240/235 147/242/235 47/135/235
f 147/242/236 46/137/236 47/135/236
f 45/192/237 24/6/237 146/241/237
f 24/6/238 23/243/238 146/241/238
f 146/241/239 23/243/239 147/242/239
f 23/243/240 22/244/240 147/242/240
f 147/242/241 22/244/241 46/137/241
f 22/245/242 6/31/242 46/33/242
f 27/246/243 42/23/243 6/22/243
f 26/247/244 148/248/244 27/249/244
f 25/250/245 149/251/245 26/252/245
f 27/253/246 148/254/246 42/255/246
f 148/256/247 41/205/247 42/204/247
f 26/247/248 149/257/248 148/248/248
f 149/257/249 150/258/249 148/248/249
f 148/248/250 150/258/250 41/259/250
f 150/260/251 40/208/251 41/207/251
f 25/9/252 36/8/252 149/257/252
f 36/261/253 35/262/253 149/263/253
f 149/257/254 35/264/254 150/258/254
f 35/264/255 34/265/255 150/258/255
f 150/260/256 34/266/256 40/208/256
f 34/266/257 5/19/257 40/208/257
f 34/266/258 39/20/258 5/19/258
f 35/264/259 151/267/259 34/265/259
f 36/261/260 152/268/260 35/262/260
f 34/265/261 151/267/261 39/269/261
f 151/267/262 38/270/262 39/269/262
f 35/264/263 152/271/263 151/267/263
f 152/271/264 153/272/264 151/267/264
f 151/273/265 153/274/265 38/221/265
f 153/274/266 37/222/266 38/221/266
f 36/261/267 30/275/267 152/268/267
f 30/275/268 29/276/268 152/268/268
f 152/271/269 29/277/269 153/272/269
f 29/277/270 28/278/270 153/272/270
f 153/274/271 28/279/271 37/222/271
f 28/279/272 4/16/272 37/222/272
f 28/279/273 33/17/273 4/16/273
f 29/277/274 154/280/274 28/278/274
f 30/7/1 155/281/1 29/277/1
f 28/278/275 154/280/275 33/282/275
f 154/280/276 32/283/276 33/282/276
f 29/277/1 155/281/1 154/280/1
f 155/281/1 156/284/1 154/280/1
f 154/280/277 156/284/277 32/283/277
f 156/285/278 31/232/278 32/230/278
f 30/7/1 15/3/1 155/281/1
f 15/3/1 14/286/1 155/281/1
f 155/281/1 14/286/1 156/284/1
f 14/287/279 13/288/279 156/285/279
f 156/285/280 13/288/280 31/232/280
f 13/288/281 3/13/281 31/232/281
f 22/244/282 27/246/282 6/22/282
f 23/243/283 157/289/283 22/244/283
f 24/6/284 158/290/284 23/243/284
f 22/244/285 157/289/285 27/246/285
f 157/291/286 26/247/286 27/249/286
f 23/243/287 158/290/287 157/289/287
f 158/292/288 159/293/288 157/291/288
f 157/291/289 159/293/289 26/247/289
f 159/294/290 25/250/290 26/252/290
f 24/6/291 18/5/291 158/290/291
f 18/295/1 17/296/1 158/292/1
f 158/292/1 17/296/1 159/293/1
f 17/296/1 16/2/1 159/293/1
f 159/293/1 16/2/1 25/9/1
f 16/2/1 1/1/1 25/9/1
f 13/288/292 21/14/292 3/13/292
f 14/286/293 160/297/293 13/298/293
f 15/3/1 161/299/1 14/286/1
f 13/288/294 160/300/294 21/14/294
f 160/300/295 20/236/295 21/14/295
f 14/286/296 161/299/296 160/297/296
f 161/299/297 162/301/297 160/297/297
f 160/300/298 162/302/298 20/236/298
f 162/302/299 19/237/299 20/236/299
f 15/3/1 16/2/1 161/299/1
f 16/2/1 17/296/1 161/299/1
f 161/299/1 17/296/1 162/301/1
f 17/296/1 18/295/1 162/301/1
f 162/301/300 18/295/300 19/303/300
f 18/5/301 2/4/301 19/238/301
