# Blender 5.1.2
# www.blender.org
mtllib FishingBoat.mtl
o 球
v 0.845353 0.474965 -0.008138
v 0.845353 0.494650 -0.408584
v 0.845353 0.468088 -0.611490
v 0.845353 -0.391575 -0.721301
v 0.885028 0.476114 -0.140719
v 0.923178 0.482647 -0.276030
v 0.958338 0.494650 -0.400734
v 0.989155 0.503529 -0.510037
v 1.014446 0.468088 -0.599740
v 1.033239 0.055792 -0.666396
v 1.044812 -0.391575 -0.707442
v 0.923178 0.476114 -0.132554
v 0.998012 0.482647 -0.260015
v 1.066980 0.494650 -0.377483
v 1.127430 0.503529 -0.480444
v 1.177041 0.468088 -0.564943
v 1.213905 0.055792 -0.627731
v 1.236606 -0.391575 -0.666396
v 0.958338 0.476114 -0.119296
v 1.066980 0.482647 -0.234007
v 1.167105 0.494650 -0.339726
v 1.254866 0.503529 -0.432389
v 1.326889 0.468088 -0.508435
v 1.380407 0.055792 -0.564943
v 1.413363 -0.391575 -0.599740
v 0.989155 0.476114 -0.101453
v 1.127430 0.482647 -0.199007
v 1.254866 0.494650 -0.288913
v 1.366564 0.503529 -0.367716
v 1.458232 0.468088 -0.432389
v 1.526348 0.055792 -0.480444
v 1.568293 -0.391575 -0.510037
v 1.014446 0.476114 -0.079711
v 1.177041 0.482647 -0.156358
v 1.326889 0.494650 -0.226997
v 1.458232 0.503529 -0.288913
v 1.566022 0.468088 -0.339725
v 1.646118 0.055792 -0.377483
v 1.695440 -0.391575 -0.400734
v 1.033239 0.476114 -0.054906
v 1.213905 0.482647 -0.107702
v 1.380407 0.494650 -0.156358
v 1.526348 0.503529 -0.199007
v 1.646118 0.468088 -0.234007
v 1.735115 0.055792 -0.260015
v 1.789919 -0.391575 -0.276030
v 1.044812 0.476114 -0.027991
v 1.236606 0.482647 -0.054906
v 1.413363 0.494650 -0.079711
v 1.568293 0.503529 -0.101453
v 1.695440 0.468088 -0.119296
v 1.789919 0.055792 -0.132554
v 1.848099 -0.391575 -0.140719
v 1.048720 0.476114 -0.000000
v 1.244271 0.482647 -0.000000
v 1.424491 0.494650 -0.000000
v 1.582456 0.503529 -0.000000
v 1.712094 0.468088 -0.000000
v 1.808425 0.055792 -0.000000
v 1.867744 -0.391575 0.000000
v 1.044812 0.476114 0.027991
v 1.236606 0.482647 0.054906
v 1.413363 0.494650 0.079711
v 1.568293 0.503529 0.101453
v 1.695440 0.468088 0.119296
v 1.789919 0.055792 0.132554
v 1.848099 -0.391575 0.140719
v 1.033239 0.476114 0.054906
v 1.213905 0.482647 0.107702
v 1.380407 0.494650 0.156359
v 1.526348 0.503529 0.199007
v 1.646118 0.468088 0.234007
v 1.735115 0.055792 0.260015
v 1.789919 -0.391575 0.276030
v 1.014446 0.476114 0.079711
v 1.177041 0.482647 0.156359
v 1.326889 0.494650 0.226997
v 1.458232 0.503529 0.288913
v 1.566022 0.468088 0.339726
v 1.646118 0.055792 0.377483
v 1.695440 -0.391575 0.400734
v 0.989155 0.476114 0.101453
v 1.127430 0.482647 0.199007
v 1.254866 0.494650 0.288913
v 1.366564 0.503529 0.367716
v 1.458232 0.468088 0.432389
v 1.526348 0.055792 0.480444
v 1.568293 -0.391575 0.510037
v 0.958338 0.476114 0.119296
v 1.066980 0.482647 0.234007
v 1.167105 0.494650 0.339725
v 1.254866 0.503529 0.432389
v 1.326889 0.468088 0.508435
v 1.380407 0.055792 0.564943
v 1.413363 -0.391575 0.599740
v 0.923178 0.476114 0.132554
v 0.998012 0.482647 0.260015
v 1.066980 0.494650 0.377483
v 1.127430 0.503529 0.480444
v 1.177041 0.468088 0.564943
v 1.213905 0.055792 0.627731
v 1.236605 -0.391575 0.666396
v 0.885028 0.476114 0.140719
v 0.923178 0.482647 0.276030
v 0.958338 0.494650 0.400733
v 0.989155 0.503529 0.510037
v 1.014446 0.468088 0.599740
v 1.033239 0.055792 0.666396
v 1.044812 -0.391575 0.707442
v 0.845353 0.476114 0.143476
v 0.845353 0.482647 0.281438
v 0.845353 0.494650 0.408584
v 0.845353 0.503529 0.520029
v 0.845353 0.468088 0.611490
v 0.845354 0.055792 0.679451
v 0.845353 -0.391575 0.721301
v 0.805679 0.476114 0.140719
v 0.767529 0.482647 0.276030
v 0.732369 0.494650 0.400733
v 0.701552 0.503529 0.510037
v 0.676261 0.468088 0.599740
v 0.657468 0.055792 0.666395
v 0.645895 -0.391575 0.707442
v 0.767529 0.476114 0.132554
v 0.692694 0.482647 0.260015
v 0.623727 0.494650 0.377483
v 0.563277 0.503529 0.480444
v 0.513666 0.468088 0.564943
v 0.476802 0.055792 0.627731
v 0.454101 -0.391575 0.666395
v 0.732369 0.476114 0.119296
v 0.623727 0.482647 0.234007
v 0.523602 0.494650 0.339725
v 0.435841 0.503529 0.432389
v 0.363818 0.468088 0.508435
v 0.310300 0.055792 0.564943
v 0.277344 -0.391575 0.599740
v 0.701552 0.476114 0.101453
v 0.563277 0.482647 0.199007
v 0.435841 0.494650 0.288913
v 0.324143 0.503529 0.367716
v 0.232475 0.468088 0.432388
v 0.164360 0.055792 0.480444
v 0.122414 -0.391575 0.510037
v 0.676261 0.476114 0.079711
v 0.513666 0.482647 0.156358
v 0.363818 0.494650 0.226997
v 0.232475 0.503529 0.288913
v 0.124685 0.468088 0.339725
v 0.044589 0.055792 0.377483
v -0.004733 -0.391575 0.400733
v 0.657468 0.476114 0.054906
v 0.476802 0.482647 0.107702
v 0.310300 0.494650 0.156358
v 0.164359 0.503529 0.199007
v 0.044589 0.468088 0.234007
v -0.044408 0.055792 0.260015
v -0.099212 -0.391575 0.276030
v 0.645895 0.476114 0.027991
v 0.454102 0.482647 0.054906
v 0.277344 0.494650 0.079711
v 0.122414 0.503529 0.101453
v -0.004733 0.468088 0.119296
v -0.099212 0.055792 0.132554
v -0.157392 -0.391575 0.140719
v 0.641987 0.476114 -0.000000
v 0.446437 0.482647 -0.000000
v 0.266216 0.494650 -0.000000
v 0.108251 0.503529 -0.000000
v -0.021387 0.468088 -0.000000
v -0.117717 0.055792 -0.000000
v -0.177037 -0.391575 0.000000
v 0.645895 0.476114 -0.027991
v 0.454102 0.482647 -0.054906
v 0.277344 0.494650 -0.079711
v 0.122414 0.503529 -0.101453
v -0.004733 0.468088 -0.119296
v -0.099212 0.055792 -0.132554
v -0.157392 -0.391575 -0.140719
v 0.657468 0.476114 -0.054906
v 0.476802 0.482647 -0.107702
v 0.310300 0.494650 -0.156358
v 0.164360 0.503529 -0.199007
v 0.044590 0.468088 -0.234007
v -0.044408 0.055792 -0.260015
v -0.099212 -0.391575 -0.276030
v 0.676261 0.476114 -0.079711
v 0.513666 0.482647 -0.156358
v 0.363818 0.494650 -0.226997
v 0.232475 0.503529 -0.288913
v 0.124685 0.468088 -0.339725
v 0.044589 0.055792 -0.377483
v -0.004733 -0.391575 -0.400734
v 0.701552 0.476114 -0.101453
v 0.563277 0.482647 -0.199007
v 0.435842 0.494650 -0.288913
v 0.324143 0.503529 -0.367716
v 0.232476 0.468088 -0.432388
v 0.164360 0.055792 -0.480444
v 0.122415 -0.391575 -0.510037
v 0.732369 0.476114 -0.119296
v 0.623727 0.482647 -0.234007
v 0.523602 0.494650 -0.339725
v 0.435841 0.503529 -0.432389
v 0.363818 0.468088 -0.508435
v 0.310300 0.055792 -0.564943
v 0.277344 -0.391575 -0.599740
v 0.767529 0.476114 -0.132554
v 0.692695 0.482647 -0.260015
v 0.623727 0.494650 -0.377482
v 0.563277 0.503529 -0.480444
v 0.513666 0.468088 -0.564943
v 0.476802 0.055792 -0.627731
v 0.454102 -0.391575 -0.666395
v 0.805679 0.476114 -0.140719
v 0.767529 0.482647 -0.276030
v 0.732370 0.494650 -0.400733
v 0.701552 0.503529 -0.510037
v 0.676261 0.468088 -0.599740
v 0.657468 0.055792 -0.666395
v 0.645895 -0.391575 -0.707442
v 0.845353 0.476114 -0.143476
v 0.845354 0.482647 -0.281438
v 0.845354 0.503529 -0.520029
v 0.845354 0.055792 -0.679451
v 0.000000 -0.000000 -0.982441
v 0.000000 -0.191665 -0.963564
v 0.450565 -0.000000 -0.963564
v 0.441907 -0.191665 -0.945049
v 0.416268 -0.375964 -0.890217
v 0.883815 -0.000000 -0.907657
v 0.866832 -0.191665 -0.890217
v 0.816538 -0.375964 -0.838566
v 1.283100 -0.000000 -0.816870
v 1.258446 -0.191665 -0.801174
v 1.185430 -0.375964 -0.754689
v 1.633076 -0.000000 -0.694691
v 1.601697 -0.191665 -0.681342
v 1.508766 -0.375964 -0.641811
v 1.920295 -0.000000 -0.545815
v 1.883397 -0.191665 -0.535327
v 1.774121 -0.375964 -0.504267
v 2.133717 -0.000000 -0.375964
v 2.092718 -0.191665 -0.368740
v 1.971297 -0.375964 -0.347345
v 2.265141 -0.000000 -0.191665
v 2.221618 -0.191665 -0.187982
v 2.092718 -0.375964 -0.177075
v 2.309518 0.000000 0.000000
v 2.265141 -0.191665 0.000000
v 2.133717 -0.375964 0.000000
v 2.265141 0.000000 0.191665
v 2.221618 -0.191665 0.187982
v 2.092718 -0.375964 0.177075
v 2.133716 0.000000 0.375964
v 2.092718 -0.191665 0.368740
v 1.971297 -0.375964 0.347345
v 1.920294 0.000000 0.545815
v 1.883396 -0.191665 0.535327
v 1.774121 -0.375964 0.504267
v 1.633075 0.000000 0.694691
v 1.601697 -0.191665 0.681342
v 1.508766 -0.375964 0.641810
v 1.283099 0.000000 0.816870
v 1.258445 -0.191665 0.801174
v 1.185430 -0.375964 0.754689
v 0.883813 0.000000 0.907657
v 0.866832 -0.191665 0.890217
v 0.816538 -0.375964 0.838566
v 0.450564 0.000000 0.963563
v 0.441907 -0.191665 0.945049
v 0.416268 -0.375964 0.890217
v -0.000001 0.000000 0.982441
v 0.000000 -0.191665 0.963564
v 0.000000 -0.375964 0.907657
v -0.450565 0.000000 0.963563
v -0.441908 -0.191665 0.945049
v -0.416267 -0.375964 0.890217
v -0.883815 0.000000 0.907656
v -0.866832 -0.191665 0.890216
v -0.816538 -0.375964 0.838566
v -1.283100 0.000000 0.816869
v -1.258446 -0.191665 0.801174
v -1.185429 -0.375964 0.754689
v -1.633076 0.000000 0.694690
v -1.601697 -0.191665 0.681342
v -1.508765 -0.375964 0.641810
v -1.920293 0.000000 0.545814
v -1.883396 -0.191665 0.535327
v -1.774120 -0.375964 0.504267
v -2.133716 0.000000 0.375963
v -2.092718 -0.191665 0.368740
v -1.971297 -0.375964 0.347345
v -2.265140 0.000000 0.191664
v -2.221617 -0.191665 0.187982
v -2.092717 -0.375964 0.177075
v -2.309517 0.000000 0.000000
v -2.265141 -0.191665 0.000000
v -2.133716 -0.375964 0.000000
v -2.265140 -0.000000 -0.191665
v -2.221617 -0.191665 -0.187982
v -2.092717 -0.375964 -0.177075
v -2.133715 -0.000000 -0.375964
v -2.092717 -0.191665 -0.368740
v -1.971297 -0.375964 -0.347345
v -1.920292 -0.000000 -0.545815
v -1.883395 -0.191665 -0.535327
v -1.774120 -0.375964 -0.504267
v -1.633074 -0.000000 -0.694690
v -1.601696 -0.191665 -0.681342
v -1.508765 -0.375964 -0.641810
v -1.283097 -0.000000 -0.816869
v -1.258444 -0.191665 -0.801174
v -1.185429 -0.375964 -0.754689
v -0.883813 -0.000000 -0.907656
v -0.866831 -0.191665 -0.890216
v -0.816538 -0.375964 -0.838566
v -0.450563 -0.000000 -0.963563
v -0.441906 -0.191665 -0.945049
v -0.416267 -0.375964 -0.890216
v 0.000000 -0.375964 -0.907657
v 0.000000 -0.000000 -1.000000
v 0.000000 -0.195090 -0.980785
v 0.000000 -0.555570 -0.831470
v 0.000000 -1.000000 0.000000
v 0.458618 -0.000000 -0.980785
v 0.449805 -0.195090 -0.961940
v 0.423707 -0.382683 -0.906127
v 0.381327 -0.555570 -0.815493
v 0.324292 -0.707107 -0.693520
v 0.254794 -0.831470 -0.544895
v 0.175505 -0.923880 -0.375330
v 0.089472 -0.980785 -0.191342
v 0.899611 -0.000000 -0.923879
v 0.882325 -0.195090 -0.906127
v 0.831132 -0.382683 -0.853553
v 0.747999 -0.555570 -0.768178
v 0.636121 -0.707107 -0.653281
v 0.499797 -0.831470 -0.513280
v 0.344266 -0.923880 -0.353553
v 0.175505 -0.980785 -0.180240
v 1.306032 -0.000000 -0.831469
v 1.280937 -0.195090 -0.815493
v 1.206616 -0.382683 -0.768178
v 1.085926 -0.555570 -0.691342
v 0.923504 -0.707107 -0.587938
v 0.725593 -0.831470 -0.461940
v 0.499797 -0.923880 -0.318190
v 0.254794 -0.980785 -0.162212
v 1.662264 -0.000000 -0.707107
v 1.630324 -0.195090 -0.693520
v 1.535731 -0.382683 -0.653281
v 1.382122 -0.555570 -0.587938
v 1.175398 -0.707107 -0.500000
v 0.923504 -0.831470 -0.392847
v 0.636121 -0.923880 -0.270598
v 0.324292 -0.980785 -0.137950
v 1.954615 -0.000000 -0.555570
v 1.917058 -0.195090 -0.544895
v 1.805829 -0.382683 -0.513280
v 1.625203 -0.555570 -0.461940
v 1.382122 -0.707107 -0.392848
v 1.085926 -0.831470 -0.308658
v 0.747999 -0.923880 -0.212608
v 0.381327 -0.980785 -0.108386
v 2.171852 -0.000000 -0.382683
v 2.130121 -0.195090 -0.375330
v 2.006530 -0.382683 -0.353553
v 1.805829 -0.555570 -0.318190
v 1.535731 -0.707107 -0.270598
v 1.206616 -0.831470 -0.212607
v 0.831132 -0.923880 -0.146447
v 0.423707 -0.980785 -0.074658
v 2.305626 -0.000000 -0.195090
v 2.261324 -0.195090 -0.191342
v 2.130121 -0.382683 -0.180240
v 1.917058 -0.555570 -0.162212
v 1.630324 -0.707107 -0.137950
v 1.280937 -0.831470 -0.108386
v 0.882325 -0.923880 -0.074658
v 0.449805 -0.980785 -0.038060
v 2.350795 0.000000 0.000000
v 2.305626 -0.195090 0.000000
v 2.171852 -0.382683 0.000000
v 1.954615 -0.555570 0.000000
v 1.662264 -0.707107 0.000000
v 1.306032 -0.831470 0.000000
v 0.899611 -0.923880 0.000000
v 0.458617 -0.980785 0.000000
v 2.305625 0.000000 0.195090
v 2.261323 -0.195090 0.191342
v 2.130121 -0.382683 0.180240
v 1.917058 -0.555570 0.162212
v 1.630324 -0.707107 0.137950
v 1.280937 -0.831470 0.108386
v 0.882325 -0.923880 0.074658
v 0.449805 -0.980785 0.038060
v 2.171851 0.000000 0.382683
v 2.130120 -0.195090 0.375330
v 2.006530 -0.382683 0.353553
v 1.805829 -0.555570 0.318190
v 1.535731 -0.707107 0.270598
v 1.206616 -0.831470 0.212608
v 0.831132 -0.923880 0.146447
v 0.423707 -0.980785 0.074658
v 1.954614 0.000000 0.555570
v 1.917058 -0.195090 0.544895
v 1.805829 -0.382683 0.513280
v 1.625203 -0.555570 0.461940
v 1.382122 -0.707107 0.392847
v 1.085926 -0.831470 0.308658
v 0.747999 -0.923880 0.212608
v 0.381326 -0.980785 0.108386
v 1.662263 0.000000 0.707107
v 1.630324 -0.195090 0.693520
v 1.535731 -0.382683 0.653281
v 1.382121 -0.555570 0.587938
v 1.175398 -0.707107 0.500000
v 0.923504 -0.831470 0.392847
v 0.636121 -0.923880 0.270598
v 0.324291 -0.980785 0.137950
v 1.306031 0.000000 0.831469
v 1.280937 -0.195090 0.815493
v 1.206616 -0.382683 0.768178
v 1.085926 -0.555570 0.691342
v 0.923504 -0.707107 0.587938
v 0.725592 -0.831470 0.461940
v 0.499797 -0.923880 0.318190
v 0.254794 -0.980785 0.162212
v 0.899610 0.000000 0.923879
v 0.882324 -0.195090 0.906127
v 0.831132 -0.382683 0.853553
v 0.747999 -0.555570 0.768178
v 0.636121 -0.707107 0.653281
v 0.499797 -0.831470 0.513280
v 0.344266 -0.923880 0.353553
v 0.175505 -0.980785 0.180240
v 0.458617 0.000000 0.980785
v 0.449805 -0.195090 0.961939
v 0.423707 -0.382683 0.906127
v 0.381326 -0.555570 0.815493
v 0.324292 -0.707107 0.693520
v 0.254794 -0.831470 0.544895
v 0.175505 -0.923880 0.375330
v 0.089472 -0.980785 0.191342
v -0.000001 0.000000 0.999999
v 0.000000 -0.195090 0.980785
v 0.000000 -0.382683 0.923879
v 0.000000 -0.555570 0.831469
v 0.000000 -0.707107 0.707107
v 0.000000 -0.831470 0.555570
v 0.000000 -0.923880 0.382683
v 0.000000 -0.980785 0.195090
v -0.458618 0.000000 0.980785
v -0.449805 -0.195090 0.961939
v -0.423707 -0.382683 0.906127
v -0.381327 -0.555570 0.815493
v -0.324292 -0.707107 0.693520
v -0.254794 -0.831470 0.544895
v -0.175505 -0.923880 0.375330
v -0.089472 -0.980785 0.191342
v -0.899611 0.000000 0.923879
v -0.882325 -0.195090 0.906127
v -0.831132 -0.382683 0.853553
v -0.747999 -0.555570 0.768177
v -0.636121 -0.707107 0.653281
v -0.499797 -0.831470 0.513280
v -0.344266 -0.923880 0.353553
v -0.175505 -0.980785 0.180240
v -1.306032 0.000000 0.831469
v -1.280937 -0.195090 0.815493
v -1.206616 -0.382683 0.768178
v -1.085926 -0.555570 0.691341
v -0.923504 -0.707107 0.587938
v -0.725592 -0.831470 0.461939
v -0.499797 -0.923880 0.318190
v -0.254794 -0.980785 0.162212
v -1.662263 0.000000 0.707106
v -1.630324 -0.195090 0.693520
v -1.535731 -0.382683 0.653281
v -1.382121 -0.555570 0.587937
v -1.175398 -0.707107 0.500000
v -0.923504 -0.831470 0.392847
v -0.636121 -0.923880 0.270598
v -0.324291 -0.980785 0.137950
v -1.954614 0.000000 0.555569
v -1.917058 -0.195090 0.544895
v -1.805829 -0.382683 0.513280
v -1.625203 -0.555570 0.461939
v -1.382121 -0.707107 0.392847
v -1.085926 -0.831470 0.308658
v -0.747999 -0.923880 0.212607
v -0.381326 -0.980785 0.108386
v -2.171851 0.000000 0.382683
v -2.130120 -0.195090 0.375330
v -2.006529 -0.382683 0.353553
v -1.805828 -0.555570 0.318189
v -1.535731 -0.707107 0.270598
v -1.206616 -0.831470 0.212607
v -0.831132 -0.923880 0.146447
v -0.423707 -0.980785 0.074658
v -2.305624 0.000000 0.195090
v -2.261323 -0.195090 0.191341
v -2.130120 -0.382683 0.180240
v -1.917057 -0.555570 0.162211
v -1.630324 -0.707107 0.137950
v -1.280936 -0.831470 0.108386
v -0.882325 -0.923880 0.074658
v -0.449805 -0.980785 0.038060
v -2.350794 0.000000 0.000000
v -2.305625 -0.195090 0.000000
v -2.171852 -0.382683 0.000000
v -1.954614 -0.555570 0.000000
v -1.662264 -0.707107 0.000000
v -1.306031 -0.831470 0.000000
v -0.899610 -0.923880 0.000000
v -0.458617 -0.980785 0.000000
v -2.305624 -0.000000 -0.195091
v -2.261323 -0.195090 -0.191342
v -2.130120 -0.382683 -0.180240
v -1.917057 -0.555570 -0.162212
v -1.630324 -0.707107 -0.137950
v -1.280936 -0.831470 -0.108386
v -0.882324 -0.923880 -0.074658
v -0.449805 -0.980785 -0.038060
v -2.171850 -0.000000 -0.382683
v -2.130119 -0.195090 -0.375330
v -2.006529 -0.382683 -0.353553
v -1.805828 -0.555570 -0.318190
v -1.535731 -0.707107 -0.270598
v -1.206615 -0.831470 -0.212607
v -0.831131 -0.923880 -0.146447
v -0.423707 -0.980785 -0.074658
v -1.954613 -0.000000 -0.555570
v -1.917057 -0.195090 -0.544895
v -1.805828 -0.382683 -0.513280
v -1.625202 -0.555570 -0.461940
v -1.382121 -0.707107 -0.392847
v -1.085925 -0.831470 -0.308658
v -0.747999 -0.923880 -0.212607
v -0.381326 -0.980785 -0.108386
v -1.662261 -0.000000 -0.707106
v -1.630323 -0.195090 -0.693520
v -1.535731 -0.382683 -0.653281
v -1.382120 -0.555570 -0.587938
v -1.175398 -0.707107 -0.500000
v -0.923503 -0.831470 -0.392847
v -0.636121 -0.923880 -0.270598
v -0.324291 -0.980785 -0.137950
v -1.306030 -0.000000 -0.831469
v -1.280936 -0.195090 -0.815493
v -1.206616 -0.382683 -0.768177
v -1.085925 -0.555570 -0.691341
v -0.923504 -0.707107 -0.587938
v -0.725592 -0.831470 -0.461939
v -0.499797 -0.923880 -0.318190
v -0.254794 -0.980785 -0.162212
v -0.899609 -0.000000 -0.923879
v -0.882324 -0.195090 -0.906127
v -0.831131 -0.382683 -0.853553
v -0.747998 -0.555570 -0.768177
v -0.636121 -0.707107 -0.653281
v -0.499796 -0.831470 -0.513279
v -0.344266 -0.923880 -0.353553
v -0.175505 -0.980785 -0.180240
v -0.458616 -0.000000 -0.980784
v -0.449804 -0.195090 -0.961939
v -0.423707 -0.382683 -0.906127
v -0.381326 -0.555570 -0.815493
v -0.324291 -0.707107 -0.693520
v -0.254794 -0.831470 -0.544895
v -0.175505 -0.923880 -0.375330
v -0.089472 -0.980785 -0.191342
v 0.000000 -0.382683 -0.923879
v 0.000000 -0.707107 -0.707107
v 0.000000 -0.831470 -0.555570
v 0.000000 -0.923880 -0.382683
v 0.000000 -0.980785 -0.195090
vn 0.0690 0.0929 -0.9933
vn -0.0000 1.0000 0.0085
vn -0.0050 1.0000 0.0001
vn -0.0012 1.0000 0.0083
vn -0.0000 0.9989 0.0473
vn -0.0095 0.9989 0.0456
vn -0.0036 0.9989 0.0473
vn -0.0000 0.9956 0.0940
vn -0.0188 0.9957 0.0906
vn -0.0071 0.9956 0.0939
vn -0.0000 0.9968 0.0794
vn -0.0159 0.9969 0.0765
vn -0.0060 0.9968 0.0792
vn 0.0251 0.9321 -0.3612
vn 0.0684 0.1623 -0.9844
vn 0.2064 0.1653 -0.9644
vn 0.2083 0.0947 -0.9735
vn -0.0018 1.0000 0.0080
vn -0.0154 0.9990 0.0421
vn -0.0101 0.9989 0.0452
vn -0.0305 0.9960 0.0837
vn -0.0202 0.9958 0.0898
vn -0.0258 0.9972 0.0707
vn -0.0171 0.9970 0.0758
vn 0.0745 0.9345 -0.3482
vn -0.0207 0.9991 0.0371
vn -0.0163 0.9990 0.0413
vn -0.0314 0.9960 0.0833
vn -0.0348 0.9975 0.0623
vn -0.0272 0.9972 0.0695
vn 0.1216 0.9388 -0.3224
vn 0.3476 0.1715 -0.9218
vn 0.3511 0.0983 -0.9311
vn -0.0030 1.0000 0.0074
vn 0.4928 0.1806 -0.8512
vn 0.4984 0.1037 -0.8607
vn -0.0040 1.0000 0.0064
vn -0.0255 0.9992 0.0308
vn -0.0218 0.9991 0.0360
vn -0.0423 0.9964 0.0731
vn -0.0428 0.9977 0.0517
vn -0.0365 0.9975 0.0606
vn 0.1646 0.9445 -0.2843
vn -0.0516 0.9969 0.0600
vn -0.0436 0.9978 0.0507
vn 0.2019 0.9508 -0.2349
vn 0.6397 0.1924 -0.7441
vn 0.6479 0.1106 -0.7537
vn -0.0047 1.0000 0.0050
vn -0.0293 0.9993 0.0230
vn -0.0263 0.9992 0.0294
vn 0.7915 0.1184 -0.5996
vn -0.0051 1.0000 0.0037
vn -0.0320 0.9994 0.0144
vn -0.0298 0.9993 0.0218
vn -0.0502 0.9980 0.0381
vn -0.0589 0.9973 0.0446
vn -0.0579 0.9974 0.0439
vn -0.0497 0.9981 0.0377
vn 0.2318 0.9568 -0.1756
vn 0.7800 0.2057 -0.5910
vn -0.0543 0.9982 0.0234
vn -0.0639 0.9976 0.0275
vn -0.0631 0.9976 0.0271
vn -0.0540 0.9983 0.0232
vn 0.2527 0.9614 -0.1087
vn 0.8966 0.2179 -0.3855
vn 0.9114 0.1257 -0.3919
vn -0.0055 1.0000 0.0023
vn -0.0334 0.9994 0.0051
vn -0.0322 0.9994 0.0134
vn 0.9820 0.1302 -0.1371
vn -0.0056 1.0000 -0.0000
vn -0.0334 0.9994 -0.0000
vn -0.0613 0.9981 0.0086
vn -0.0665 0.9977 0.0093
vn -0.0661 0.9978 0.0091
vn -0.0561 0.9984 0.0078
vn 0.2635 0.9639 -0.0368
vn 0.9649 0.2254 -0.1347
vn -0.0661 0.9978 -0.0091
vn -0.0561 0.9984 -0.0078
vn 0.2635 0.9639 0.0368
vn 0.9649 0.2254 0.1347
vn 0.9820 0.1302 0.1371
vn -0.0055 1.0000 -0.0015
vn -0.0322 0.9994 -0.0134
vn -0.0665 0.9977 -0.0093
vn -0.0613 0.9981 -0.0086
vn -0.0049 1.0000 -0.0035
vn -0.0334 0.9994 -0.0051
vn -0.0298 0.9993 -0.0218
vn -0.0639 0.9976 -0.0275
vn -0.0543 0.9982 -0.0234
vn -0.0631 0.9976 -0.0272
vn -0.0540 0.9983 -0.0232
vn 0.2527 0.9614 0.1087
vn 0.8966 0.2179 0.3855
vn 0.9114 0.1257 0.3919
vn 0.2318 0.9568 0.1756
vn 0.7800 0.2057 0.5910
vn 0.7915 0.1184 0.5996
vn -0.0043 1.0000 -0.0047
vn -0.0320 0.9994 -0.0144
vn -0.0263 0.9992 -0.0294
vn -0.0589 0.9973 -0.0446
vn -0.0502 0.9980 -0.0381
vn -0.0579 0.9974 -0.0439
vn -0.0497 0.9981 -0.0377
vn -0.0042 1.0000 -0.0049
vn -0.0293 0.9993 -0.0230
vn -0.0218 0.9991 -0.0360
vn -0.0516 0.9969 -0.0600
vn -0.0461 0.9977 -0.0506
vn -0.0507 0.9970 -0.0589
vn -0.0365 0.9975 -0.0606
vn -0.0436 0.9978 -0.0507
vn 0.2019 0.9508 0.2349
vn 0.6397 0.1924 0.7441
vn 0.6479 0.1106 0.7537
vn 0.1646 0.9445 0.2843
vn 0.4928 0.1806 0.8512
vn 0.4984 0.1037 0.8607
vn -0.0034 1.0000 -0.0060
vn 0.0052 1.0000 0.0001
vn -0.0027 1.0000 -0.0067
vn -0.0255 0.9992 -0.0308
vn -0.0163 0.9990 -0.0413
vn -0.0423 0.9964 -0.0731
vn -0.0273 0.9972 -0.0694
vn -0.0207 0.9991 -0.0371
vn -0.0101 0.9989 -0.0452
vn -0.0314 0.9960 -0.0833
vn -0.0202 0.9958 -0.0898
vn -0.0348 0.9975 -0.0623
vn -0.0171 0.9970 -0.0758
vn 0.1216 0.9388 0.3224
vn 0.3476 0.1715 0.9218
vn 0.3511 0.0983 0.9311
vn -0.0021 1.0000 -0.0070
vn 0.2064 0.1653 0.9644
vn 0.2083 0.0947 0.9735
vn -0.0011 1.0000 -0.0074
vn -0.0154 0.9990 -0.0421
vn -0.0036 0.9989 -0.0473
vn -0.0306 0.9960 -0.0837
vn -0.0071 0.9956 -0.0939
vn -0.0258 0.9972 -0.0707
vn -0.0060 0.9968 -0.0792
vn 0.0745 0.9345 0.3482
vn -0.0095 0.9989 -0.0456
vn -0.0000 0.9989 -0.0473
vn -0.0188 0.9957 -0.0906
vn -0.0000 0.9956 -0.0940
vn -0.0159 0.9969 -0.0765
vn -0.0000 0.9968 -0.0794
vn 0.0251 0.9321 0.3612
vn 0.0684 0.1623 0.9844
vn 0.0690 0.0929 0.9933
vn -0.0000 1.0000 -0.0076
vn -0.0684 0.1623 0.9844
vn -0.0690 0.0929 0.9933
vn 0.0011 1.0000 -0.0074
vn 0.0095 0.9989 -0.0456
vn 0.0036 0.9989 -0.0473
vn 0.0188 0.9957 -0.0906
vn 0.0071 0.9956 -0.0939
vn 0.0159 0.9969 -0.0765
vn 0.0060 0.9968 -0.0792
vn -0.0251 0.9321 0.3612
vn 0.0305 0.9960 -0.0837
vn 0.0202 0.9958 -0.0898
vn 0.0258 0.9972 -0.0707
vn 0.0171 0.9970 -0.0758
vn -0.0745 0.9345 0.3482
vn -0.2064 0.1653 0.9644
vn -0.2083 0.0947 0.9735
vn 0.0021 1.0000 -0.0070
vn 0.0154 0.9990 -0.0421
vn 0.0101 0.9989 -0.0452
vn -0.3511 0.0983 0.9312
vn 0.0027 1.0000 -0.0068
vn 0.0207 0.9991 -0.0371
vn 0.0163 0.9990 -0.0413
vn 0.0314 0.9960 -0.0833
vn 0.0348 0.9975 -0.0623
vn 0.0273 0.9972 -0.0694
vn -0.1216 0.9388 0.3224
vn -0.3476 0.1715 0.9218
vn 0.0357 0.9975 -0.0617
vn -0.1646 0.9445 0.2843
vn -0.4928 0.1806 0.8512
vn -0.4984 0.1037 0.8607
vn 0.0036 1.0000 -0.0058
vn 0.0255 0.9992 -0.0308
vn 0.0218 0.9991 -0.0360
vn 0.0423 0.9964 -0.0731
vn 0.0043 1.0000 -0.0047
vn 0.0293 0.9993 -0.0230
vn 0.0263 0.9992 -0.0294
vn 0.0442 0.9977 -0.0513
vn 0.0516 0.9969 -0.0600
vn 0.0507 0.9970 -0.0589
vn 0.0436 0.9978 -0.0507
vn -0.2019 0.9508 0.2349
vn -0.6397 0.1924 0.7441
vn -0.6479 0.1106 0.7537
vn 0.0497 0.9981 -0.0377
vn 0.0579 0.9974 -0.0439
vn -0.2318 0.9568 0.1756
vn -0.7800 0.2057 0.5910
vn -0.7915 0.1184 0.5996
vn 0.0049 1.0000 -0.0035
vn 0.0320 0.9994 -0.0144
vn 0.0298 0.9993 -0.0218
vn 0.0502 0.9980 -0.0381
vn 0.0589 0.9973 -0.0446
vn 0.0055 1.0000 -0.0015
vn 0.0334 0.9994 -0.0051
vn 0.0322 0.9994 -0.0134
vn 0.0543 0.9982 -0.0234
vn 0.0639 0.9976 -0.0275
vn 0.0631 0.9976 -0.0271
vn 0.0540 0.9983 -0.0232
vn -0.2527 0.9614 0.1087
vn -0.8966 0.2179 0.3855
vn -0.9114 0.1257 0.3919
vn -0.2635 0.9639 0.0368
vn -0.9649 0.2254 0.1347
vn -0.9820 0.1302 0.1371
vn 0.0056 1.0000 -0.0000
vn 0.0334 0.9994 -0.0000
vn 0.0613 0.9981 -0.0086
vn 0.0665 0.9977 -0.0093
vn 0.0661 0.9978 -0.0091
vn 0.0561 0.9984 -0.0078
vn 0.0055 1.0000 0.0023
vn 0.0322 0.9994 0.0134
vn 0.0665 0.9977 0.0093
vn 0.0613 0.9981 0.0086
vn 0.0661 0.9978 0.0091
vn 0.0561 0.9984 0.0078
vn -0.2635 0.9639 -0.0368
vn -0.9649 0.2254 -0.1347
vn -0.9820 0.1302 -0.1371
vn -0.2527 0.9614 -0.1087
vn -0.8966 0.2179 -0.3855
vn -0.9114 0.1257 -0.3919
vn 0.0051 1.0000 0.0037
vn 0.0334 0.9994 0.0051
vn 0.0298 0.9993 0.0218
vn 0.0639 0.9976 0.0275
vn 0.0543 0.9982 0.0234
vn 0.0631 0.9976 0.0272
vn 0.0540 0.9983 0.0232
vn 0.0320 0.9994 0.0144
vn 0.0263 0.9992 0.0294
vn 0.0589 0.9973 0.0446
vn 0.0502 0.9980 0.0381
vn 0.0579 0.9974 0.0439
vn 0.0497 0.9981 0.0377
vn -0.2318 0.9568 -0.1756
vn -0.7800 0.2057 -0.5910
vn -0.7915 0.1184 -0.5996
vn 0.0047 1.0000 0.0050
vn -0.6397 0.1924 -0.7441
vn -0.6479 0.1106 -0.7537
vn 0.0046 1.0000 0.0053
vn 0.0293 0.9993 0.0230
vn 0.0217 0.9991 0.0360
vn 0.0516 0.9969 0.0600
vn 0.0461 0.9977 0.0506
vn 0.0507 0.9970 0.0589
vn 0.0365 0.9975 0.0606
vn 0.0436 0.9978 0.0507
vn -0.2019 0.9508 -0.2349
vn 0.0423 0.9964 0.0731
vn 0.0273 0.9972 0.0694
vn -0.1646 0.9445 -0.2843
vn -0.4928 0.1806 -0.8512
vn -0.4984 0.1037 -0.8607
vn 0.0038 1.0000 0.0065
vn 0.0029 1.0000 0.0075
vn 0.0255 0.9992 0.0308
vn 0.0163 0.9990 0.0413
vn -0.3511 0.0983 -0.9312
vn 0.0018 1.0000 0.0080
vn 0.0207 0.9991 0.0371
vn 0.0101 0.9989 0.0452
vn 0.0314 0.9960 0.0833
vn 0.0202 0.9958 0.0898
vn 0.0348 0.9975 0.0623
vn 0.0171 0.9970 0.0758
vn -0.1216 0.9388 -0.3224
vn -0.3476 0.1715 -0.9218
vn 0.0305 0.9960 0.0837
vn 0.0071 0.9956 0.0939
vn 0.0258 0.9972 0.0707
vn 0.0060 0.9968 0.0792
vn -0.0745 0.9345 -0.3482
vn -0.2064 0.1653 -0.9644
vn -0.2083 0.0947 -0.9735
vn 0.0012 1.0000 0.0083
vn 0.0154 0.9990 0.0421
vn 0.0036 0.9989 0.0473
vn -0.0690 0.0929 -0.9933
vn 0.0095 0.9989 0.0456
vn 0.0188 0.9957 0.0906
vn 0.0159 0.9969 0.0765
vn -0.0251 0.9321 -0.3612
vn -0.0684 0.1623 -0.9844
vn -0.0417 0.0979 0.9943
vn -0.0401 0.2901 0.9562
vn -0.1273 0.1011 0.9867
vn -0.1221 0.2986 0.9465
vn -0.2204 0.1077 0.9694
vn -0.2103 0.3166 0.9249
vn -0.3273 0.1189 0.9374
vn -0.3092 0.3459 0.8858
vn -0.4239 0.3892 0.8178
vn -0.4559 0.1359 0.8796
vn -0.6146 0.1606 0.7723
vn -0.5567 0.4480 0.6995
vn -0.6970 0.5169 0.4970
vn -0.7990 0.1924 0.5698
vn -0.9504 0.2200 0.2200
vn -0.8001 0.5706 0.1852
vn -0.8001 0.5706 0.1853
vn -0.9504 0.2200 -0.2200
vn -0.8001 0.5706 -0.1852
vn -0.7990 0.1924 -0.5698
vn -0.6970 0.5169 -0.4970
vn -0.6146 0.1606 -0.7723
vn -0.5567 0.4480 -0.6995
vn -0.4559 0.1359 -0.8796
vn -0.4239 0.3892 -0.8178
vn -0.3273 0.1189 -0.9374
vn -0.3092 0.3459 -0.8858
vn -0.2204 0.1077 -0.9694
vn -0.2103 0.3166 -0.9249
vn -0.1273 0.1011 -0.9867
vn -0.1221 0.2986 -0.9465
vn -0.0417 0.0979 -0.9943
vn -0.0401 0.2901 -0.9562
vn 0.0417 0.0979 -0.9943
vn 0.0401 0.2901 -0.9562
vn 0.1221 0.2986 -0.9465
vn 0.1273 0.1011 -0.9867
vn 0.2204 0.1077 -0.9694
vn 0.2103 0.3166 -0.9249
vn 0.3273 0.1189 -0.9374
vn 0.3092 0.3459 -0.8858
vn 0.4559 0.1359 -0.8796
vn 0.4239 0.3892 -0.8178
vn 0.6146 0.1606 -0.7723
vn 0.5567 0.4480 -0.6995
vn 0.7990 0.1924 -0.5698
vn 0.6970 0.5169 -0.4970
vn 0.9504 0.2200 -0.2200
vn 0.8001 0.5706 -0.1852
vn 0.8001 0.5706 -0.1853
vn 0.9504 0.2200 0.2200
vn 0.8001 0.5706 0.1852
vn 0.7990 0.1924 0.5698
vn 0.6970 0.5169 0.4970
vn 0.6146 0.1606 0.7723
vn 0.5567 0.4480 0.6995
vn 0.4559 0.1359 0.8796
vn 0.4239 0.3892 0.8178
vn 0.3092 0.3459 0.8858
vn 0.3273 0.1189 0.9374
vn 0.2204 0.1077 0.9694
vn 0.2103 0.3166 0.9249
vn 0.1221 0.2986 0.9465
vn 0.1273 0.1011 0.9867
vn 0.0417 0.0979 0.9943
vn 0.0401 0.2901 0.9562
vn -0.0000 1.0000 -0.0000
vn 0.0197 -0.8817 -0.4713
vn 0.0122 -0.9569 -0.2903
vn 0.0117 -0.9955 -0.0946
vn 0.0041 -0.9952 -0.0980
vn 0.0049 -0.9952 -0.0977
vn 0.0417 -0.0979 -0.9943
vn 0.0401 -0.2901 -0.9562
vn 0.0369 -0.4711 -0.8813
vn 0.0324 -0.6341 -0.7726
vn 0.0266 -0.7727 -0.6342
vn 0.0797 -0.7825 -0.6175
vn 0.0589 -0.8879 -0.4563
vn 0.0361 -0.9594 -0.2798
vn 0.0122 -0.9955 -0.0943
vn 0.1273 -0.1011 -0.9867
vn 0.1221 -0.2986 -0.9465
vn 0.1121 -0.4828 -0.8685
vn 0.0977 -0.6461 -0.7570
vn 0.2204 -0.1077 -0.9694
vn 0.2103 -0.3166 -0.9249
vn 0.1911 -0.5070 -0.8405
vn 0.1646 -0.6702 -0.7237
vn 0.1326 -0.8016 -0.5830
vn 0.0969 -0.8995 -0.4261
vn 0.0589 -0.9640 -0.2592
vn 0.0261 -0.9967 -0.0772
vn 0.0198 -0.9960 -0.0869
vn 0.0211 -0.9962 -0.0850
vn 0.1844 -0.8288 -0.5283
vn 0.1327 -0.9154 -0.3801
vn 0.0798 -0.9702 -0.2286
vn 0.0266 -0.9967 -0.0763
vn 0.3273 -0.1189 -0.9374
vn 0.3092 -0.3459 -0.8858
vn 0.3093 -0.3459 -0.8858
vn 0.2764 -0.5448 -0.7917
vn 0.2334 -0.7062 -0.6684
vn 0.4239 -0.3892 -0.8178
vn 0.3691 -0.5971 -0.7122
vn 0.3030 -0.7526 -0.5846
vn 0.2336 -0.8616 -0.4507
vn 0.1649 -0.9336 -0.3181
vn 0.0979 -0.9771 -0.1889
vn 0.0325 -0.9975 -0.0626
vn 0.4559 -0.1359 -0.8796
vn 0.1917 -0.9514 -0.2409
vn 0.1125 -0.9836 -0.1413
vn 0.0371 -0.9982 -0.0466
vn 0.6146 -0.1606 -0.7723
vn 0.5567 -0.4480 -0.6995
vn 0.4668 -0.6619 -0.5865
vn 0.3697 -0.8047 -0.4645
vn 0.2771 -0.8956 -0.3481
vn 0.6970 -0.5169 -0.4970
vn 0.5576 -0.7287 -0.3976
vn 0.4251 -0.8529 -0.3031
vn 0.3103 -0.9245 -0.2213
vn 0.2112 -0.9658 -0.1506
vn 0.1227 -0.9886 -0.0875
vn 0.0402 -0.9988 -0.0287
vn 0.7990 -0.1924 -0.5698
vn 0.2214 -0.9738 -0.0513
vn 0.1279 -0.9913 -0.0296
vn 0.0419 -0.9991 -0.0097
vn 0.9504 -0.2200 -0.2200
vn 0.8001 -0.5706 -0.1852
vn 0.6163 -0.7744 -0.1427
vn 0.4576 -0.8828 -0.1059
vn 0.3286 -0.9414 -0.0761
vn 0.6163 -0.7744 0.1427
vn 0.4576 -0.8828 0.1059
vn 0.3286 -0.9414 0.0761
vn 0.2214 -0.9738 0.0513
vn 0.1279 -0.9913 0.0296
vn 0.0419 -0.9991 0.0097
vn 0.9504 -0.2200 0.2200
vn 0.8001 -0.5706 0.1852
vn 0.8001 -0.5705 0.1852
vn 0.1227 -0.9886 0.0875
vn 0.0402 -0.9988 0.0287
vn 0.7990 -0.1924 0.5698
vn 0.6970 -0.5169 0.4970
vn 0.5576 -0.7287 0.3976
vn 0.4251 -0.8529 0.3031
vn 0.3103 -0.9245 0.2213
vn 0.2112 -0.9658 0.1506
vn 0.3697 -0.8047 0.4645
vn 0.2771 -0.8956 0.3481
vn 0.1917 -0.9514 0.2409
vn 0.1125 -0.9836 0.1413
vn 0.0371 -0.9982 0.0466
vn 0.6146 -0.1606 0.7723
vn 0.5567 -0.4480 0.6995
vn 0.4668 -0.6619 0.5865
vn 0.0325 -0.9975 0.0626
vn 0.4559 -0.1359 0.8796
vn 0.4239 -0.3892 0.8178
vn 0.3691 -0.5971 0.7122
vn 0.3030 -0.7526 0.5846
vn 0.2336 -0.8616 0.4507
vn 0.1649 -0.9336 0.3181
vn 0.0979 -0.9771 0.1889
vn 0.2334 -0.7062 0.6684
vn 0.1844 -0.8288 0.5283
vn 0.1327 -0.9154 0.3801
vn 0.0798 -0.9702 0.2286
vn 0.0261 -0.9967 0.0772
vn 0.0266 -0.9967 0.0763
vn 0.0211 -0.9962 0.0850
vn 0.3273 -0.1189 0.9374
vn 0.3092 -0.3459 0.8858
vn 0.3093 -0.3459 0.8858
vn 0.2764 -0.5448 0.7917
vn 0.0198 -0.9960 0.0869
vn 0.2204 -0.1077 0.9694
vn 0.2103 -0.3166 0.9249
vn 0.1911 -0.5070 0.8405
vn 0.1646 -0.6702 0.7237
vn 0.1326 -0.8016 0.5830
vn 0.0969 -0.8995 0.4261
vn 0.0589 -0.9640 0.2592
vn 0.0797 -0.7825 0.6175
vn 0.0589 -0.8879 0.4563
vn 0.0361 -0.9594 0.2798
vn 0.0117 -0.9955 0.0946
vn 0.0122 -0.9955 0.0943
vn 0.0049 -0.9952 0.0977
vn 0.1273 -0.1011 0.9867
vn 0.1221 -0.2986 0.9465
vn 0.1121 -0.4828 0.8685
vn 0.0977 -0.6461 0.7570
vn 0.0417 -0.0979 0.9943
vn 0.0401 -0.2901 0.9562
vn 0.0369 -0.4711 0.8813
vn 0.0324 -0.6341 0.7726
vn 0.0266 -0.7727 0.6342
vn 0.0197 -0.8817 0.4713
vn 0.0122 -0.9569 0.2903
vn 0.0041 -0.9952 0.0980
vn -0.0266 -0.7727 0.6342
vn -0.0197 -0.8817 0.4713
vn -0.0122 -0.9569 0.2903
vn -0.0117 -0.9955 0.0946
vn -0.0041 -0.9952 0.0980
vn -0.0049 -0.9952 0.0977
vn -0.0417 -0.0979 0.9943
vn -0.0401 -0.2901 0.9562
vn -0.0369 -0.4711 0.8813
vn -0.0324 -0.6341 0.7726
vn -0.1221 -0.2986 0.9465
vn -0.1121 -0.4828 0.8685
vn -0.0977 -0.6461 0.7570
vn -0.0797 -0.7825 0.6175
vn -0.0589 -0.8879 0.4563
vn -0.0361 -0.9594 0.2798
vn -0.0122 -0.9955 0.0943
vn -0.1273 -0.1011 0.9867
vn -0.0969 -0.8995 0.4261
vn -0.0589 -0.9640 0.2592
vn -0.0261 -0.9967 0.0772
vn -0.0198 -0.9960 0.0869
vn -0.0211 -0.9962 0.0850
vn -0.2204 -0.1077 0.9694
vn -0.2103 -0.3166 0.9249
vn -0.1911 -0.5070 0.8405
vn -0.1646 -0.6702 0.7237
vn -0.1326 -0.8016 0.5830
vn -0.2764 -0.5448 0.7917
vn -0.2334 -0.7062 0.6684
vn -0.1844 -0.8288 0.5283
vn -0.1327 -0.9154 0.3801
vn -0.0798 -0.9702 0.2286
vn -0.0266 -0.9967 0.0763
vn -0.3273 -0.1189 0.9374
vn -0.3092 -0.3459 0.8858
vn -0.3093 -0.3459 0.8858
vn -0.0979 -0.9771 0.1889
vn -0.0325 -0.9975 0.0626
vn -0.4559 -0.1359 0.8796
vn -0.4239 -0.3892 0.8178
vn -0.3691 -0.5971 0.7122
vn -0.3030 -0.7526 0.5846
vn -0.2336 -0.8615 0.4507
vn -0.2336 -0.8616 0.4507
vn -0.1649 -0.9336 0.3181
vn -0.4668 -0.6619 0.5865
vn -0.3697 -0.8047 0.4645
vn -0.2771 -0.8956 0.3481
vn -0.1917 -0.9514 0.2409
vn -0.1125 -0.9836 0.1413
vn -0.0371 -0.9982 0.0466
vn -0.6146 -0.1606 0.7723
vn -0.5567 -0.4480 0.6995
vn -0.1227 -0.9886 0.0875
vn -0.0402 -0.9988 0.0287
vn -0.7990 -0.1924 0.5698
vn -0.6970 -0.5169 0.4970
vn -0.5576 -0.7287 0.3976
vn -0.4251 -0.8529 0.3031
vn -0.3103 -0.9245 0.2213
vn -0.2112 -0.9658 0.1506
vn -0.4576 -0.8828 0.1060
vn -0.3286 -0.9414 0.0761
vn -0.2214 -0.9738 0.0513
vn -0.1279 -0.9913 0.0296
vn -0.0419 -0.9991 0.0097
vn -0.9504 -0.2200 0.2200
vn -0.8001 -0.5706 0.1852
vn -0.6163 -0.7744 0.1427
vn -0.0419 -0.9991 -0.0097
vn -0.9504 -0.2200 -0.2200
vn -0.8001 -0.5706 -0.1852
vn -0.6163 -0.7744 -0.1427
vn -0.4576 -0.8828 -0.1060
vn -0.4576 -0.8828 -0.1059
vn -0.3286 -0.9414 -0.0761
vn -0.2214 -0.9738 -0.0513
vn -0.1279 -0.9913 -0.0296
vn -0.4251 -0.8529 -0.3031
vn -0.3103 -0.9245 -0.2213
vn -0.2112 -0.9658 -0.1506
vn -0.1227 -0.9886 -0.0875
vn -0.0402 -0.9988 -0.0287
vn -0.7990 -0.1924 -0.5698
vn -0.6970 -0.5169 -0.4970
vn -0.5576 -0.7287 -0.3976
vn -0.0371 -0.9982 -0.0466
vn -0.6146 -0.1606 -0.7723
vn -0.5567 -0.4480 -0.6995
vn -0.4668 -0.6619 -0.5865
vn -0.3697 -0.8047 -0.4645
vn -0.2771 -0.8956 -0.3481
vn -0.1917 -0.9514 -0.2409
vn -0.1125 -0.9836 -0.1413
vn -0.2336 -0.8616 -0.4507
vn -0.1649 -0.9336 -0.3181
vn -0.0979 -0.9771 -0.1889
vn -0.0325 -0.9975 -0.0626
vn -0.4559 -0.1359 -0.8796
vn -0.4239 -0.3892 -0.8178
vn -0.3691 -0.5971 -0.7122
vn -0.3030 -0.7526 -0.5846
vn -0.3092 -0.3459 -0.8858
vn -0.2764 -0.5448 -0.7917
vn -0.2334 -0.7062 -0.6684
vn -0.1844 -0.8288 -0.5283
vn -0.1327 -0.9154 -0.3801
vn -0.0798 -0.9702 -0.2286
vn -0.0261 -0.9967 -0.0772
vn -0.0266 -0.9967 -0.0763
vn -0.0211 -0.9962 -0.0850
vn -0.3273 -0.1189 -0.9374
vn -0.0969 -0.8995 -0.4261
vn -0.0589 -0.9640 -0.2592
vn -0.0198 -0.9960 -0.0869
vn -0.2204 -0.1077 -0.9694
vn -0.2103 -0.3166 -0.9249
vn -0.1911 -0.5070 -0.8405
vn -0.1646 -0.6702 -0.7237
vn -0.1326 -0.8016 -0.5830
vn -0.1221 -0.2986 -0.9465
vn -0.1121 -0.4828 -0.8685
vn -0.0977 -0.6461 -0.7570
vn -0.0797 -0.7825 -0.6175
vn -0.0589 -0.8879 -0.4563
vn -0.0361 -0.9594 -0.2798
vn -0.0117 -0.9955 -0.0946
vn -0.0122 -0.9955 -0.0943
vn -0.0049 -0.9952 -0.0977
vn -0.1273 -0.1011 -0.9867
vn -0.0197 -0.8817 -0.4713
vn -0.0122 -0.9569 -0.2903
vn -0.0041 -0.9952 -0.0980
vn -0.0417 -0.0979 -0.9943
vn -0.0401 -0.2901 -0.9562
vn -0.0369 -0.4711 -0.8813
vn -0.0324 -0.6341 -0.7726
vn -0.0266 -0.7727 -0.6342
vn 0.3511 0.0983 -0.9312
vn 0.3511 0.0983 0.9312
vn -0.3093 0.3459 0.8858
vn -0.8001 0.5706 -0.1853
vn 0.8001 0.5706 0.1853
vn 0.8001 -0.5706 0.1853
vn -0.4576 -0.8828 0.1059
vt 0.527783 0.808404
vt 0.561128 0.834540
vt 0.530947 0.840136
vt 0.677619 0.807376
vt 0.705970 0.807351
vt 0.678187 0.813127
vt 0.649622 0.807451
vt 0.650677 0.818370
vt 0.624669 0.807539
vt 0.626112 0.822914
vt 0.603471 0.807622
vt 0.605151 0.826717
vt 0.586232 0.807656
vt 0.588151 0.829718
vt 0.558588 0.807957
vt 0.594050 0.851102
vt 0.567997 0.860282
vt 0.539244 0.870741
vt 0.679803 0.818682
vt 0.653656 0.828953
vt 0.630210 0.837837
vt 0.610200 0.845247
vt 0.682444 0.823852
vt 0.658533 0.838870
vt 0.636901 0.851880
vt 0.618347 0.862693
vt 0.603437 0.871210
vt 0.579045 0.884588
vt 0.552357 0.899524
vt 0.615967 0.889686
vt 0.593880 0.906888
vt 0.569832 0.925825
vt 0.686032 0.828452
vt 0.665192 0.847808
vt 0.646037 0.864653
vt 0.629440 0.878636
vt 0.673459 0.855447
vt 0.657440 0.875790
vt 0.643242 0.892714
vt 0.631542 0.906070
vt 0.612132 0.926756
vt 0.591109 0.949125
vt 0.690467 0.832299
vt 0.633380 0.943935
vt 0.615495 0.969104
vt 0.695585 0.835260
vt 0.683172 0.861517
vt 0.670923 0.884934
vt 0.659575 0.904573
vt 0.649909 0.920086
vt 0.694055 0.865707
vt 0.686280 0.891684
vt 0.678343 0.913867
vt 0.670967 0.931550
vt 0.657284 0.958447
vt 0.642197 0.985800
vt 0.701227 0.837186
vt 0.683832 0.970744
vt 0.670343 0.999837
vt 0.707187 0.837973
vt 0.705777 0.867718
vt 0.703252 0.895512
vt 0.699658 0.920135
vt 0.694966 0.940350
vt 0.708640 0.893449
vt 0.732730 0.913065
vt 0.711376 0.918153
vt 0.739195 0.930964
vt 0.714543 0.938356
vt 0.750691 0.958566
vt 0.723767 0.968882
vt 0.764284 0.987118
vt 0.734986 0.999230
vt 0.707824 0.835351
vt 0.707513 0.804624
vt 0.713840 0.834924
vt 0.719397 0.863947
vt 0.707513 0.865330
vt 0.725887 0.890422
vt 0.719602 0.833334
vt 0.730537 0.860358
vt 0.741569 0.884496
vt 0.751927 0.904755
vt 0.760843 0.920700
vt 0.775456 0.945645
vt 0.792139 0.971999
vt 0.779964 0.907692
vt 0.797771 0.929766
vt 0.817811 0.953369
vt 0.724901 0.830684
vt 0.740617 0.854845
vt 0.755522 0.876093
vt 0.768884 0.893761
vt 0.729559 0.827098
vt 0.749318 0.847654
vt 0.767560 0.865562
vt 0.783451 0.880403
vt 0.796439 0.892135
vt 0.817240 0.910940
vt 0.840528 0.931168
vt 0.809990 0.874328
vt 0.833396 0.889420
vt 0.859553 0.905668
vt 0.733427 0.822723
vt 0.756457 0.839094
vt 0.777418 0.853273
vt 0.795390 0.865021
vt 0.761930 0.829458
vt 0.784872 0.839601
vt 0.804457 0.848005
vt 0.820311 0.854671
vt 0.845791 0.865643
vt 0.874233 0.877388
vt 0.736365 0.817713
vt 0.854054 0.840185
vt 0.884049 0.847032
vt 0.738323 0.812261
vt 0.765541 0.819056
vt 0.789783 0.824932
vt 0.810445 0.829793
vt 0.827145 0.833651
vt 0.767156 0.808193
vt 0.792048 0.809665
vt 0.813210 0.810868
vt 0.830308 0.811817
vt 0.857925 0.813716
vt 0.888645 0.815433
vt 0.739196 0.806546
vt 0.829718 0.789758
vt 0.857281 0.786967
vt 0.887853 0.783498
vt 0.739005 0.800771
vt 0.766777 0.797226
vt 0.791597 0.794232
vt 0.812673 0.791744
vt 0.764457 0.786476
vt 0.788422 0.779065
vt 0.808828 0.772932
vt 0.825413 0.768073
vt 0.852144 0.760680
vt 0.881704 0.752160
vt 0.737730 0.795124
vt 0.842662 0.735559
vt 0.870452 0.722317
vt 0.735408 0.789802
vt 0.760196 0.776269
vt 0.782611 0.764606
vt 0.801829 0.754957
vt 0.817317 0.747379
vt 0.774268 0.751261
vt 0.791746 0.738300
vt 0.805945 0.728077
vt 0.829204 0.712226
vt 0.854570 0.694735
vt 0.732105 0.784992
vt 0.754089 0.766931
vt 0.727920 0.780875
vt 0.746274 0.758779
vt 0.763543 0.739411
vt 0.778805 0.723340
vt 0.791362 0.710681
vt 0.812132 0.691137
vt 0.834642 0.669982
vt 0.750606 0.729436
vt 0.763171 0.710454
vt 0.773813 0.695493
vt 0.791869 0.672580
vt 0.811375 0.648408
vt 0.722985 0.777616
vt 0.736934 0.752127
vt 0.717466 0.775360
vt 0.726303 0.747290
vt 0.735635 0.721751
vt 0.744926 0.699998
vt 0.753394 0.682711
vt 0.768767 0.656554
vt 0.785581 0.630013
vt 0.723930 0.692431
vt 0.729851 0.672433
vt 0.742867 0.642596
vt 0.758179 0.614209
vt 0.711562 0.774227
vt 0.714698 0.744591
vt 0.718861 0.716908
vt 0.707187 0.776643
vt 0.701201 0.777457
vt 0.693862 0.748790
vt 0.705618 0.746703
vt 0.685871 0.722751
vt 0.702912 0.718720
vt 0.677659 0.700490
vt 0.698747 0.694141
vt 0.670110 0.682937
vt 0.694387 0.674068
vt 0.656934 0.655943
vt 0.683327 0.643994
vt 0.641588 0.628106
vt 0.670264 0.614209
vt 0.649020 0.694523
vt 0.632865 0.670389
vt 0.614537 0.644944
vt 0.695542 0.779404
vt 0.682972 0.753060
vt 0.670494 0.729627
vt 0.658914 0.709966
vt 0.673280 0.759207
vt 0.656999 0.738890
vt 0.642586 0.722005
vt 0.630641 0.708721
vt 0.611440 0.687668
vt 0.589887 0.665193
vt 0.690411 0.782378
vt 0.593064 0.707750
vt 0.568422 0.688873
vt 0.685990 0.786257
vt 0.664949 0.766927
vt 0.645651 0.750133
vt 0.628833 0.736263
vt 0.615096 0.725321
vt 0.636566 0.763023
vt 0.617855 0.752397
vt 0.602649 0.744008
vt 0.578195 0.730355
vt 0.550877 0.715684
vt 0.682398 0.790870
vt 0.658323 0.775932
vt 0.537909 0.745085
vt 0.679755 0.796051
vt 0.653491 0.785901
vt 0.629956 0.777156
vt 0.609877 0.769985
vt 0.593600 0.764344
vt 0.567268 0.755017
vt 0.625939 0.792133
vt 0.605079 0.788545
vt 0.588232 0.785749
vt 0.560613 0.781139
vt 0.530078 0.776340
vt 0.678138 0.801617
vt 0.650568 0.796514
vt 0.507735 0.429371
vt 0.494045 0.357051
vt 0.508354 0.356073
vt 0.527455 0.428257
vt 0.527457 0.354768
vt 0.495487 0.499734
vt 0.493407 0.428935
vt 0.516022 0.499481
vt 0.472881 0.562958
vt 0.481299 0.497695
vt 0.494376 0.564506
vt 0.442407 0.616199
vt 0.459165 0.559108
vt 0.464679 0.620895
vt 0.428883 0.667709
vt 0.406674 0.658047
vt 0.429572 0.610282
vt 0.367930 0.688195
vt 0.395342 0.649772
vt 0.387844 0.704845
vt 0.341237 0.731514
vt 0.327782 0.707281
vt 0.359026 0.677457
vt 0.287205 0.715557
vt 0.322365 0.694623
vt 0.289242 0.745411
vt 0.249528 0.699594
vt 0.286285 0.702069
vt 0.245880 0.712870
vt 0.210875 0.687568
vt 0.235842 0.738705
vt 0.203513 0.699415
vt 0.171136 0.665075
vt 0.186046 0.718616
vt 0.161035 0.674811
vt 0.131860 0.630605
vt 0.140346 0.687401
vt 0.119950 0.638210
vt 0.095591 0.583931
vt 0.098525 0.645888
vt 0.082527 0.589609
vt 0.065318 0.526104
vt 0.061444 0.594063
vt 0.051542 0.530052
vt 0.043977 0.459637
vt 0.031166 0.532593
vt 0.029843 0.462018
vt 0.033569 0.388519
vt 0.010159 0.463596
vt 0.019263 0.389497
vt 0.019879 0.316211
vt 0.000163 0.317326
vt 0.000163 0.390802
vt 0.011588 0.246112
vt 0.032120 0.245857
vt 0.034206 0.316646
vt 0.054715 0.182639
vt 0.046306 0.247895
vt 0.033223 0.181095
vt 0.085178 0.129399
vt 0.068431 0.186487
vt 0.062908 0.124708
vt 0.120901 0.087548
vt 0.098013 0.135313
vt 0.098692 0.077891
vt 0.159637 0.057395
vt 0.132234 0.095820
vt 0.139720 0.040749
vt 0.199780 0.038301
vt 0.168543 0.068130
vt 0.186321 0.014071
vt 0.240355 0.030017
vt 0.205200 0.050957
vt 0.238312 0.000163
vt 0.278036 0.045973
vt 0.241279 0.043505
vt 0.281681 0.032695
vt 0.316692 0.057992
vt 0.291714 0.006858
vt 0.324053 0.046143
vt 0.356437 0.080479
vt 0.341517 0.026938
vt 0.366538 0.070740
vt 0.395722 0.114945
vt 0.387226 0.058146
vt 0.407632 0.107337
vt 0.429058 0.099655
vt 0.445066 0.155938
vt 0.432001 0.161618
vt 0.462284 0.219448
vt 0.466151 0.151480
vt 0.476062 0.215498
vt 0.496441 0.212955
vt 0.497769 0.283541
vt 0.483633 0.285922
vt 0.517457 0.281961
vt 0.625164 0.568272
vt 0.594860 0.531775
vt 0.830751 0.556063
vt 0.376154 0.365107
vt 0.341024 0.392128
vt 0.340818 0.367522
vt 0.303570 0.382301
vt 0.303441 0.370077
vt 0.263846 0.372783
vt 0.490175 0.357315
vt 0.475382 0.427183
vt 0.476096 0.358277
vt 0.458027 0.423140
vt 0.458507 0.359479
vt 0.435632 0.417303
vt 0.435859 0.361027
vt 0.408169 0.409952
vt 0.408172 0.362919
vt 0.376304 0.401444
vt 0.371694 0.436529
vt 0.338141 0.416027
vt 0.302200 0.394237
vt 0.489350 0.429373
vt 0.463899 0.492904
vt 0.447920 0.483937
vt 0.427243 0.471179
vt 0.401675 0.455143
vt 0.476956 0.498114
vt 0.443014 0.551387
vt 0.429392 0.538323
vt 0.411657 0.519737
vt 0.389366 0.496242
vt 0.362715 0.468760
vt 0.332331 0.438227
vt 0.299350 0.405438
vt 0.350022 0.496759
vt 0.323920 0.457791
vt 0.295113 0.415460
vt 0.454461 0.559189
vt 0.415248 0.599795
vt 0.404555 0.583728
vt 0.390487 0.560768
vt 0.372343 0.531454
vt 0.375805 0.618785
vt 0.365562 0.592976
vt 0.351862 0.559604
vt 0.334395 0.519520
vt 0.313350 0.473923
vt 0.289649 0.423896
vt 0.424597 0.609606
vt 0.383440 0.636714
vt 0.301113 0.486046
vt 0.283167 0.430393
vt 0.390431 0.647893
vt 0.350164 0.662118
vt 0.345274 0.643258
vt 0.338514 0.615914
vt 0.329096 0.580108
vt 0.316616 0.536426
vt 0.314180 0.657622
vt 0.310429 0.629748
vt 0.304984 0.592844
vt 0.297399 0.547163
vt 0.287686 0.493804
vt 0.275920 0.434670
vt 0.354806 0.674086
vt 0.316941 0.677046
vt 0.272356 0.497451
vt 0.268184 0.436510
vt 0.319660 0.689920
vt 0.284997 0.683101
vt 0.283736 0.664475
vt 0.281840 0.636757
vt 0.279297 0.599234
vt 0.276089 0.552380
vt 0.281802 0.636759
vt 0.252610 0.661825
vt 0.252537 0.633699
vt 0.279247 0.599237
vt 0.252919 0.596399
vt 0.276029 0.552384
vt 0.254217 0.550112
vt 0.272287 0.497456
vt 0.256597 0.495926
vt 0.268110 0.436515
vt 0.260198 0.435745
vt 0.263769 0.372788
vt 0.284980 0.683102
vt 0.251568 0.694567
vt 0.252513 0.681443
vt 0.283710 0.664477
vt 0.242237 0.490065
vt 0.252439 0.432493
vt 0.214598 0.683655
vt 0.217571 0.671167
vt 0.219853 0.651819
vt 0.222834 0.623811
vt 0.227298 0.587058
vt 0.233723 0.542086
vt 0.192921 0.604762
vt 0.201958 0.569839
vt 0.213812 0.527755
vt 0.228464 0.479720
vt 0.245137 0.426938
vt 0.175746 0.662546
vt 0.181153 0.650522
vt 0.186281 0.631722
vt 0.238579 0.419324
vt 0.136697 0.629258
vt 0.144626 0.618269
vt 0.153035 0.600899
vt 0.163851 0.576242
vt 0.177841 0.544736
vt 0.195237 0.507330
vt 0.215798 0.465175
vt 0.137302 0.538472
vt 0.156191 0.512167
vt 0.178856 0.481318
vt 0.204806 0.446939
vt 0.233020 0.409972
vt 0.100262 0.583372
vt 0.110541 0.574088
vt 0.122260 0.559295
vt 0.228675 0.399263
vt 0.069678 0.525928
vt 0.081904 0.518993
vt 0.096514 0.507938
vt 0.115262 0.492489
vt 0.138410 0.473126
vt 0.165579 0.450609
vt 0.196031 0.425736
vt 0.125832 0.429242
vt 0.156241 0.416480
vt 0.189924 0.402453
vt 0.225694 0.387624
vt 0.048055 0.459520
vt 0.061594 0.455451
vt 0.078236 0.449086
vt 0.099626 0.440259
vt 0.037439 0.388255
vt 0.051515 0.387293
vt 0.069102 0.386091
vt 0.091747 0.384544
vt 0.119432 0.382652
vt 0.151447 0.380464
vt 0.186782 0.378049
vt 0.224160 0.375495
vt 0.151297 0.344130
vt 0.186575 0.353445
vt 0.224030 0.363269
vt 0.052228 0.318397
vt 0.069581 0.322439
vt 0.091973 0.328274
vt 0.119434 0.335624
vt 0.079683 0.261648
vt 0.100359 0.274403
vt 0.125925 0.290437
vt 0.155904 0.309048
vt 0.189457 0.329547
vt 0.225399 0.351333
vt 0.038262 0.316208
vt 0.063705 0.252684
vt 0.195266 0.307348
vt 0.228247 0.340132
vt 0.050649 0.247475
vt 0.084580 0.194205
vt 0.098203 0.207266
vt 0.115938 0.225849
vt 0.138230 0.249340
vt 0.164881 0.276819
vt 0.137102 0.184819
vt 0.155248 0.214129
vt 0.177571 0.248820
vt 0.203675 0.287785
vt 0.232482 0.330111
vt 0.073134 0.186405
vt 0.112337 0.145797
vt 0.123031 0.161862
vt 0.237944 0.321675
vt 0.102987 0.135989
vt 0.144137 0.108876
vt 0.151775 0.126802
vt 0.162021 0.152608
vt 0.175725 0.185977
vt 0.193196 0.226058
vt 0.214243 0.271653
vt 0.189064 0.129668
vt 0.198487 0.165471
vt 0.210973 0.209151
vt 0.226481 0.259530
vt 0.244422 0.315179
vt 0.137145 0.097698
vt 0.177407 0.083467
vt 0.182300 0.102326
vt 0.251666 0.310901
vt 0.172763 0.071500
vt 0.210627 0.068533
vt 0.213391 0.087956
vt 0.217147 0.115830
vt 0.222597 0.152732
vt 0.230188 0.198412
vt 0.239909 0.251770
vt 0.248283 0.146338
vt 0.251495 0.193193
vt 0.255243 0.248120
vt 0.259400 0.309062
vt 0.207905 0.055660
vt 0.242569 0.062472
vt 0.243833 0.081098
vt 0.245734 0.108816
vt 0.259474 0.309057
vt 0.267388 0.309827
vt 0.242587 0.062471
vt 0.275997 0.051000
vt 0.275054 0.064125
vt 0.243859 0.081096
vt 0.274961 0.083742
vt 0.245772 0.108814
vt 0.275039 0.111869
vt 0.248332 0.146335
vt 0.274661 0.149170
vt 0.251556 0.193189
vt 0.273370 0.195459
vt 0.255312 0.248116
vt 0.270997 0.249643
vt 0.304744 0.121753
vt 0.300284 0.158508
vt 0.293865 0.203482
vt 0.285356 0.255503
vt 0.275150 0.313079
vt 0.312970 0.061905
vt 0.309999 0.074394
vt 0.307721 0.093744
vt 0.282455 0.318634
vt 0.351827 0.083008
vt 0.346422 0.095035
vt 0.341297 0.113836
vt 0.334661 0.140798
vt 0.325628 0.175724
vt 0.313778 0.217811
vt 0.299129 0.265847
vt 0.349749 0.200826
vt 0.332355 0.238235
vt 0.311796 0.280392
vt 0.289016 0.326248
vt 0.390885 0.116292
vt 0.382957 0.127283
vt 0.374550 0.144656
vt 0.363736 0.169317
vt 0.417051 0.171464
vt 0.405333 0.186260
vt 0.390291 0.207086
vt 0.371403 0.233395
vt 0.348739 0.264247
vt 0.322790 0.298629
vt 0.294577 0.335600
vt 0.427329 0.162177
vt 0.362019 0.294957
vt 0.331567 0.319833
vt 0.298925 0.346309
vt 0.457924 0.219624
vt 0.445697 0.226562
vt 0.431087 0.237619
vt 0.412338 0.253072
vt 0.389189 0.272437
vt 0.466015 0.290110
vt 0.449371 0.296476
vt 0.427978 0.305305
vt 0.401770 0.316325
vt 0.371359 0.329089
vt 0.337675 0.343117
vt 0.301906 0.357948
vt 0.479555 0.286040
vt 0.569089 0.486641
vt 0.548840 0.434605
vt 0.890718 0.414302
vt 0.534893 0.377665
vt 0.897828 0.356112
vt 0.527783 0.318011
vt 0.527783 0.257934
vt 0.897828 0.296035
vt 0.534893 0.199744
vt 0.876771 0.179442
vt 0.548840 0.145677
vt 0.856522 0.127405
vt 0.569089 0.097810
vt 0.594860 0.057983
vt 0.830751 0.082271
vt 0.625164 0.027726
vt 0.766775 0.019317
vt 0.658836 0.008203
vt 0.731029 0.003916
vt 0.694582 0.000163
vt 0.800447 0.045774
vt 0.890718 0.236381
vt 0.876771 0.468369
vt 0.856522 0.516236
vt 0.800447 0.586320
vt 0.658836 0.594730
vt 0.766775 0.605843
vt 0.694582 0.610131
vt 0.731029 0.613883
vt 0.285899 0.696419
vt 0.241665 0.049154
s 1
usemtl マテリアル.001
f 4/1/1 10/2/1 11/3/1
f 222/4/2 1/5/3 5/6/4
f 223/7/5 5/6/6 6/8/7
f 2/9/8 6/8/9 7/10/10
f 224/11/11 7/10/12 8/12/13
f 3/13/14 8/12/14 9/14/14
f 225/15/15 9/14/15 10/2/15
f 10/2/16 16/16/16 17/17/16
f 11/3/17 17/17/17 18/18/17
f 5/6/4 1/5/3 12/19/18
f 6/8/7 12/19/19 13/20/20
f 7/10/10 13/20/21 14/21/22
f 8/12/13 14/21/23 15/22/24
f 9/14/25 15/22/25 16/16/25
f 13/20/20 19/23/26 20/24/27
f 14/21/22 20/24/28 21/25/28
f 15/22/24 21/25/29 22/26/30
f 16/16/31 22/26/31 23/27/31
f 17/17/32 23/27/32 24/28/32
f 18/18/33 24/28/33 25/29/33
f 12/19/18 1/5/3 19/23/34
f 24/28/35 30/30/35 31/31/35
f 25/29/36 31/31/36 32/32/36
f 19/23/34 1/5/3 26/33/37
f 20/24/27 26/33/38 27/34/39
f 21/25/40 27/34/40 28/35/40
f 22/26/30 28/35/41 29/36/42
f 23/27/43 29/36/43 30/30/43
f 28/35/44 34/37/44 35/38/44
f 29/36/42 35/38/45 36/39/45
f 30/30/46 36/39/46 37/40/46
f 31/31/47 37/40/47 38/41/47
f 32/32/48 38/41/48 39/42/48
f 26/33/37 1/5/3 33/43/49
f 27/34/39 33/43/50 34/37/51
f 39/42/52 45/44/52 46/45/52
f 33/43/49 1/5/3 40/46/53
f 34/37/51 40/46/54 41/47/55
f 35/38/56 41/47/57 42/48/58
f 36/39/59 42/48/58 43/49/59
f 37/40/60 43/49/60 44/50/60
f 38/41/61 44/50/61 45/44/61
f 42/48/62 48/51/63 49/52/64
f 43/49/65 49/52/64 50/53/65
f 44/50/66 50/53/66 51/54/66
f 45/44/67 51/54/67 52/55/67
f 46/45/68 52/55/68 53/56/68
f 40/46/53 1/5/3 47/57/69
f 41/47/55 47/57/70 48/51/71
f 53/56/72 59/58/72 60/59/72
f 47/57/69 1/5/3 54/60/73
f 48/51/71 54/60/74 55/61/74
f 49/52/75 55/61/76 56/62/77
f 50/53/78 56/62/77 57/63/78
f 51/54/79 57/63/79 58/64/79
f 52/55/80 58/64/80 59/58/80
f 56/65/81 64/66/82 57/67/82
f 57/67/83 65/68/83 58/69/83
f 58/69/84 66/70/84 59/71/84
f 59/71/85 67/72/85 60/73/85
f 54/74/73 1/75/3 61/76/86
f 54/74/74 62/77/87 55/78/74
f 55/78/88 63/79/89 56/65/81
f 61/76/86 1/75/3 68/80/90
f 61/76/91 69/81/92 62/77/87
f 62/77/93 70/82/94 63/79/95
f 63/79/95 71/83/96 64/66/96
f 64/66/97 72/84/97 65/68/97
f 65/68/98 73/85/98 66/70/98
f 66/70/99 74/86/99 67/72/99
f 71/83/100 79/87/100 72/84/100
f 72/84/101 80/88/101 73/85/101
f 73/85/102 81/89/102 74/86/102
f 68/80/90 1/75/3 75/90/103
f 68/80/104 76/91/105 69/81/92
f 69/81/106 77/92/107 70/82/108
f 70/82/108 78/93/109 71/83/109
f 75/90/103 1/75/3 82/94/110
f 75/90/111 83/95/112 76/91/105
f 76/91/113 84/96/114 77/92/115
f 77/92/115 85/97/116 78/93/117
f 78/93/118 86/98/118 79/87/118
f 79/87/119 87/99/119 80/88/119
f 80/88/120 88/100/120 81/89/120
f 85/97/121 93/101/121 86/98/121
f 86/98/122 94/102/122 87/99/122
f 87/99/123 95/103/123 88/100/123
f 82/94/124 1/75/125 89/104/126
f 82/94/127 90/105/128 83/95/112
f 83/95/129 91/106/129 84/96/129
f 84/96/114 92/107/130 85/97/116
f 89/104/131 97/108/132 90/105/128
f 90/105/133 98/109/134 91/106/133
f 91/106/135 99/110/136 92/107/130
f 92/107/137 100/111/137 93/101/137
f 93/101/138 101/112/138 94/102/138
f 94/102/139 102/113/139 95/103/139
f 89/104/126 1/75/125 96/114/140
f 100/111/141 108/115/141 101/112/141
f 101/112/142 109/116/142 102/113/142
f 96/114/140 1/75/125 103/117/143
f 96/114/144 104/118/145 97/108/132
f 97/108/146 105/119/147 98/109/134
f 98/109/148 106/120/149 99/110/136
f 99/110/150 107/121/150 100/111/150
f 103/117/151 111/122/152 104/118/145
f 104/118/153 112/123/154 105/119/147
f 105/119/155 113/124/156 106/120/149
f 106/120/157 114/125/157 107/121/157
f 107/121/158 115/126/158 108/115/158
f 108/115/159 116/127/159 109/116/159
f 103/117/143 1/75/125 110/128/160
f 115/126/161 121/129/161 122/130/161
f 116/127/162 122/130/162 123/131/162
f 110/128/160 1/75/125 117/132/163
f 111/122/152 117/132/164 118/133/165
f 112/123/154 118/133/166 119/134/167
f 113/124/156 119/134/168 120/135/169
f 114/125/170 120/135/170 121/129/170
f 119/134/167 125/136/171 126/137/172
f 120/135/169 126/137/173 127/138/174
f 121/129/175 127/138/175 128/139/175
f 122/130/176 128/139/176 129/140/176
f 123/131/177 129/140/177 130/141/177
f 117/132/163 1/75/125 124/142/178
f 118/133/165 124/142/179 125/136/180
f 130/141/181 136/143/181 137/144/181
f 124/142/178 1/75/125 131/145/182
f 125/136/180 131/145/183 132/146/184
f 126/137/172 132/146/185 133/147/185
f 127/138/174 133/147/186 134/148/187
f 128/139/188 134/148/188 135/149/188
f 129/140/189 135/149/189 136/143/189
f 134/148/187 140/150/190 141/151/190
f 135/149/191 141/151/191 142/152/191
f 136/143/192 142/152/192 143/153/192
f 137/144/193 143/153/193 144/154/193
f 131/145/182 1/75/125 138/155/194
f 132/146/184 138/155/195 139/156/196
f 133/147/197 139/156/197 140/150/197
f 138/155/194 1/75/125 145/157/198
f 139/156/196 145/157/199 146/158/200
f 140/150/201 146/158/202 147/159/203
f 141/151/204 147/159/203 148/160/204
f 142/152/205 148/160/205 149/161/205
f 143/153/206 149/161/206 150/162/206
f 144/154/207 150/162/207 151/163/207
f 148/160/208 154/164/209 155/165/208
f 149/161/210 155/165/210 156/166/210
f 150/162/211 156/166/211 157/167/211
f 151/163/212 157/167/212 158/168/212
f 145/157/198 1/75/125 152/169/213
f 146/158/200 152/169/214 153/170/215
f 147/159/216 153/170/217 154/164/209
f 152/169/213 1/75/125 159/171/218
f 153/170/215 159/171/219 160/172/220
f 154/164/221 160/172/222 161/173/223
f 155/165/224 161/173/223 162/174/224
f 156/166/225 162/174/225 163/175/225
f 157/167/226 163/175/226 164/176/226
f 158/168/227 164/176/227 165/177/227
f 163/175/228 169/178/228 170/179/228
f 164/176/229 170/179/229 171/180/229
f 165/177/230 171/180/230 172/181/230
f 159/171/218 1/75/125 166/182/231
f 160/172/220 166/182/232 167/183/232
f 161/173/233 167/183/234 168/184/235
f 162/174/236 168/184/235 169/178/236
f 166/185/231 1/5/125 173/186/237
f 166/185/232 174/187/238 167/188/232
f 167/188/239 175/189/240 168/190/241
f 168/190/241 176/191/242 169/192/242
f 169/192/243 177/193/243 170/194/243
f 170/194/244 178/195/244 171/196/244
f 171/196/245 179/197/245 172/198/245
f 176/191/246 184/199/246 177/193/246
f 177/193/247 185/200/247 178/195/247
f 178/195/248 186/201/248 179/197/248
f 173/186/237 1/5/125 180/202/249
f 173/186/250 181/203/251 174/187/238
f 174/187/252 182/204/253 175/189/254
f 175/189/254 183/205/255 176/191/255
f 180/202/256 188/206/257 181/203/251
f 181/203/258 189/207/259 182/204/260
f 182/204/260 190/208/261 183/205/261
f 183/205/262 191/209/262 184/199/262
f 184/199/263 192/210/263 185/200/263
f 185/200/264 193/211/264 186/201/264
f 180/202/249 1/5/125 187/212/265
f 191/209/266 199/213/266 192/210/266
f 192/210/267 200/214/267 193/211/267
f 187/212/265 1/5/125 194/215/268
f 187/212/269 195/216/270 188/206/257
f 188/206/271 196/217/272 189/207/273
f 189/207/273 197/218/274 190/208/275
f 190/208/276 198/219/276 191/209/276
f 195/216/277 203/220/277 196/217/277
f 196/217/272 204/221/278 197/218/274
f 197/218/279 205/222/279 198/219/279
f 198/219/280 206/223/280 199/213/280
f 199/213/281 207/224/281 200/214/281
f 194/215/282 1/5/3 201/225/283
f 194/215/284 202/226/285 195/216/270
f 206/223/286 214/227/286 207/224/286
f 201/225/283 1/5/3 208/228/287
f 201/225/288 209/229/289 202/226/285
f 202/226/290 210/230/291 203/220/290
f 203/220/292 211/231/293 204/221/278
f 204/221/294 212/232/294 205/222/294
f 205/222/295 213/233/295 206/223/295
f 209/229/296 217/234/297 210/230/291
f 210/230/298 218/235/299 211/231/293
f 211/231/300 219/236/300 212/232/300
f 212/232/301 220/237/301 213/233/301
f 213/233/302 221/238/302 214/227/302
f 208/228/287 1/5/3 215/239/303
f 208/228/304 216/240/305 209/229/289
f 220/237/306 4/1/306 221/238/306
f 215/239/303 1/5/3 222/4/2
f 215/239/307 223/7/5 216/240/305
f 216/240/308 2/9/8 217/234/297
f 217/234/309 224/11/11 218/235/299
f 218/235/310 3/13/310 219/236/310
f 219/236/311 225/15/311 220/237/311
f 229/241/312 226/242/312 227/243/312
f 230/244/313 227/243/313 321/245/313
f 232/246/314 228/247/314 229/241/314
f 233/248/315 229/241/315 230/244/315
f 235/249/316 231/250/316 232/246/316
f 236/251/317 232/246/317 233/248/317
f 238/252/318 234/253/318 235/249/318
f 239/254/319 235/249/319 236/251/319
f 242/255/320 238/252/320 239/254/320
f 241/256/321 237/257/321 238/252/321
f 244/258/322 240/259/322 241/256/322
f 245/260/323 241/256/323 242/255/323
f 248/261/324 244/258/324 245/260/324
f 247/262/325 243/263/325 244/258/325
f 250/264/326 246/265/326 247/262/326
f 251/266/327 247/262/327 248/261/328
f 250/264/329 252/267/329 249/268/329
f 251/266/330 253/269/330 250/264/330
f 253/269/331 255/270/331 252/267/331
f 254/271/332 256/272/332 253/269/332
f 256/272/333 258/273/333 255/270/333
f 257/274/334 259/275/334 256/272/334
f 259/275/335 261/276/335 258/273/335
f 260/277/336 262/278/336 259/275/336
f 262/278/337 264/279/337 261/276/337
f 263/280/338 265/281/338 262/278/338
f 265/281/339 267/282/339 264/279/339
f 266/283/340 268/284/340 265/281/340
f 268/284/341 270/285/341 267/282/341
f 269/286/342 271/287/342 268/284/342
f 271/287/343 273/288/343 270/285/343
f 272/289/344 274/290/344 271/287/344
f 277/291/345 273/288/345 274/290/345
f 278/292/346 274/290/346 275/293/346
f 281/294/347 277/291/347 278/292/347
f 280/295/348 276/296/348 277/291/348
f 283/297/349 279/298/349 280/295/349
f 284/299/350 280/295/350 281/294/350
f 286/300/351 282/301/351 283/297/351
f 287/302/352 283/297/352 284/299/352
f 289/303/353 285/304/353 286/300/353
f 290/305/354 286/300/354 287/302/354
f 292/306/355 288/307/355 289/303/355
f 293/308/356 289/303/356 290/305/356
f 295/309/357 291/310/357 292/306/357
f 296/311/358 292/306/358 293/308/358
f 298/312/359 294/313/359 295/309/359
f 299/314/360 295/309/360 296/311/361
f 298/312/362 300/315/362 297/316/362
f 299/314/363 301/317/363 298/312/363
f 301/317/364 303/318/364 300/315/364
f 302/319/365 304/320/365 301/317/365
f 304/320/366 306/321/366 303/318/366
f 305/322/367 307/323/367 304/320/367
f 307/323/368 309/324/368 306/321/368
f 308/325/369 310/326/369 307/323/369
f 311/327/370 313/328/370 310/326/370
f 310/326/371 312/329/371 309/324/371
f 313/328/372 315/330/372 312/329/372
f 314/331/373 316/332/373 313/328/373
f 317/333/374 319/334/374 316/332/374
f 316/332/375 318/335/375 315/330/375
f 319/334/376 226/242/376 318/335/376
f 320/336/377 227/243/377 319/334/377
f 242/337/378 239/338/378 260/339/378
f 576/340/379 332/341/379 577/342/379
f 577/342/380 333/343/380 578/344/380
f 325/345/381 578/344/382 333/343/383
f 322/346/384 327/347/384 323/348/384
f 323/348/385 328/349/385 574/350/385
f 574/350/386 329/351/386 324/352/386
f 324/352/387 330/353/387 575/354/387
f 575/354/388 331/355/388 576/340/388
f 330/353/389 339/356/389 331/355/389
f 331/355/390 340/357/390 332/341/390
f 332/341/391 341/358/391 333/343/391
f 325/345/381 333/343/383 341/358/392
f 326/359/393 335/360/393 327/347/393
f 327/347/394 336/361/394 328/349/394
f 328/349/395 337/362/395 329/351/395
f 329/351/396 338/363/396 330/353/396
f 334/364/397 343/365/397 335/360/397
f 335/360/398 344/366/398 336/361/398
f 336/361/399 345/367/399 337/362/399
f 337/362/400 346/368/400 338/363/400
f 338/363/401 347/369/401 339/356/401
f 339/356/402 348/370/402 340/357/402
f 340/357/403 349/371/403 341/358/403
f 325/345/404 341/358/405 349/371/406
f 346/368/407 355/372/407 347/369/407
f 347/369/408 356/373/408 348/370/408
f 348/370/409 357/374/409 349/371/409
f 325/345/404 349/371/406 357/374/410
f 342/375/411 351/376/411 343/365/411
f 343/365/412 352/377/412 344/366/413
f 344/366/414 353/378/414 345/367/414
f 345/367/415 354/379/415 346/368/415
f 351/376/416 360/380/416 352/377/416
f 352/377/417 361/381/417 353/378/417
f 353/378/418 362/382/418 354/379/418
f 354/379/419 363/383/419 355/372/419
f 355/372/420 364/384/420 356/373/420
f 356/373/421 365/385/421 357/374/421
f 325/345/422 357/374/422 365/385/422
f 350/386/423 359/387/423 351/376/423
f 363/383/424 372/388/424 364/384/424
f 364/384/425 373/389/425 365/385/425
f 325/345/426 365/385/426 373/389/426
f 358/390/427 367/391/427 359/387/427
f 359/387/428 368/392/428 360/380/428
f 360/380/429 369/393/429 361/381/429
f 361/381/430 370/394/430 362/382/430
f 362/382/431 371/395/431 363/383/431
f 367/391/432 376/396/432 368/392/432
f 368/392/433 377/397/433 369/393/433
f 369/393/434 378/398/434 370/394/434
f 370/394/435 379/399/435 371/395/435
f 371/395/436 380/400/436 372/388/436
f 372/388/437 381/401/437 373/389/437
f 325/345/438 373/389/438 381/401/438
f 366/402/439 375/403/439 367/391/439
f 379/399/440 388/404/440 380/400/440
f 380/400/441 389/405/441 381/401/441
f 325/345/442 381/401/442 389/405/442
f 374/406/443 383/407/443 375/403/443
f 375/403/444 384/408/444 376/396/444
f 376/396/445 385/409/445 377/397/445
f 377/397/446 386/410/446 378/398/446
f 378/398/447 387/411/447 379/399/447
f 385/412/448 392/413/448 393/414/448
f 386/415/449 393/414/449 394/416/449
f 387/417/450 394/416/450 395/418/450
f 388/419/451 395/418/451 396/420/451
f 389/421/452 396/420/452 397/422/452
f 325/423/453 389/421/453 397/422/453
f 383/424/454 390/425/454 391/426/454
f 384/427/455 391/426/455 392/413/456
f 397/422/457 404/428/457 405/429/457
f 325/423/458 397/422/458 405/429/458
f 391/426/459 398/430/459 399/431/459
f 392/413/460 399/431/460 400/432/460
f 393/414/461 400/432/461 401/433/461
f 394/416/462 401/433/462 402/434/462
f 395/418/463 402/434/463 403/435/463
f 396/420/464 403/435/464 404/428/464
f 402/434/465 409/436/465 410/437/465
f 403/435/466 410/437/466 411/438/466
f 404/428/467 411/438/467 412/439/467
f 405/429/468 412/439/468 413/440/468
f 325/423/469 405/429/469 413/440/469
f 399/431/470 406/441/470 407/442/470
f 400/432/471 407/442/471 408/443/471
f 401/433/472 408/443/472 409/436/472
f 325/423/473 413/440/473 421/444/473
f 407/442/474 414/445/474 415/446/474
f 408/443/475 415/446/475 416/447/475
f 409/436/476 416/447/476 417/448/476
f 410/437/477 417/448/477 418/449/477
f 411/438/478 418/449/478 419/450/478
f 412/439/479 419/450/479 420/451/479
f 413/440/480 420/451/480 421/444/480
f 418/449/481 425/452/481 426/453/481
f 419/450/482 426/453/482 427/454/482
f 420/451/483 427/454/483 428/455/483
f 421/444/484 428/455/484 429/456/484
f 325/423/485 421/444/486 429/456/487
f 415/446/488 422/457/488 423/458/488
f 416/447/489 423/458/489 424/459/490
f 417/448/491 424/459/491 425/452/491
f 325/423/485 429/456/487 437/460/492
f 423/458/493 430/461/493 431/462/493
f 424/459/494 431/462/494 432/463/494
f 425/452/495 432/463/495 433/464/495
f 426/453/496 433/464/496 434/465/496
f 427/454/497 434/465/497 435/466/497
f 428/455/498 435/466/498 436/467/498
f 429/456/499 436/467/499 437/460/499
f 435/466/500 442/468/500 443/469/500
f 436/467/501 443/469/501 444/470/501
f 437/460/502 444/470/502 445/471/502
f 325/423/503 437/460/504 445/471/505
f 431/462/506 438/472/506 439/473/506
f 432/463/507 439/473/507 440/474/507
f 433/464/508 440/474/508 441/475/508
f 434/465/509 441/475/509 442/468/509
f 439/473/510 446/476/510 447/477/510
f 440/474/511 447/477/511 448/478/511
f 441/475/512 448/478/512 449/479/512
f 442/468/513 449/479/513 450/480/513
f 443/469/514 450/480/514 451/481/514
f 444/470/515 451/481/515 452/482/515
f 445/471/516 452/482/516 453/483/516
f 325/423/503 445/471/505 453/483/517
f 450/480/518 459/484/518 451/481/518
f 451/481/519 460/485/519 452/482/519
f 452/482/520 461/486/520 453/483/520
f 325/423/521 453/483/522 461/486/523
f 446/476/524 455/487/524 447/477/524
f 447/477/525 456/488/525 448/478/525
f 448/478/526 457/489/526 449/479/526
f 449/479/527 458/490/527 450/480/527
f 455/487/528 464/491/528 456/488/528
f 456/488/529 465/492/529 457/489/529
f 457/489/530 466/493/530 458/490/530
f 458/490/531 467/494/531 459/484/531
f 459/484/532 468/495/532 460/485/532
f 460/485/533 469/496/533 461/486/533
f 325/423/521 461/486/523 469/496/534
f 454/497/535 463/498/535 455/487/535
f 467/494/536 476/499/536 468/495/536
f 468/495/537 477/500/537 469/496/537
f 325/423/538 469/496/539 477/500/540
f 462/501/541 471/502/541 463/498/541
f 463/498/542 472/503/542 464/491/542
f 464/491/543 473/504/543 465/492/543
f 465/492/544 474/505/544 466/493/544
f 466/493/545 475/506/545 467/494/545
f 472/503/546 481/507/546 473/504/546
f 473/504/547 482/508/547 474/505/547
f 474/505/548 483/509/548 475/506/548
f 475/506/549 484/510/549 476/499/549
f 476/499/550 485/511/550 477/500/550
f 325/423/538 477/500/540 485/511/551
f 470/512/552 479/513/552 471/502/552
f 471/502/553 480/514/553 472/503/554
f 484/510/555 493/515/555 485/511/555
f 325/423/556 485/511/556 493/515/556
f 478/516/557 487/517/557 479/513/557
f 479/513/558 488/518/558 480/514/558
f 480/514/559 489/519/559 481/507/559
f 481/507/560 490/520/560 482/508/560
f 482/508/561 491/521/562 483/509/562
f 483/509/563 492/522/563 484/510/563
f 488/518/564 497/523/564 489/519/564
f 489/519/565 498/524/565 490/520/565
f 490/520/566 499/525/566 491/521/566
f 491/521/567 500/526/567 492/522/567
f 492/522/568 501/527/568 493/515/568
f 325/423/569 493/515/569 501/527/569
f 486/528/570 495/529/570 487/517/570
f 487/517/571 496/530/571 488/518/571
f 500/526/572 509/531/572 501/527/572
f 325/423/573 501/527/573 509/531/573
f 494/532/574 503/533/574 495/529/574
f 495/529/575 504/534/575 496/530/575
f 496/530/576 505/535/576 497/523/576
f 497/523/577 506/536/577 498/524/577
f 498/524/578 507/537/578 499/525/578
f 499/525/579 508/538/579 500/526/579
f 505/535/580 514/539/580 506/536/580
f 506/536/581 515/540/581 507/537/581
f 507/537/582 516/541/582 508/538/582
f 508/538/583 517/542/583 509/531/583
f 325/423/584 509/531/584 517/542/584
f 502/543/585 511/544/585 503/533/585
f 503/533/586 512/545/586 504/534/586
f 504/534/587 513/546/587 505/535/587
f 325/345/588 517/547/588 525/548/588
f 511/549/589 518/550/589 519/551/589
f 512/552/590 519/551/590 520/553/590
f 513/554/591 520/553/591 521/555/591
f 514/556/592 521/555/593 522/557/592
f 515/558/594 522/557/594 523/559/594
f 516/560/595 523/559/595 524/561/595
f 517/547/596 524/561/596 525/548/596
f 522/557/597 529/562/597 530/563/597
f 523/559/598 530/563/598 531/564/598
f 524/561/599 531/564/599 532/565/599
f 525/548/600 532/565/600 533/566/600
f 325/345/601 525/548/601 533/566/601
f 519/551/602 526/567/602 527/568/602
f 520/553/603 527/568/603 528/569/603
f 521/555/604 528/569/604 529/562/604
f 325/345/605 533/566/605 541/570/605
f 527/568/606 534/571/606 535/572/606
f 528/569/607 535/572/607 536/573/607
f 529/562/608 536/573/608 537/574/608
f 530/563/609 537/574/609 538/575/609
f 531/564/610 538/575/610 539/576/610
f 532/565/611 539/576/611 540/577/611
f 533/566/612 540/577/612 541/570/612
f 539/576/613 546/578/613 547/579/613
f 540/577/614 547/579/614 548/580/614
f 541/570/615 548/580/615 549/581/615
f 325/345/616 541/570/616 549/581/616
f 535/572/617 542/582/617 543/583/617
f 536/573/618 543/583/618 544/584/618
f 537/574/619 544/584/619 545/585/619
f 538/575/620 545/585/620 546/578/620
f 544/584/621 551/586/621 552/587/621
f 545/585/622 552/587/622 553/588/622
f 546/578/623 553/588/623 554/589/623
f 547/579/624 554/589/624 555/590/624
f 548/580/625 555/590/625 556/591/625
f 549/581/626 556/591/626 557/592/626
f 325/345/627 549/581/628 557/592/629
f 543/583/630 550/593/630 551/586/630
f 556/591/631 563/594/631 564/595/631
f 557/592/632 564/595/632 565/596/632
f 325/345/627 557/592/629 565/596/633
f 551/586/634 558/597/634 559/598/634
f 552/587/635 559/598/635 560/599/635
f 553/588/636 560/599/636 561/600/636
f 554/589/637 561/600/637 562/601/637
f 555/590/638 562/601/638 563/594/638
f 560/599/639 567/602/639 568/603/639
f 561/600/640 568/603/640 569/604/640
f 562/601/641 569/604/641 570/605/641
f 563/594/642 570/605/642 571/606/642
f 564/595/643 571/606/643 572/607/643
f 565/596/644 572/607/644 573/608/644
f 325/345/645 565/596/646 573/608/647
f 559/598/648 566/609/648 567/602/648
f 572/607/649 576/340/649 577/342/649
f 573/608/650 577/342/650 578/344/650
f 325/345/645 573/608/647 578/344/651
f 567/602/652 322/346/652 323/348/652
f 568/603/653 323/348/653 574/350/653
f 569/604/654 574/350/654 324/352/654
f 570/605/655 324/352/655 575/354/655
f 571/606/656 575/354/656 576/340/656
f 228/247/378 322/346/378 226/242/378
f 231/250/378 326/359/378 228/247/378
f 318/335/378 322/346/378 566/609/378
f 315/330/378 566/609/378 558/597/378
f 446/476/378 270/285/378 273/288/378
f 4/1/1 225/15/1 10/2/1
f 223/7/5 222/4/5 5/6/6
f 2/9/8 223/7/8 6/8/9
f 224/11/11 2/9/11 7/10/12
f 3/13/14 224/11/14 8/12/14
f 225/15/15 3/13/15 9/14/15
f 10/2/16 9/14/16 16/16/16
f 11/3/17 10/2/17 17/17/17
f 6/8/7 5/6/6 12/19/19
f 7/10/10 6/8/9 13/20/21
f 8/12/13 7/10/12 14/21/23
f 9/14/25 8/12/25 15/22/25
f 13/20/20 12/19/19 19/23/26
f 14/21/22 13/20/21 20/24/28
f 15/22/24 14/21/23 21/25/29
f 16/16/31 15/22/31 22/26/31
f 17/17/32 16/16/32 23/27/32
f 18/18/33 17/17/657 24/28/33
f 24/28/35 23/27/35 30/30/35
f 25/29/36 24/28/36 31/31/36
f 20/24/27 19/23/26 26/33/38
f 21/25/40 20/24/40 27/34/40
f 22/26/30 21/25/29 28/35/41
f 23/27/43 22/26/43 29/36/43
f 28/35/44 27/34/44 34/37/44
f 29/36/42 28/35/41 35/38/45
f 30/30/46 29/36/46 36/39/46
f 31/31/47 30/30/47 37/40/47
f 32/32/48 31/31/48 38/41/48
f 27/34/39 26/33/38 33/43/50
f 39/42/52 38/41/52 45/44/52
f 34/37/51 33/43/50 40/46/54
f 35/38/56 34/37/57 41/47/57
f 36/39/59 35/38/56 42/48/58
f 37/40/60 36/39/60 43/49/60
f 38/41/61 37/40/61 44/50/61
f 42/48/62 41/47/63 48/51/63
f 43/49/65 42/48/62 49/52/64
f 44/50/66 43/49/66 50/53/66
f 45/44/67 44/50/67 51/54/67
f 46/45/68 45/44/68 52/55/68
f 41/47/55 40/46/54 47/57/70
f 53/56/72 52/55/72 59/58/72
f 48/51/71 47/57/70 54/60/74
f 49/52/75 48/51/76 55/61/76
f 50/53/78 49/52/75 56/62/77
f 51/54/79 50/53/79 57/63/79
f 52/55/80 51/54/80 58/64/80
f 56/65/81 63/79/89 64/66/82
f 57/67/83 64/66/83 65/68/83
f 58/69/84 65/68/84 66/70/84
f 59/71/85 66/70/85 67/72/85
f 54/74/74 61/76/91 62/77/87
f 55/78/88 62/77/88 63/79/89
f 61/76/91 68/80/104 69/81/92
f 62/77/93 69/81/93 70/82/94
f 63/79/95 70/82/94 71/83/96
f 64/66/97 71/83/97 72/84/97
f 65/68/98 72/84/98 73/85/98
f 66/70/99 73/85/99 74/86/99
f 71/83/100 78/93/100 79/87/100
f 72/84/101 79/87/101 80/88/101
f 73/85/102 80/88/102 81/89/102
f 68/80/104 75/90/111 76/91/105
f 69/81/106 76/91/106 77/92/107
f 70/82/108 77/92/107 78/93/109
f 75/90/111 82/94/127 83/95/112
f 76/91/113 83/95/113 84/96/114
f 77/92/115 84/96/114 85/97/116
f 78/93/118 85/97/118 86/98/118
f 79/87/119 86/98/119 87/99/119
f 80/88/120 87/99/120 88/100/120
f 85/97/121 92/107/121 93/101/121
f 86/98/122 93/101/122 94/102/122
f 87/99/123 94/102/123 95/103/123
f 82/94/127 89/104/131 90/105/128
f 83/95/129 90/105/129 91/106/129
f 84/96/114 91/106/135 92/107/130
f 89/104/131 96/114/144 97/108/132
f 90/105/133 97/108/146 98/109/134
f 91/106/135 98/109/148 99/110/136
f 92/107/137 99/110/137 100/111/137
f 93/101/138 100/111/138 101/112/138
f 94/102/139 101/112/658 102/113/139
f 100/111/141 107/121/141 108/115/141
f 101/112/142 108/115/142 109/116/142
f 96/114/144 103/117/151 104/118/145
f 97/108/146 104/118/153 105/119/147
f 98/109/148 105/119/155 106/120/149
f 99/110/150 106/120/150 107/121/150
f 103/117/151 110/128/152 111/122/152
f 104/118/153 111/122/154 112/123/154
f 105/119/155 112/123/156 113/124/156
f 106/120/157 113/124/157 114/125/157
f 107/121/158 114/125/158 115/126/158
f 108/115/159 115/126/159 116/127/159
f 115/126/161 114/125/161 121/129/161
f 116/127/162 115/126/162 122/130/162
f 111/122/152 110/128/152 117/132/164
f 112/123/154 111/122/154 118/133/166
f 113/124/156 112/123/156 119/134/168
f 114/125/170 113/124/170 120/135/170
f 119/134/167 118/133/166 125/136/171
f 120/135/169 119/134/168 126/137/173
f 121/129/175 120/135/175 127/138/175
f 122/130/176 121/129/176 128/139/176
f 123/131/177 122/130/177 129/140/177
f 118/133/165 117/132/164 124/142/179
f 130/141/181 129/140/181 136/143/181
f 125/136/180 124/142/179 131/145/183
f 126/137/172 125/136/171 132/146/185
f 127/138/174 126/137/173 133/147/186
f 128/139/188 127/138/188 134/148/188
f 129/140/189 128/139/189 135/149/189
f 134/148/187 133/147/186 140/150/190
f 135/149/191 134/148/191 141/151/191
f 136/143/192 135/149/192 142/152/192
f 137/144/193 136/143/193 143/153/193
f 132/146/184 131/145/183 138/155/195
f 133/147/197 132/146/197 139/156/197
f 139/156/196 138/155/195 145/157/199
f 140/150/201 139/156/202 146/158/202
f 141/151/204 140/150/201 147/159/203
f 142/152/205 141/151/205 148/160/205
f 143/153/206 142/152/206 149/161/206
f 144/154/207 143/153/207 150/162/207
f 148/160/208 147/159/216 154/164/209
f 149/161/210 148/160/210 155/165/210
f 150/162/211 149/161/211 156/166/211
f 151/163/212 150/162/212 157/167/212
f 146/158/200 145/157/199 152/169/214
f 147/159/216 146/158/217 153/170/217
f 153/170/215 152/169/214 159/171/219
f 154/164/221 153/170/222 160/172/222
f 155/165/224 154/164/221 161/173/223
f 156/166/225 155/165/225 162/174/225
f 157/167/226 156/166/226 163/175/226
f 158/168/227 157/167/227 164/176/227
f 163/175/228 162/174/228 169/178/228
f 164/176/229 163/175/229 170/179/229
f 165/177/230 164/176/230 171/180/230
f 160/172/220 159/171/219 166/182/232
f 161/173/233 160/172/234 167/183/234
f 162/174/236 161/173/233 168/184/235
f 166/185/232 173/186/250 174/187/238
f 167/188/239 174/187/239 175/189/240
f 168/190/241 175/189/240 176/191/242
f 169/192/243 176/191/243 177/193/243
f 170/194/244 177/193/244 178/195/244
f 171/196/245 178/195/245 179/197/245
f 176/191/246 183/205/246 184/199/246
f 177/193/247 184/199/247 185/200/247
f 178/195/248 185/200/248 186/201/248
f 173/186/250 180/202/256 181/203/251
f 174/187/252 181/203/252 182/204/253
f 175/189/254 182/204/253 183/205/255
f 180/202/256 187/212/269 188/206/257
f 181/203/258 188/206/258 189/207/259
f 182/204/260 189/207/259 190/208/261
f 183/205/262 190/208/262 191/209/262
f 184/199/263 191/209/263 192/210/263
f 185/200/264 192/210/264 193/211/264
f 191/209/266 198/219/266 199/213/266
f 192/210/267 199/213/267 200/214/267
f 187/212/269 194/215/284 195/216/270
f 188/206/271 195/216/271 196/217/272
f 189/207/273 196/217/272 197/218/274
f 190/208/276 197/218/276 198/219/276
f 195/216/277 202/226/277 203/220/277
f 196/217/272 203/220/292 204/221/278
f 197/218/279 204/221/279 205/222/279
f 198/219/280 205/222/280 206/223/280
f 199/213/281 206/223/281 207/224/281
f 194/215/284 201/225/288 202/226/285
f 206/223/286 213/233/286 214/227/286
f 201/225/288 208/228/304 209/229/289
f 202/226/290 209/229/296 210/230/291
f 203/220/292 210/230/298 211/231/293
f 204/221/294 211/231/294 212/232/294
f 205/222/295 212/232/295 213/233/295
f 209/229/296 216/240/308 217/234/297
f 210/230/298 217/234/309 218/235/299
f 211/231/300 218/235/300 219/236/300
f 212/232/301 219/236/301 220/237/301
f 213/233/302 220/237/302 221/238/302
f 208/228/304 215/239/307 216/240/305
f 220/237/306 225/15/306 4/1/306
f 215/239/307 222/4/5 223/7/5
f 216/240/308 223/7/8 2/9/8
f 217/234/309 2/9/11 224/11/11
f 218/235/310 224/11/310 3/13/310
f 219/236/311 3/13/311 225/15/311
f 229/241/312 228/247/312 226/242/312
f 230/244/313 229/241/313 227/243/313
f 232/246/314 231/250/314 228/247/314
f 233/248/315 232/246/315 229/241/315
f 235/249/316 234/253/316 231/250/316
f 236/251/317 235/249/317 232/246/317
f 238/252/318 237/257/318 234/253/318
f 239/254/319 238/252/659 235/249/319
f 242/255/320 241/256/320 238/252/320
f 241/256/321 240/259/321 237/257/321
f 244/258/322 243/263/322 240/259/322
f 245/260/323 244/258/323 241/256/323
f 248/261/324 247/262/324 244/258/324
f 247/262/325 246/265/325 243/263/325
f 250/264/326 249/268/326 246/265/326
f 251/266/327 250/264/327 247/262/327
f 250/264/329 253/269/329 252/267/329
f 251/266/330 254/271/660 253/269/330
f 253/269/331 256/272/331 255/270/331
f 254/271/332 257/274/332 256/272/332
f 256/272/333 259/275/333 258/273/333
f 257/274/334 260/277/334 259/275/334
f 259/275/335 262/278/335 261/276/335
f 260/277/336 263/280/336 262/278/336
f 262/278/337 265/281/337 264/279/337
f 263/280/338 266/283/338 265/281/338
f 265/281/339 268/284/339 267/282/339
f 266/283/340 269/286/340 268/284/340
f 268/284/341 271/287/341 270/285/341
f 269/286/342 272/289/342 271/287/342
f 271/287/343 274/290/343 273/288/343
f 272/289/344 275/293/344 274/290/344
f 277/291/345 276/296/345 273/288/345
f 278/292/346 277/291/346 274/290/346
f 281/294/347 280/295/347 277/291/347
f 280/295/348 279/298/348 276/296/348
f 283/297/349 282/301/349 279/298/349
f 284/299/350 283/297/350 280/295/350
f 286/300/351 285/304/351 282/301/351
f 287/302/352 286/300/352 283/297/352
f 289/303/353 288/307/353 285/304/353
f 290/305/354 289/303/354 286/300/354
f 292/306/355 291/310/355 288/307/355
f 293/308/356 292/306/356 289/303/356
f 295/309/357 294/313/357 291/310/357
f 296/311/358 295/309/358 292/306/358
f 298/312/359 297/316/359 294/313/359
f 299/314/360 298/312/360 295/309/360
f 298/312/362 301/317/362 300/315/362
f 299/314/363 302/319/661 301/317/363
f 301/317/364 304/320/364 303/318/364
f 302/319/365 305/322/365 304/320/365
f 304/320/366 307/323/366 306/321/366
f 305/322/367 308/325/367 307/323/367
f 307/323/368 310/326/368 309/324/368
f 308/325/369 311/327/369 310/326/369
f 311/327/370 314/331/370 313/328/370
f 310/326/371 313/328/371 312/329/371
f 313/328/372 316/332/372 315/330/372
f 314/331/373 317/333/373 316/332/373
f 317/333/374 320/336/374 319/334/374
f 316/332/375 319/334/375 318/335/375
f 319/334/376 227/243/376 226/242/376
f 320/336/377 321/245/377 227/243/377
f 236/610/378 233/611/378 269/612/378
f 233/611/378 230/613/378 272/614/378
f 230/613/378 321/615/378 272/614/378
f 321/615/378 320/616/378 275/617/378
f 272/614/378 321/615/378 275/617/378
f 320/616/378 317/618/378 281/619/378
f 317/618/378 314/620/378 284/621/378
f 314/620/378 311/622/378 284/621/378
f 311/622/378 308/623/378 287/624/378
f 284/621/378 311/622/378 287/624/378
f 308/623/378 305/625/378 293/626/378
f 305/625/378 302/627/378 296/628/378
f 302/627/378 299/629/378 296/628/378
f 296/628/378 293/626/378 305/625/378
f 293/626/378 290/630/378 308/623/378
f 290/630/378 287/624/378 308/623/378
f 284/621/378 281/619/378 317/618/378
f 281/619/378 278/631/378 320/616/378
f 278/631/378 275/617/378 320/616/378
f 272/614/378 269/612/378 233/611/378
f 269/612/378 266/632/378 236/610/378
f 266/632/378 263/633/378 236/610/378
f 263/633/378 260/339/378 239/338/378
f 236/610/378 263/633/378 239/338/378
f 260/339/378 257/634/378 245/635/378
f 257/634/378 254/636/378 248/637/378
f 254/636/378 251/638/378 248/637/378
f 248/637/378 245/635/378 257/634/378
f 245/635/378 242/337/378 260/339/378
f 576/340/379 331/355/379 332/341/379
f 577/342/380 332/341/380 333/343/380
f 322/346/384 326/359/384 327/347/384
f 323/348/385 327/347/385 328/349/385
f 574/350/386 328/349/386 329/351/386
f 324/352/387 329/351/387 330/353/387
f 575/354/388 330/353/388 331/355/388
f 330/353/389 338/363/389 339/356/389
f 331/355/390 339/356/390 340/357/390
f 332/341/391 340/357/391 341/358/391
f 326/359/393 334/364/393 335/360/393
f 327/347/394 335/360/394 336/361/394
f 328/349/395 336/361/395 337/362/395
f 329/351/396 337/362/396 338/363/396
f 334/364/397 342/375/397 343/365/397
f 335/360/398 343/365/398 344/366/398
f 336/361/399 344/366/399 345/367/399
f 337/362/400 345/367/400 346/368/400
f 338/363/401 346/368/401 347/369/401
f 339/356/402 347/369/402 348/370/402
f 340/357/403 348/370/403 349/371/403
f 346/368/407 354/379/407 355/372/407
f 347/369/408 355/372/408 356/373/408
f 348/370/409 356/373/409 357/374/409
f 342/375/411 350/386/411 351/376/411
f 343/365/412 351/376/412 352/377/412
f 344/366/414 352/377/414 353/378/414
f 345/367/415 353/378/415 354/379/415
f 351/376/416 359/387/416 360/380/416
f 352/377/417 360/380/417 361/381/417
f 353/378/418 361/381/418 362/382/418
f 354/379/419 362/382/419 363/383/419
f 355/372/420 363/383/420 364/384/420
f 356/373/421 364/384/421 365/385/421
f 350/386/423 358/390/423 359/387/423
f 363/383/424 371/395/424 372/388/424
f 364/384/425 372/388/425 373/389/425
f 358/390/427 366/402/427 367/391/427
f 359/387/428 367/391/428 368/392/428
f 360/380/429 368/392/429 369/393/429
f 361/381/430 369/393/430 370/394/430
f 362/382/431 370/394/431 371/395/431
f 367/391/432 375/403/432 376/396/432
f 368/392/433 376/396/433 377/397/433
f 369/393/434 377/397/434 378/398/434
f 370/394/435 378/398/435 379/399/435
f 371/395/436 379/399/436 380/400/436
f 372/388/437 380/400/437 381/401/437
f 366/402/439 374/406/439 375/403/439
f 379/399/440 387/411/440 388/404/440
f 380/400/441 388/404/441 389/405/441
f 374/406/443 382/639/443 383/407/443
f 375/403/444 383/407/444 384/408/444
f 376/396/445 384/408/445 385/409/445
f 377/397/446 385/409/446 386/410/446
f 378/398/447 386/410/447 387/411/447
f 385/412/448 384/427/448 392/413/448
f 386/415/449 385/412/449 393/414/449
f 387/417/450 386/415/450 394/416/450
f 388/419/451 387/417/451 395/418/451
f 389/421/452 388/419/452 396/420/452
f 383/424/454 382/639/454 390/425/454
f 384/427/455 383/424/662 391/426/455
f 397/422/457 396/420/457 404/428/457
f 391/426/459 390/425/459 398/430/459
f 392/413/460 391/426/460 399/431/460
f 393/414/461 392/413/461 400/432/461
f 394/416/462 393/414/462 401/433/462
f 395/418/463 394/416/463 402/434/463
f 396/420/464 395/418/464 403/435/464
f 402/434/465 401/433/465 409/436/465
f 403/435/466 402/434/466 410/437/466
f 404/428/467 403/435/467 411/438/467
f 405/429/468 404/428/468 412/439/468
f 399/431/470 398/430/470 406/441/470
f 400/432/471 399/431/471 407/442/471
f 401/433/472 400/432/472 408/443/472
f 407/442/474 406/441/474 414/445/474
f 408/443/475 407/442/475 415/446/475
f 409/436/476 408/443/476 416/447/476
f 410/437/477 409/436/477 417/448/477
f 411/438/478 410/437/478 418/449/478
f 412/439/479 411/438/479 419/450/479
f 413/440/480 412/439/480 420/451/480
f 418/449/481 417/448/481 425/452/481
f 419/450/482 418/449/482 426/453/482
f 420/451/483 419/450/483 427/454/483
f 421/444/484 420/451/484 428/455/484
f 415/446/488 414/445/488 422/457/488
f 416/447/489 415/446/489 423/458/489
f 417/448/491 416/447/491 424/459/491
f 423/458/493 422/457/493 430/461/493
f 424/459/494 423/458/494 431/462/494
f 425/452/495 424/459/495 432/463/495
f 426/453/496 425/452/496 433/464/496
f 427/454/497 426/453/497 434/465/497
f 428/455/498 427/454/498 435/466/498
f 429/456/499 428/455/499 436/467/499
f 435/466/500 434/465/500 442/468/500
f 436/467/501 435/466/501 443/469/501
f 437/460/502 436/467/502 444/470/502
f 431/462/506 430/461/506 438/472/506
f 432/463/507 431/462/507 439/473/507
f 433/464/508 432/463/508 440/474/508
f 434/465/509 433/464/509 441/475/509
f 439/473/510 438/472/510 446/476/510
f 440/474/511 439/473/511 447/477/511
f 441/475/512 440/474/512 448/478/512
f 442/468/513 441/475/513 449/479/513
f 443/469/514 442/468/514 450/480/514
f 444/470/515 443/469/515 451/481/515
f 445/471/516 444/470/516 452/482/516
f 450/480/518 458/490/518 459/484/518
f 451/481/519 459/484/519 460/485/519
f 452/482/520 460/485/520 461/486/520
f 446/476/524 454/497/524 455/487/524
f 447/477/525 455/487/525 456/488/525
f 448/478/526 456/488/526 457/489/526
f 449/479/527 457/489/527 458/490/527
f 455/487/528 463/498/528 464/491/528
f 456/488/529 464/491/529 465/492/529
f 457/489/530 465/492/530 466/493/530
f 458/490/531 466/493/531 467/494/531
f 459/484/532 467/494/532 468/495/532
f 460/485/533 468/495/533 469/496/533
f 454/497/535 462/501/535 463/498/535
f 467/494/536 475/506/536 476/499/536
f 468/495/537 476/499/537 477/500/537
f 462/501/541 470/512/541 471/502/541
f 463/498/542 471/502/542 472/503/542
f 464/491/543 472/503/543 473/504/543
f 465/492/544 473/504/544 474/505/544
f 466/493/545 474/505/545 475/506/545
f 472/503/546 480/514/546 481/507/546
f 473/504/547 481/507/547 482/508/547
f 474/505/548 482/508/548 483/509/548
f 475/506/549 483/509/549 484/510/549
f 476/499/550 484/510/550 485/511/550
f 470/512/552 478/516/552 479/513/552
f 471/502/553 479/513/553 480/514/553
f 484/510/555 492/522/555 493/515/555
f 478/516/557 486/528/557 487/517/557
f 479/513/558 487/517/558 488/518/558
f 480/514/559 488/518/559 489/519/559
f 481/507/560 489/519/560 490/520/560
f 482/508/561 490/520/561 491/521/562
f 483/509/563 491/521/563 492/522/563
f 488/518/564 496/530/564 497/523/564
f 489/519/565 497/523/565 498/524/565
f 490/520/566 498/524/566 499/525/566
f 491/521/567 499/525/567 500/526/567
f 492/522/568 500/526/568 501/527/568
f 486/528/570 494/532/570 495/529/570
f 487/517/571 495/529/571 496/530/571
f 500/526/572 508/538/572 509/531/572
f 494/532/574 502/543/574 503/533/574
f 495/529/575 503/533/575 504/534/575
f 496/530/576 504/534/576 505/535/576
f 497/523/577 505/535/577 506/536/577
f 498/524/578 506/536/578 507/537/578
f 499/525/579 507/537/579 508/538/579
f 505/535/580 513/546/663 514/539/580
f 506/536/581 514/539/581 515/540/581
f 507/537/582 515/540/582 516/541/582
f 508/538/583 516/541/583 517/542/583
f 502/543/585 510/640/585 511/544/585
f 503/533/586 511/544/586 512/545/586
f 504/534/587 512/545/587 513/546/587
f 511/549/589 510/640/589 518/550/589
f 512/552/590 511/549/590 519/551/590
f 513/554/591 512/552/591 520/553/591
f 514/556/592 513/554/593 521/555/593
f 515/558/594 514/556/594 522/557/594
f 516/560/595 515/558/595 523/559/595
f 517/547/596 516/560/596 524/561/596
f 522/557/597 521/555/597 529/562/597
f 523/559/598 522/557/598 530/563/598
f 524/561/599 523/559/599 531/564/599
f 525/548/600 524/561/600 532/565/600
f 519/551/602 518/550/602 526/567/602
f 520/553/603 519/551/603 527/568/603
f 521/555/604 520/553/604 528/569/604
f 527/568/606 526/567/606 534/571/606
f 528/569/607 527/568/607 535/572/607
f 529/562/608 528/569/608 536/573/608
f 530/563/609 529/562/609 537/574/609
f 531/564/610 530/563/610 538/575/610
f 532/565/611 531/564/611 539/576/611
f 533/566/612 532/565/612 540/577/612
f 539/576/613 538/575/613 546/578/613
f 540/577/614 539/576/614 547/579/614
f 541/570/615 540/577/615 548/580/615
f 535/572/617 534/571/617 542/582/617
f 536/573/618 535/572/618 543/583/618
f 537/574/619 536/573/619 544/584/619
f 538/575/620 537/574/620 545/585/620
f 544/584/621 543/583/621 551/586/621
f 545/585/622 544/584/622 552/587/622
f 546/578/623 545/585/623 553/588/623
f 547/579/624 546/578/624 554/589/624
f 548/580/625 547/579/625 555/590/625
f 549/581/626 548/580/626 556/591/626
f 543/583/630 542/582/630 550/593/630
f 556/591/631 555/590/631 563/594/631
f 557/592/632 556/591/632 564/595/632
f 551/586/634 550/593/634 558/597/634
f 552/587/635 551/586/635 559/598/635
f 553/588/636 552/587/636 560/599/636
f 554/589/637 553/588/637 561/600/637
f 555/590/638 554/589/638 562/601/638
f 560/599/639 559/598/639 567/602/639
f 561/600/640 560/599/640 568/603/640
f 562/601/641 561/600/641 569/604/641
f 563/594/642 562/601/642 570/605/642
f 564/595/643 563/594/643 571/606/643
f 565/596/644 564/595/644 572/607/644
f 559/598/648 558/597/648 566/609/648
f 572/607/649 571/606/649 576/340/649
f 573/608/650 572/607/650 577/342/650
f 567/602/652 566/609/652 322/346/652
f 568/603/653 567/602/653 323/348/653
f 569/604/654 568/603/654 574/350/654
f 570/605/655 569/604/655 324/352/655
f 571/606/656 570/605/656 575/354/656
f 228/247/378 326/359/378 322/346/378
f 231/250/378 334/364/378 326/359/378
f 318/335/378 226/242/378 322/346/378
f 315/330/378 318/335/378 566/609/378
f 334/364/378 231/250/378 234/253/378
f 342/375/378 334/364/378 234/253/378
f 315/330/378 558/597/378 312/329/378
f 558/597/378 550/593/378 312/329/378
f 350/386/378 342/375/378 237/257/378
f 342/375/378 234/253/378 237/257/378
f 312/329/378 550/593/378 309/324/378
f 550/593/378 542/582/378 309/324/378
f 358/390/378 350/386/378 240/259/378
f 350/386/378 237/257/378 240/259/378
f 309/324/378 542/582/378 306/321/378
f 542/582/378 534/571/378 306/321/378
f 366/402/378 358/390/378 243/263/378
f 358/390/378 240/259/378 243/263/378
f 306/321/378 534/571/378 303/318/378
f 534/571/378 526/567/378 303/318/378
f 374/406/378 366/402/378 246/265/378
f 366/402/378 243/263/378 246/265/378
f 303/318/378 526/567/378 300/315/378
f 526/567/378 518/550/378 300/315/378
f 382/639/378 374/406/378 249/268/378
f 374/406/378 246/265/378 249/268/378
f 300/315/378 518/550/378 297/316/378
f 518/550/378 510/640/378 297/316/378
f 390/425/378 382/639/378 249/268/378
f 390/425/378 249/268/378 252/267/378
f 297/316/378 510/640/378 502/543/378
f 294/313/378 297/316/378 502/543/378
f 398/430/378 390/425/378 252/267/378
f 398/430/378 252/267/378 255/270/378
f 294/313/378 502/543/378 494/532/378
f 291/310/378 294/313/378 494/532/378
f 406/441/378 398/430/378 255/270/378
f 406/441/378 255/270/378 258/273/378
f 291/310/378 494/532/378 486/528/378
f 288/307/378 291/310/378 486/528/378
f 414/445/378 406/441/378 258/273/378
f 414/445/378 258/273/378 261/276/378
f 288/307/378 486/528/378 478/516/378
f 285/304/378 288/307/378 478/516/378
f 422/457/378 414/445/378 261/276/378
f 422/457/378 261/276/378 264/279/378
f 285/304/378 478/516/378 470/512/378
f 282/301/378 285/304/378 470/512/378
f 430/461/378 422/457/378 264/279/378
f 430/461/378 264/279/378 267/282/378
f 282/301/378 470/512/378 462/501/378
f 279/298/378 282/301/378 462/501/378
f 438/472/378 430/461/378 267/282/378
f 438/472/378 267/282/378 270/285/378
f 279/298/378 462/501/378 454/497/378
f 276/296/378 279/298/378 454/497/378
f 446/476/378 438/472/378 270/285/378
f 273/288/378 276/296/378 446/476/378
f 276/296/378 454/497/378 446/476/378
